<svg xmlns="http://www.w3.org/2000/svg" width="22.1" height="22.1" viewBox="0 0 22.1 22.1">
  <g id="Cart" transform="translate(0 0)">
    <g id="Path_32" data-name="Path 32" fill="none" stroke-linecap="round" stroke-linejoin="round">
      <path d="M7.165,16.92h9.7a3.234,3.234,0,0,0,3.109-2.347l2.1-7.227a.647.647,0,0,0-.622-.828H5.1l-.76-3.549A3.787,3.787,0,0,0,.647,0a.647.647,0,0,0,0,1.295A2.517,2.517,0,0,1,3.069,3.24L5.452,14.364a3.248,3.248,0,0,0,.777,1.5,1.942,1.942,0,0,0,.427,3.575,1.942,1.942,0,1,0,3.636.068h5.4a1.942,1.942,0,1,0,3.662,0h.759a.647.647,0,0,0,0-1.295H7.165a.647.647,0,1,1,0-1.295Z" stroke="none"/>
      <path d="M 17.52445602416992 21.09982872009277 C 18.04407691955566 21.09982872009277 18.46682739257812 20.67708969116211 18.46682739257812 20.15746879577637 C 18.46682739257812 20.05039978027344 18.44870758056641 19.94499969482422 18.41296768188477 19.84421920776367 C 18.34011459350586 19.63876914978027 18.33727264404297 19.41817474365234 18.39993286132812 19.2150993347168 L 16.64899253845215 19.2150993347168 C 16.71164894104004 19.41818237304688 16.70880317687988 19.63880920410156 16.63593673706055 19.84425926208496 C 16.60021781921387 19.94499969482422 16.58209609985352 20.05037879943848 16.58209609985352 20.15746879577637 C 16.58209609985352 20.67708969116211 17.00483703613281 21.09982872009277 17.52445602416992 21.09982872009277 M 8.460086822509766 21.09982872009277 C 8.979706764221191 21.09982872009277 9.402457237243652 20.67708969116211 9.402457237243652 20.15746879577637 C 9.402457237243652 20.05039978027344 9.384336471557617 19.94501876831055 9.348607063293457 19.84425926208496 C 9.275740623474121 19.63880920410156 9.272893905639648 19.41818237304688 9.335551261901855 19.2150993347168 L 7.629054546356201 19.2150993347168 C 7.67481517791748 19.41197204589844 7.660248756408691 19.62007141113281 7.584167003631592 19.81126976013184 C 7.540076732635498 19.92206954956055 7.517726898193359 20.03854942321777 7.517726898193359 20.15746879577637 C 7.517726898193359 20.67708969116211 7.94046688079834 21.09982872009277 8.460086822509766 21.09982872009277 M 16.86405754089355 15.92018985748291 C 17.86054611206055 15.92018985748291 18.74297714233398 15.25512981414795 19.00996780395508 14.30288982391357 C 19.01082611083984 14.29980945587158 19.0117073059082 14.29673957824707 19.01259613037109 14.29366970062256 L 20.98268127441406 7.517749786376953 L 5.095396995544434 7.517749786376953 C 5.065751552581787 7.517749786376953 5.036328792572021 7.516444206237793 5.007251262664795 7.513889789581299 L 6.429616928100586 14.15332984924316 C 6.51250696182251 14.53877925872803 6.698367118835449 14.89814949035645 6.967116832733154 15.19257926940918 C 7.148753643035889 15.39158058166504 7.241358757019043 15.65415859222412 7.227103233337402 15.92018985748291 L 16.86405754089355 15.92018985748291 M 17.52445602416992 22.09982872009277 C 16.45343780517578 22.09982872009277 15.58209705352783 21.22848892211914 15.58209705352783 20.15746879577637 C 15.58209705352783 19.93050956726074 15.62158679962158 19.71265983581543 15.69345664978027 19.510009765625 L 10.29108715057373 19.510009765625 C 10.36295700073242 19.71265983581543 10.40245723724365 19.93050956726074 10.40245723724365 20.15746879577637 C 10.40245723724365 21.22848892211914 9.531106948852539 22.09982872009277 8.460086822509766 22.09982872009277 C 7.389066696166992 22.09982872009277 6.517726898193359 21.22848892211914 6.517726898193359 20.15746879577637 C 6.517726898193359 19.90469932556152 6.566796779632568 19.66328048706055 6.655026912689209 19.44154930114746 C 5.830766677856445 19.21689033508301 5.222816944122314 18.46212959289551 5.222816944122314 17.56764030456543 C 5.222816944122314 16.83610916137695 5.629497051239014 16.19792938232422 6.228527069091797 15.86673927307129 C 5.843677043914795 15.44510936737061 5.572786808013916 14.92541980743408 5.451966762542725 14.36355972290039 L 3.069076776504517 3.24049973487854 C 2.830556869506836 2.131579637527466 1.789446830749512 1.294939637184143 0.6474668979644775 1.294939637184143 C 0.2898968756198883 1.294939637184143 6.88079853716772e-06 1.005049586296082 6.88079853716772e-06 0.647489607334137 C 6.88079853716772e-06 0.2899196147918701 0.2898968756198883 2.961883546959143e-05 0.6474668979644775 2.961883546959143e-05 C 2.414276838302612 2.961883546959143e-05 3.96515679359436 1.248539566993713 4.33510684967041 2.96873950958252 L 5.095396995544434 6.517749786376953 L 21.45235633850098 6.517749786376953 C 21.65603637695312 6.517749786376953 21.84785652160645 6.613609790802002 21.97013664245605 6.776509761810303 C 22.09242630004883 6.939409732818604 22.13092613220215 7.150349617004395 22.07403755187988 7.345969676971436 L 19.97283744812012 14.57285976409912 C 19.58526611328125 15.95513916015625 18.30744743347168 16.92018890380859 16.86405754089355 16.92018890380859 L 7.165176868438721 16.92018890380859 C 6.808166980743408 16.92018890380859 6.517726898193359 17.21063995361328 6.517726898193359 17.56764030456543 C 6.517726898193359 17.92465019226074 6.808166980743408 18.2150993347168 7.165176868438721 18.2150993347168 L 20.11427688598633 18.2150993347168 C 20.47184753417969 18.2150993347168 20.76173782348633 18.50498962402344 20.76173782348633 18.8625602722168 C 20.76173782348633 19.22011947631836 20.47184753417969 19.510009765625 20.11427688598633 19.510009765625 L 19.35546684265137 19.510009765625 C 19.42732620239258 19.71265983581543 19.46682739257812 19.93050956726074 19.46682739257812 20.15746879577637 C 19.46682739257812 21.22848892211914 18.5954761505127 22.09982872009277 17.52445602416992 22.09982872009277 Z" stroke="none" fill="#612690"/>
    </g>
    <g id="Group_15" data-name="Group 15" transform="translate(8.46 9.089)">
      <path id="Path_33" data-name="Path 33" d="M204.519,210.578a.648.648,0,0,0-.744.534l-.647,3.928a.647.647,0,1,0,1.278.211l.647-3.928A.647.647,0,0,0,204.519,210.578Zm-7.236.534a.647.647,0,1,0-1.278.211l.647,3.928a.647.647,0,1,0,1.278-.211Zm3.246-.542a.647.647,0,0,0-.647.647v3.928a.647.647,0,0,0,1.295,0v-3.928A.647.647,0,0,0,200.529,210.569Z" transform="translate(-195.997 -210.569)" fill="#612690"/>
    </g>
  </g>
</svg>
