<svg xmlns="http://www.w3.org/2000/svg" width="98.299" height="70.214" viewBox="0 0 98.299 70.214">
  <path id="comma" d="M9.755,7.611A3.509,3.509,0,0,1,12.707,6h24.4A10.544,10.544,0,0,1,47.639,16.532V41.107A10.544,10.544,0,0,1,37.107,51.639h-6.97C33.4,61.081,36.181,65.6,45.445,69.463a3.51,3.51,0,0,1-1.351,6.751h-.007c-19.326-.034-30.427-7.782-38.3-26.721A48.35,48.35,0,0,1,2,30.575C2,20.42,5.072,14.89,9.755,7.611ZM65.367,6h24.4A10.544,10.544,0,0,1,100.3,16.532V41.107A10.544,10.544,0,0,1,89.767,51.639H82.8C86.057,61.081,88.841,65.6,98.1,69.463a3.51,3.51,0,0,1-1.351,6.751h-.007c-19.326-.034-30.427-7.782-38.3-26.721A48.35,48.35,0,0,1,54.66,30.575c0-10.155,3.072-15.685,7.755-22.963A3.509,3.509,0,0,1,65.367,6Z" transform="translate(-2 -6)" fill="#8752ae"/>
</svg>
