<svg xmlns="http://www.w3.org/2000/svg" width="73.889" height="75.276" viewBox="0 0 73.889 75.276">
  <g id="Review" transform="translate(-0.59)">
    <path id="Path_1733" data-name="Path 1733" d="M38.276,22.547a3.413,3.413,0,0,0-1.023-2.458,3.315,3.315,0,0,0-.647-.506,3.5,3.5,0,0,0,.482-1.729,3.494,3.494,0,0,0-3.493-3.493H28.349A9.866,9.866,0,0,1,29.361,11.5a5.883,5.883,0,0,0,.047-5.587,7.1,7.1,0,0,0-1.8-2.094,1.83,1.83,0,0,0-2.835.988l-.753,2.717A5.3,5.3,0,0,1,22.55,9.95C20.41,12,18.293,14.044,16.928,15.4a1.146,1.146,0,0,0-.776-.306H10.271A1.141,1.141,0,0,0,9.13,16.231v16.62a1.15,1.15,0,0,0,1.141,1.141h5.857a1.141,1.141,0,0,0,.847-.4,16.539,16.539,0,0,0,3.776,1.788,3.586,3.586,0,0,0,1.023.141H31.819a3.511,3.511,0,0,0,3.493-3.505,3.622,3.622,0,0,0-.306-1.411,3.5,3.5,0,0,0,1.788-5.14A3.637,3.637,0,0,0,38.276,22.547ZM15,31.663H11.424V17.325H15Zm19.772-7.892H33.83a1.141,1.141,0,1,0,0,2.282,1.267,1.267,0,0,1,.882.365,1.25,1.25,0,0,1,.341.859,1.228,1.228,0,0,1-1.223,1.211H31.819a1.141,1.141,0,1,0,0,2.282,1.24,1.24,0,0,1,.87.365,1.211,1.211,0,0,1-.859,2.07H21.786a1.332,1.332,0,0,1-.4-.047,16.081,16.081,0,0,1-3.576-1.764c-.188-.118-.353-.212-.529-.306V18.2c.953-.941,3.858-3.811,6.834-6.622a7.742,7.742,0,0,0,2.094-3.458l.553-1.988a4.393,4.393,0,0,1,.635.882,3.524,3.524,0,0,1-.071,3.411,12.034,12.034,0,0,0-1.4,5.046,1.126,1.126,0,0,0,1.141,1.176h6.516a1.217,1.217,0,1,1,0,2.435,1.141,1.141,0,1,0,0,2.282h1.2a1.258,1.258,0,0,1,.87.353,1.206,1.206,0,0,1-.882,2.058Zm19.878,5.822a4.374,4.374,0,0,0-3.235-1.317,4.7,4.7,0,0,0-2.635.894,4.634,4.634,0,0,0-2.623-.894,4.449,4.449,0,0,0-3.235,1.317,4.059,4.059,0,0,0-1.117,3.47c.318,2.67,2.776,5.716,6.387,7.939a1.084,1.084,0,0,0,1.188,0c3.611-2.223,6.069-5.269,6.387-7.939a4.119,4.119,0,0,0-1.117-3.47ZM53.5,32.78c-.212,1.835-2.047,4.093-4.717,5.881-2.67-1.788-4.493-4.046-4.7-5.881a1.837,1.837,0,0,1,.47-1.6,2.124,2.124,0,0,1,1.529-.635h.047a2.534,2.534,0,0,1,1.823.906,1.158,1.158,0,0,0,.847.376,1.184,1.184,0,0,0,.859-.376,2.578,2.578,0,0,1,1.823-.906,2.2,2.2,0,0,1,1.576.635A1.927,1.927,0,0,1,53.5,32.78Zm9.139-19.772a1.15,1.15,0,0,0-.929-.776l-3.823-.565L56.178,8.21a1.1,1.1,0,0,0-1.012-.635,1.117,1.117,0,0,0-1.023.635l-1.705,3.458-3.823.565a1.15,1.15,0,0,0-.929.776,1.127,1.127,0,0,0,.294,1.164l2.764,2.705L50.1,20.689a1.149,1.149,0,0,0,1.658,1.2l3.423-1.8,3.411,1.8a1.126,1.126,0,0,0,.541.141,1.175,1.175,0,0,0,.67-.223,1.127,1.127,0,0,0,.459-1.106L59.6,16.89l2.776-2.705a1.19,1.19,0,0,0,.259-1.176Zm-5.069,2.646a1.178,1.178,0,0,0-.329,1.012l.365,2.117-1.905-1a1.124,1.124,0,0,0-1.059,0l-1.905,1,.365-2.117a1.113,1.113,0,0,0-.329-1.012l-1.541-1.494,2.129-.306a1.157,1.157,0,0,0,.859-.623l.953-1.929.941,1.929a1.2,1.2,0,0,0,.87.623l2.117.306-1.529,1.494Z" transform="translate(1.505 0.612)" fill="#4e5292"/>
    <path id="Path_1734" data-name="Path 1734" d="M50.93,15.493l.365,2.117-1.905-1a1.124,1.124,0,0,0-1.059,0l-1.905,1,.365-2.117a1.113,1.113,0,0,0-.329-1.012L44.92,12.988l2.129-.306a1.157,1.157,0,0,0,.859-.623l.953-1.929.941,1.929a1.2,1.2,0,0,0,.87.623l2.117.306-1.541,1.494a1.171,1.171,0,0,0-.318,1.012Z" transform="translate(7.811 1.785)" fill="#ffdb7c"/>
    <path id="Path_1735" data-name="Path 1735" d="M12.717,52.72A12.148,12.148,0,0,0,.59,64.847a1.142,1.142,0,0,0,1.141,1.141H23.714a1.142,1.142,0,0,0,1.141-1.141A12.15,12.15,0,0,0,12.717,52.72Zm6.822,10.986V60.953a1.141,1.141,0,1,0-2.282,0v2.752H8.188V60.953a1.141,1.141,0,1,0-2.282,0v2.752H2.942a9.847,9.847,0,0,1,19.56,0Z" transform="translate(0 9.289)" fill="#4e5292"/>
    <path id="Path_1736" data-name="Path 1736" d="M19.186,63.364V60.612a1.141,1.141,0,1,0-2.282,0v2.752H7.836V60.612a1.141,1.141,0,1,0-2.282,0v2.752H2.59a9.847,9.847,0,0,1,19.56,0Z" transform="translate(0.352 9.631)" fill="#bbe0f6"/>
    <path id="Path_1737" data-name="Path 1737" d="M11.85,41.2A6.346,6.346,0,1,0,18.2,47.54,6.35,6.35,0,0,0,11.85,41.2Zm0,10.421a4.064,4.064,0,1,1,4.07-4.07A4.069,4.069,0,0,1,11.85,51.621Z" transform="translate(0.867 7.259)" fill="#4e5292"/>
    <path id="Path_1738" data-name="Path 1738" d="M15.577,47.2a4.064,4.064,0,1,1-4.07-4.058A4.071,4.071,0,0,1,15.577,47.2Z" transform="translate(1.209 7.601)" fill="#bbe0f6"/>
    <path id="Path_1739" data-name="Path 1739" d="M54.907,52.72A12.148,12.148,0,0,0,42.78,64.847a1.142,1.142,0,0,0,1.141,1.141H65.9a1.142,1.142,0,0,0,1.141-1.141A12.15,12.15,0,0,0,54.907,52.72Zm6.822,10.986V60.953a1.141,1.141,0,1,0-2.282,0v2.752H50.378V60.953a1.141,1.141,0,1,0-2.282,0v2.752H45.132a9.847,9.847,0,0,1,19.56,0H61.728Z" transform="translate(7.434 9.289)" fill="#4e5292"/>
    <path id="Path_1740" data-name="Path 1740" d="M61.376,63.364V60.612a1.141,1.141,0,1,0-2.282,0v2.752H50.026V60.612a1.141,1.141,0,1,0-2.282,0v2.752H44.78a9.847,9.847,0,0,1,19.56,0H61.376Z" transform="translate(7.786 9.631)" fill="#bbe0f6"/>
    <path id="Path_1741" data-name="Path 1741" d="M62.876,63.364H60.641c-.435-4.893-3.646-8.7-7.551-8.7a9.844,9.844,0,0,1,9.786,8.7Z" transform="translate(9.25 9.631)" fill="#cae5f7"/>
    <path id="Path_1742" data-name="Path 1742" d="M54.554,54.66c-3.893,0-7.1,3.811-7.539,8.7H44.78A9.85,9.85,0,0,1,54.554,54.66Z" transform="translate(7.786 9.631)" fill="#a7d6e7"/>
    <path id="Path_1743" data-name="Path 1743" d="M54.04,41.2a6.346,6.346,0,1,0,6.351,6.34A6.35,6.35,0,0,0,54.04,41.2Zm0,10.421a4.064,4.064,0,1,1,4.07-4.07A4.069,4.069,0,0,1,54.04,51.621Z" transform="translate(8.3 7.259)" fill="#4e5292"/>
    <path id="Path_1744" data-name="Path 1744" d="M57.767,47.2A4.064,4.064,0,1,1,53.7,43.14,4.071,4.071,0,0,1,57.767,47.2Z" transform="translate(8.642 7.601)" fill="#bbe0f6"/>
    <path id="Path_1745" data-name="Path 1745" d="M57.16,47.2a4.071,4.071,0,0,1-4.07,4.07c1.447,0,2.623-1.823,2.623-4.07S54.537,43.14,53.09,43.14A4.069,4.069,0,0,1,57.16,47.2Z" transform="translate(9.25 7.601)" fill="#cae5f7"/>
    <path id="Path_1746" data-name="Path 1746" d="M53.7,51.277a4.064,4.064,0,0,1,0-8.127c-1.435,0-2.611,1.823-2.611,4.058S52.263,51.277,53.7,51.277Z" transform="translate(8.642 7.603)" fill="#a7d6e7"/>
    <path id="Path_1747" data-name="Path 1747" d="M44.739,57.375,42.4,55.058a1.139,1.139,0,0,0-1.6,1.623l.365.365H29.9a1.141,1.141,0,0,0,0,2.282H41.164l-.365.365a1.141,1.141,0,0,0,.8,1.952,1.111,1.111,0,0,0,.8-.329L44.727,59a1.165,1.165,0,0,0,.341-.8,1.07,1.07,0,0,0-.094-.435A.933.933,0,0,0,44.739,57.375Zm-.8,7.034H32.671l.365-.365a1.139,1.139,0,1,0-1.6-1.623l-2.329,2.305a1.165,1.165,0,0,0-.341.8,1.17,1.17,0,0,0,.341.812l2.329,2.317a1.139,1.139,0,1,0,1.6-1.623l-.365-.365H43.939a1.135,1.135,0,0,0,1.141-1.141A1.115,1.115,0,0,0,43.939,64.408ZM62.464,0H11.371A7.294,7.294,0,0,0,4.09,7.281V39.308a7.286,7.286,0,0,0,7.281,7.281H62.464a7.286,7.286,0,0,0,7.281-7.281V7.281A7.294,7.294,0,0,0,62.464,0Zm5,39.308a5,5,0,0,1-5,5H11.371a5,5,0,0,1-5-5V7.281a5,5,0,0,1,5-5H62.464a5.011,5.011,0,0,1,5,5Z" transform="translate(0.617 0)" fill="#4e5292"/>
    <path id="Path_1748" data-name="Path 1748" d="M62.123,1.94H11.029a5,5,0,0,0-5,5V38.967a5,5,0,0,0,5,5H62.123a5,5,0,0,0,5-5V6.939a5.011,5.011,0,0,0-5-5ZM37.352,25.687a3.522,3.522,0,0,1,.529,1.858,3.479,3.479,0,0,1-2.317,3.282,3.668,3.668,0,0,1,.306,1.411,3.511,3.511,0,0,1-3.493,3.505H22.332a3.586,3.586,0,0,1-1.023-.141,16.539,16.539,0,0,1-3.776-1.788,1.122,1.122,0,0,1-.847.4H10.817a1.15,1.15,0,0,1-1.141-1.141V16.454a1.142,1.142,0,0,1,1.141-1.141h5.857a1.169,1.169,0,0,1,.776.306c1.364-1.341,3.482-3.4,5.622-5.446a5.243,5.243,0,0,0,1.47-2.423L25.3,5.033a1.83,1.83,0,0,1,2.835-.988,7.41,7.41,0,0,1,1.8,2.094,5.819,5.819,0,0,1-.047,5.587,10,10,0,0,0-1.012,2.858h5.246a3.46,3.46,0,0,1,3.011,5.222,2.92,2.92,0,0,1,.647.506,3.573,3.573,0,0,1-.423,5.375Zm18.96,7.645c-.318,2.67-2.776,5.716-6.387,7.939a1.113,1.113,0,0,1-.6.176,1.074,1.074,0,0,1-.588-.176c-3.611-2.223-6.069-5.269-6.387-7.939a4.071,4.071,0,0,1,1.117-3.47A4.44,4.44,0,0,1,46.7,28.545a4.634,4.634,0,0,1,2.623.894,4.7,4.7,0,0,1,2.635-.894,4.382,4.382,0,0,1,3.235,1.317,4.119,4.119,0,0,1,1.117,3.47ZM62.9,14.443l-2.776,2.705.659,3.811a1.127,1.127,0,0,1-.459,1.106,1.094,1.094,0,0,1-.67.223,1.126,1.126,0,0,1-.541-.141l-3.411-1.8-3.423,1.8a1.113,1.113,0,0,1-1.2-.094,1.127,1.127,0,0,1-.459-1.106l.647-3.811L48.5,14.431a1.127,1.127,0,0,1-.294-1.164,1.15,1.15,0,0,1,.929-.776l3.823-.565,1.705-3.458a1.117,1.117,0,0,1,1.023-.635,1.088,1.088,0,0,1,1.012.635l1.705,3.458,3.823.565a1.15,1.15,0,0,1,.929.776,1.083,1.083,0,0,1-.259,1.176Z" transform="translate(0.958 0.342)" fill="#d8dfe6"/>
    <path id="Path_1749" data-name="Path 1749" d="M66.788,35.32v3.634a4.754,4.754,0,0,1-.541,2.235,4.9,4.9,0,0,1-2.235.541H12.919a5,5,0,0,1-5-5V4.716a4.754,4.754,0,0,1,.541-2.235A4.9,4.9,0,0,1,10.7,1.94H14.33V15.313H10.484a1.141,1.141,0,0,0-1.141,1.141v16.62a1.15,1.15,0,0,0,1.141,1.141h5.7a4.978,4.978,0,0,0,3.14,1.106h.823a6.8,6.8,0,0,0,.823.282A3.586,3.586,0,0,0,22,35.744H32.044A3.475,3.475,0,0,0,33.7,35.32h8.9a14.9,14.9,0,0,0,5.787,5.94,1.084,1.084,0,0,0,1.188,0A17.766,17.766,0,0,0,54,37.473v-.012a10.445,10.445,0,0,0,1.353-2.141Z" transform="translate(1.291 0.342)" fill="#ccd5dd"/>
    <path id="Path_1750" data-name="Path 1750" d="M66.58,41.12a4.971,4.971,0,0,1-4.458,2.764H11.029a5,5,0,0,1-5-5V6.858A4.971,4.971,0,0,1,8.794,2.4a4.9,4.9,0,0,0-.541,2.235V36.663a5,5,0,0,0,5,5H64.346A5.052,5.052,0,0,0,66.58,41.12Z" transform="translate(0.958 0.423)" fill="#b5c3cc"/>
    <path id="Path_1751" data-name="Path 1751" d="M51.258,14.482,52.8,12.988l-2.117-.306a1.2,1.2,0,0,1-.87-.623L48.87,10.13l-.953,1.929a1.157,1.157,0,0,1-.859.623l-2.129.306,1.541,1.494a1.113,1.113,0,0,1,.329,1.012l-.365,2.117,1.905-1a1.125,1.125,0,0,1,1.059,0l1.905,1-.365-2.117a1.106,1.106,0,0,1,.318-1.012Zm-2.07,1.129a.681.681,0,0,0-.67,0l-1.211.623.235-1.329a.7.7,0,0,0-.212-.647l-.964-.941,1.341-.188a.766.766,0,0,0,.553-.388l.6-1.223.588,1.223a.79.79,0,0,0,.553.388l1.341.188-.964.941a.745.745,0,0,0-.212.647l.235,1.329-1.211-.623Z" transform="translate(7.812 1.785)" fill="#f0ca6c"/>
    <path id="Path_1752" data-name="Path 1752" d="M48.265,28.725c-.212,1.835-2.047,4.093-4.717,5.881-2.67-1.788-4.493-4.046-4.7-5.881a1.837,1.837,0,0,1,.47-1.6,2.124,2.124,0,0,1,1.529-.635h.047a2.534,2.534,0,0,1,1.823.906,1.158,1.158,0,0,0,.847.376,1.184,1.184,0,0,0,.859-.376,2.578,2.578,0,0,1,1.823-.906,2.2,2.2,0,0,1,1.576.635A1.927,1.927,0,0,1,48.265,28.725Z" transform="translate(6.736 4.667)" fill="#ec9aad"/>
    <path id="Path_1753" data-name="Path 1753" d="M47.557,28.725c-.212,1.835-2.047,4.093-4.717,5.881A10.226,10.226,0,0,0,46.1,28.725a2.5,2.5,0,0,0-.329-1.6,1.325,1.325,0,0,0-.729-.565,1.709,1.709,0,0,1,.482-.071,2.2,2.2,0,0,1,1.576.635,1.893,1.893,0,0,1,.459,1.6Z" transform="translate(7.444 4.667)" fill="#f1b8c7"/>
    <path id="Path_1754" data-name="Path 1754" d="M43.538,34.616c-2.67-1.788-4.493-4.046-4.7-5.881a1.837,1.837,0,0,1,.47-1.6,2.124,2.124,0,0,1,1.529-.635h.047a2.147,2.147,0,0,1,.47.059,1.5,1.5,0,0,0-.717.576,2.516,2.516,0,0,0-.329,1.6,10.247,10.247,0,0,0,3.235,5.881Z" transform="translate(6.734 4.669)" fill="#d88b9e"/>
    <path id="Path_1755" data-name="Path 1755" d="M11.07,15.25h3.576V29.588H11.07Z" transform="translate(1.847 2.687)" fill="#a5d179"/>
    <path id="Path_1756" data-name="Path 1756" d="M11.07,26.2h3.576v1.458H11.07Z" transform="translate(1.847 4.616)" fill="#94c36b"/>
    <path id="Path_1757" data-name="Path 1757" d="M11.07,15.25h3.576v1.458H11.07Z" transform="translate(1.847 2.687)" fill="#bfdda0"/>
    <path id="Path_1758" data-name="Path 1758" d="M31.468,24.514a1.15,1.15,0,0,0,1.141,1.141,1.267,1.267,0,0,1,.882.365,1.25,1.25,0,0,1,.341.859,1.228,1.228,0,0,1-1.223,1.211H30.6a1.141,1.141,0,1,0,0,2.282,1.24,1.24,0,0,1,.87.365,1.211,1.211,0,0,1-.859,2.07H20.565a1.332,1.332,0,0,1-.4-.047,16.081,16.081,0,0,1-3.576-1.764c-.188-.118-.353-.212-.529-.306V17.8c.953-.941,3.858-3.811,6.834-6.622a7.742,7.742,0,0,0,2.094-3.458L25.54,5.73a4.393,4.393,0,0,1,.635.882,3.524,3.524,0,0,1-.071,3.411,12.034,12.034,0,0,0-1.4,5.046,1.126,1.126,0,0,0,1.141,1.176h6.516a1.217,1.217,0,1,1,0,2.435,1.141,1.141,0,1,0,0,2.282h1.2a1.258,1.258,0,0,1,.87.353,1.223,1.223,0,0,1-.87,2.082h-.941a1.117,1.117,0,0,0-1.153,1.117Z" transform="translate(2.726 1.01)" fill="#f0d299"/>
    <path id="Path_1759" data-name="Path 1759" d="M26.459,7.318l-.565,1.847a7.678,7.678,0,0,1-2.317,3.458c-3.27,2.823-6.469,5.681-7.528,6.622V17.8c.953-.941,3.858-3.811,6.834-6.622a7.742,7.742,0,0,0,2.094-3.458L25.53,5.73a4.393,4.393,0,0,1,.635.882,2.49,2.49,0,0,1,.294.706Z" transform="translate(2.724 1.01)" fill="#ffe4aa"/>
    <path id="Path_1760" data-name="Path 1760" d="M31.821,28.022a.55.55,0,0,1-.024.2,1.193,1.193,0,0,1-1.188,1.012H20.565a1.332,1.332,0,0,1-.4-.047,16.081,16.081,0,0,1-3.576-1.764c-.188-.118-.353-.212-.529-.306V25.87c.176.094.329.188.529.306a16.339,16.339,0,0,0,3.576,1.764,1.332,1.332,0,0,0,.4.047H30.61a1.139,1.139,0,0,0,1.023-.588,1.134,1.134,0,0,1,.188.623Z" transform="translate(2.726 4.558)" fill="#dfc189"/>
    <path id="Path_1761" data-name="Path 1761" d="M20.686,63.364H18.451c-.435-4.893-3.646-8.7-7.551-8.7A9.853,9.853,0,0,1,20.686,63.364Z" transform="translate(1.817 9.631)" fill="#cae5f7"/>
    <path id="Path_1762" data-name="Path 1762" d="M12.364,54.66c-3.893,0-7.1,3.811-7.539,8.7H2.59A9.841,9.841,0,0,1,12.364,54.66Z" transform="translate(0.352 9.631)" fill="#a7d6e7"/>
    <path id="Path_1763" data-name="Path 1763" d="M14.97,47.2a4.071,4.071,0,0,1-4.07,4.07c1.447,0,2.623-1.823,2.623-4.07S12.347,43.14,10.9,43.14A4.069,4.069,0,0,1,14.97,47.2Z" transform="translate(1.817 7.601)" fill="#cae5f7"/>
    <path id="Path_1764" data-name="Path 1764" d="M11.508,51.277a4.064,4.064,0,0,1,0-8.127c-1.435,0-2.611,1.823-2.611,4.058S10.073,51.277,11.508,51.277Z" transform="translate(1.209 7.603)" fill="#a7d6e7"/>
  </g>
</svg>
