<svg xmlns="http://www.w3.org/2000/svg" width="45.462" height="34.675" viewBox="0 0 45.462 34.675">
  <g id="AC" transform="translate(-38.599 -72.16)">
    <path id="Path_432" data-name="Path 432" d="M78.224,96.214V92.277H44.416v3.961h-.36c-.908,0-1.817,0-2.725,0A1.7,1.7,0,0,1,39.6,95.129a12.212,12.212,0,0,1-.6-2.313,40.734,40.734,0,0,1-.4-6.427c0-2.373.053-4.746.17-7.115a18.575,18.575,0,0,1,.923-5.263,8.525,8.525,0,0,1,.719-1.432.887.887,0,0,1,.844-.416q20.043.012,40.085,0a1.074,1.074,0,0,1,.955.5,6.238,6.238,0,0,1,.881,2.095,28.6,28.6,0,0,1,.776,5.766,87.464,87.464,0,0,1-.085,10.161,17.721,17.721,0,0,1-.574,3.816,2.158,2.158,0,0,1-1.437,1.675,1.028,1.028,0,0,1-.283.063q-1.6.007-3.194,0a1.534,1.534,0,0,1-.156-.023ZM73.4,80.592H67.761q-12.349,0-24.7-.006c-.278,0-.365.071-.362.355.016,1.045.006,2.09.008,3.135,0,.1.014.2.023.305H73.4V80.59Zm5.085,3.167a1.31,1.31,0,1,0-1.3-1.313,1.3,1.3,0,0,0,1.3,1.313Z" transform="translate(0 0)" fill="#5a1c89"/>
    <path id="Path_433" data-name="Path 433" d="M81.613,210.33H113.34v1.22a.505.505,0,0,1-.576.567H83c-.447,0-.894-.022-1.341-.034-.014-.455-.031-.91-.043-1.366,0-.124,0-.248,0-.387Z" transform="translate(-36.097 -115.958)" fill="#5a1c89"/>
    <path id="Path_434" data-name="Path 434" d="M84.941,242.534l1.212.124-2.043,2.267c-.2-1.083-.394-2.087-.59-3.123.384.228.722.428,1.129.667V236.7h2.263A9.578,9.578,0,0,1,84.941,242.534Z" transform="translate(-37.699 -138.089)" fill="#5a1c89"/>
    <path id="Path_435" data-name="Path 435" d="M248.657,242.608c.436-.045.788-.082,1.2-.124a9.619,9.619,0,0,1-1.961-5.834h2.239v5.774l1.146-.664c-.191,1.024-.378,2.019-.582,3.109l-2.046-2.262Z" transform="translate(-175.654 -138.047)" fill="#5a1c89"/>
    <path id="Path_436" data-name="Path 436" d="M132.99,242.479c.248.037.428.069.609.088s.344.018.6.031c-.694.77-1.342,1.487-2.056,2.28-.206-1.085-.4-2.083-.593-3.119l1.13.669V236.66h2.262a9.547,9.547,0,0,1-1.953,5.821Z" transform="translate(-78.008 -138.055)" fill="#5a1c89"/>
    <path id="Path_437" data-name="Path 437" d="M202.46,236.61H204.7v5.662l.079.071,1.064-.614c-.19,1.021-.373,2.013-.556,3.006l-.084.029-1.984-2.19,1.207-.124a9.693,9.693,0,0,1-1.968-5.84Z" transform="translate(-137.519 -138.014)" fill="#5a1c89"/>
    <path id="Path_438" data-name="Path 438" d="M94.809,124.575v3.791H64.14c-.008-.1-.022-.2-.022-.305,0-1.045.008-2.09-.008-3.135,0-.285.082-.355.362-.355q12.349.012,24.7.006h5.639Z" transform="translate(-21.409 -43.985)" fill="#fff"/>
    <path id="Path_439" data-name="Path 439" d="M279.946,130.612a1.311,1.311,0,1,1,1.317-1.292,1.309,1.309,0,0,1-1.317,1.292Z" transform="translate(-201.461 -46.855)" fill="#fff"/>
  </g>
</svg>
