<svg xmlns="http://www.w3.org/2000/svg" width="36.037" height="30" viewBox="0 0 36.037 30">
  <g id="CC_Camera" transform="translate(-44.656 -67.38)">
    <path id="Path_442" data-name="Path 442" d="M80.3,74.7a7.761,7.761,0,0,0-.96-6.833,1.471,1.471,0,0,0-.96-.487H46.941a1.474,1.474,0,0,0-.96.487,8.173,8.173,0,0,0-.96,6.833Z" transform="translate(0)" fill="#5a1c89"/>
    <path id="Path_443" data-name="Path 443" d="M62.71,144.34a15.563,15.563,0,1,0,31.119,0v-4.88H62.71Zm25.135-2.44h2.394a1.22,1.22,0,0,1,0,2.44H87.845a1.22,1.22,0,0,1,0-2.44Zm-9.575,0a7.321,7.321,0,1,1-7.181,7.32A7.274,7.274,0,0,1,78.27,141.9Z" transform="translate(-15.609 -62.82)" fill="#5a1c89"/>
    <circle id="Ellipse_23" data-name="Ellipse 23" cx="2.44" cy="2.44" r="2.44" transform="translate(60.235 83.269)" fill="#5a1c89"/>
  </g>
</svg>
