<svg xmlns="http://www.w3.org/2000/svg" width="98.299" height="70.214" viewBox="0 0 98.299 70.214">
  <path id="comma" d="M92.544,7.611A3.509,3.509,0,0,0,89.592,6h-24.4A10.544,10.544,0,0,0,54.66,16.532V41.107A10.544,10.544,0,0,0,65.192,51.639h6.97C68.9,61.081,66.118,65.6,56.854,69.463a3.51,3.51,0,0,0,1.351,6.751h.007c19.326-.034,30.427-7.782,38.3-26.721A48.35,48.35,0,0,0,100.3,30.575C100.3,20.42,97.227,14.89,92.544,7.611ZM36.932,6h-24.4A10.544,10.544,0,0,0,2,16.532V41.107A10.544,10.544,0,0,0,12.532,51.639H19.5C16.242,61.081,13.458,65.6,4.194,69.463a3.51,3.51,0,0,0,1.351,6.751h.007c19.326-.034,30.427-7.782,38.3-26.721a48.35,48.35,0,0,0,3.788-18.918c0-10.155-3.072-15.685-7.755-22.963A3.509,3.509,0,0,0,36.932,6Z" transform="translate(-2 -6)" fill="#8752ae"/>
</svg>
