<svg xmlns="http://www.w3.org/2000/svg" width="39.254" height="30.045" viewBox="0 0 39.254 30.045">
  <path id="Desktop" d="M41.167,72.97H73.478a1,1,0,0,1,1,1v2.552H72.36v-.789a.881.881,0,0,0-.881-.881H43.172a.881.881,0,0,0-.881.881V92.515a.885.885,0,0,0,.881.881H64.863v4.169h-23.7a1,1,0,0,1-1-1v-22.6a1,1,0,0,1,1-1Zm27.917,6.813h9.091a1.254,1.254,0,0,1,1.249,1.249V99.283a1.254,1.254,0,0,1-1.249,1.249H69.084a1.254,1.254,0,0,1-1.249-1.249V81.029a1.253,1.253,0,0,1,1.249-1.246h0ZM76.7,84.948h.9v.518h-.9v-.518Zm-3.07,10.416a1.357,1.357,0,1,1-1.357,1.357,1.357,1.357,0,0,1,1.357-1.357Zm-4.1-11.6H77.73a.259.259,0,0,1,.258.258v1.412a.259.259,0,0,1-.258.258H69.524a.259.259,0,0,1-.258-.258V84.025a.259.259,0,0,1,.258-.258ZM61.852,98.942a4.652,4.652,0,0,0,2.418,4.073H50.781A4.544,4.544,0,0,0,52.8,98.942ZM57.326,94.2a1.281,1.281,0,1,1-1.281,1.281A1.282,1.282,0,0,1,57.326,94.2Z" transform="translate(-40.17 -72.97)" fill="#5a1c89" fill-rule="evenodd"/>
</svg>
