<svg xmlns="http://www.w3.org/2000/svg" width="28.087" height="30" viewBox="0 0 28.087 30">
  <g id="Door_Lock" transform="translate(-59.06 -50.828)">
    <path id="Path_458" data-name="Path 458" d="M59.06,53.313V79.108a1.721,1.721,0,0,0,1.72,1.72H74.537a1.72,1.72,0,0,0,1.72-1.72V77.381H86a.574.574,0,0,0,.574-.574V71.075A.575.575,0,0,0,86,70.5H76.257V53.313a1.721,1.721,0,0,0-1.72-1.72H60.78a1.721,1.721,0,0,0-1.72,1.72ZM75.11,67.644h-14.9V79.108a.575.575,0,0,0,.574.574H74.537a.574.574,0,0,0,.574-.574V77.381H70.958a5.119,5.119,0,1,1-.084-6.88h4.237V67.642ZM69.03,70.5a3.973,3.973,0,1,0,.16,6.878h-1.7a3.446,3.446,0,1,1,0-6.879H69.03Zm-1.536,6.878Zm13.347-5.732h4.586v4.586H80.842Zm2.922-3.422a12.662,12.662,0,0,0,.016-17.216.573.573,0,1,0-.841.778,11.517,11.517,0,0,1-.015,15.657.573.573,0,1,0,.84.779h0Zm-2.247-2.259a9.483,9.483,0,0,0,.016-12.7.573.573,0,1,0-.852.766A8.335,8.335,0,0,1,80.665,65.2a.573.573,0,0,0,.85.769h0ZM69.378,62.484a.574.574,0,0,0-.574-.574H66.512a.574.574,0,0,0-.574.574v2.292a.574.574,0,0,0,.574.574H68.8a.574.574,0,0,0,.574-.574Zm-4.586,0a.574.574,0,0,0-.574-.574H61.926a.574.574,0,0,0-.574.574v2.292a.574.574,0,0,0,.574.574h2.292a.574.574,0,0,0,.574-.574Zm9.172,0a.574.574,0,0,0-.574-.574H71.1a.574.574,0,0,0-.574.574v2.292a.574.574,0,0,0,.574.574H73.39a.574.574,0,0,0,.574-.574Zm-5.732.574V64.2H67.085V63.058Zm-4.586,0V64.2H62.5V63.058Zm9.172,0V64.2H71.671V63.058Zm6.455.643a6.3,6.3,0,0,0,.015-8.161.573.573,0,0,0-.876.741,5.154,5.154,0,0,1-.013,6.676.573.573,0,1,0,.872.744Zm-5.308-5.229a.574.574,0,0,0-.574-.574H71.1a.574.574,0,0,0-.574.574v2.292a.574.574,0,0,0,.574.574h2.292a.574.574,0,0,0,.574-.574V58.472Zm-9.172,0a.574.574,0,0,0-.574-.574H61.927a.574.574,0,0,0-.574.574v2.292a.574.574,0,0,0,.574.574h2.292a.574.574,0,0,0,.574-.574V58.472Zm4.586,0a.574.574,0,0,0-.574-.574H66.513a.574.574,0,0,0-.574.574v2.292a.574.574,0,0,0,.574.574h2.292a.574.574,0,0,0,.574-.574V58.472Zm-1.146.574v1.146H67.087V59.046Zm-4.586,0v1.146H62.5V59.046Zm9.172,0v1.146H71.672V59.046Zm-3.44-4.586a.574.574,0,0,0-.574-.574H66.513a.574.574,0,0,0-.574.574v2.292a.574.574,0,0,0,.574.574h2.292a.574.574,0,0,0,.574-.574Zm4.586,0a.574.574,0,0,0-.574-.574H71.1a.574.574,0,0,0-.574.574v2.292a.574.574,0,0,0,.574.574h2.292a.574.574,0,0,0,.574-.574Zm-9.172,0a.574.574,0,0,0-.574-.574H61.927a.574.574,0,0,0-.574.574v2.292a.574.574,0,0,0,.574.574h2.292a.574.574,0,0,0,.574-.574Zm3.44.574V56.18H67.087V55.034Zm-4.586,0V56.18H62.5V55.034Zm9.172,0V56.18H71.672V55.034Z" transform="translate(0 0)" fill="#5a1c89" fill-rule="evenodd"/>
  </g>
</svg>
