<svg xmlns="http://www.w3.org/2000/svg" width="33.353" height="34.811" viewBox="0 0 33.353 34.811">
  <path id="Electrician" d="M72.244,61.01a6.553,6.553,0,0,1-.871,3.278v.225h-.116a6.592,6.592,0,1,1-11.073-7.155c.113-.176.235-.345.365-.509v-1.1l-1.587-.65L55.6,58.754h-.934L51.306,55.1l-1.587.65v8.767H48.469V56.282L46.1,57.25v7.273H44.856V57.732l-1.723.7a6.087,6.087,0,0,0-2.144,1.857,5.063,5.063,0,0,0-.852,2.512v1.7H38.893v-1.7h0a.229.229,0,0,1,0-.04,6.237,6.237,0,0,1,1.057-3.122,7.335,7.335,0,0,1,2.577-2.254c.028-.017.057-.028.085-.043l8.161-3.335V51.624c-.082-.07-.161-.144-.239-.221a8.136,8.136,0,0,1-2.124-5.315L48,45.668a.584.584,0,0,1-.2-.44v-.98h1.247v.741l.423.429a.569.569,0,0,1,.17.372h0a7.141,7.141,0,0,0,1.788,4.78,6.364,6.364,0,0,0,3.668,1.593,5.883,5.883,0,0,0,3.673-1.936,7.813,7.813,0,0,0,1.681-4.442.576.576,0,0,1,.13-.31h0l.381-.468v-.8H62.2v.96a.589.589,0,0,1-.13.411l-.4.492a9.009,9.009,0,0,1-1.958,4.92,6.349,6.349,0,0,1-.5.522v2.4l3.259,1.332a6.539,6.539,0,0,1,3.174-.818h0a6.592,6.592,0,0,1,6.592,6.592h.008ZM52.44,34.473a.569.569,0,0,1-.2-.031c-1.816.812-3.284,2.6-3.691,5.567a.618.618,0,0,1-.7.516.6.6,0,0,1-.54-.658v-.006c.467-3.464,2.243-5.556,4.44-6.529a7.639,7.639,0,0,1,3.515-.6,8.561,8.561,0,0,1,3.438.94,7.29,7.29,0,0,1,4.085,6.246.605.605,0,0,1-.587.622h-.008a.611.611,0,0,1-.648-.567,6.131,6.131,0,0,0-3.432-5.244l-.247-.122a.614.614,0,0,1-.221.034c-.567,0-.713.994-.747,2.353-.017.607,0,1.278,0,1.962,0,.545.022,1.1.022,1.47a.619.619,0,1,1-1.239,0c0-.6,0-1.031-.017-1.45,0-.7-.026-1.383,0-2.013a5.431,5.431,0,0,1,.624-2.887,7.265,7.265,0,0,0-1.1-.148,6.812,6.812,0,0,0-1.379.059,5.891,5.891,0,0,1,.585,2.865c.014.65,0,1.36,0,2.087,0,.435-.017.875-.017,1.488a.6.6,0,0,1-1.2,0h0c0-.383,0-.948.02-1.508,0-.713.028-1.419,0-2.035-.031-1.393-.182-2.424-.758-2.41Zm-.417,18v1.593l3.122,3.387,2.839-3.083V52.425a7.8,7.8,0,0,1-2.759.928.607.607,0,0,1-.207,0,9.3,9.3,0,0,1-2.975-.885Zm-4.65-11.8a2.33,2.33,0,0,0,.9.914A13.263,13.263,0,0,0,54.6,42.87a17.03,17.03,0,0,0,6.768-1.189,3.274,3.274,0,0,0,1.393-1.071l1.067.613a4.422,4.422,0,0,1-1.911,1.527A18.272,18.272,0,0,1,54.6,44.062c-2.711-.006-5.41-.488-7-1.482a3.487,3.487,0,0,1-1.357-1.419l1.136-.494Zm6.884,19.3h1.51v1.454h-1.51Zm0,2.984h1.51v1.454h-1.51Zm13.868-5.681-3.1.028L63.885,61.25l1.54.014L63.8,65.374l4.31-5.255H66.215l1.909-2.845Z" transform="translate(-38.893 -32.716)" fill="#5a1c89" fill-rule="evenodd"/>
</svg>
