<svg xmlns="http://www.w3.org/2000/svg" width="22.437" height="30" viewBox="0 0 22.437 30">
  <g id="Fridge" transform="translate(-101.298 -64.058)">
    <path id="Path_482" data-name="Path 482" d="M101.347,149.89H118.1v.81q0,4.556,0,9.113c0,.28-.058.645.087.822a1.88,1.88,0,0,0,.944.641.765.765,0,0,0,.9-.684,3.589,3.589,0,0,0,.049-.772q0-4.556,0-9.113V149.9h3.62c.012.249.033.478.033.708q0,8.018,0,16.036c0,1.616-.641,2.257-2.246,2.257H103.562c-1.608,0-2.25-.64-2.252-2.253q0-8.018,0-16.036c0-.23.021-.459.033-.722Z" transform="translate(-0.009 -74.843)" fill="#5a1c89"/>
    <path id="Path_483" data-name="Path 483" d="M118.09,73.5H101.348c-.017-.241-.043-.447-.043-.653,0-1.578-.013-3.157,0-4.735a3.822,3.822,0,0,1,3.976-4.048q7.229-.014,14.459,0a3.811,3.811,0,0,1,3.983,3.97c.022,1.625.007,3.25,0,4.877,0,.183-.032.365-.051.588h-3.6V72.242c0-1.107.011-2.214-.005-3.321a.991.991,0,1,0-1.975-.008c-.017,1.5-.005,3.008-.005,4.589Z" fill="#5a1c89"/>
  </g>
</svg>
