<svg xmlns="http://www.w3.org/2000/svg" width="32.307" height="32.25" viewBox="0 0 32.307 32.25">
  <g id="Generator" transform="translate(-40.428 -40.69)">
    <path id="Path_511" data-name="Path 511" d="M46.679,70.911v1.383a.571.571,0,0,1-.642.644c-1.311,0-2.623,0-3.935,0a.57.57,0,0,1-.631-.654c0-.441,0-.882,0-1.336a1.428,1.428,0,0,0-.248-.081c-.721-.082-.793-.157-.794-.909q0-3.24,0-6.481V49.991c0-.927.089-1.014,1.035-1.014h18.2V46.943c-.152-.017-.355.019-.471-.066-.2-.15-.5-.367-.507-.568-.052-.98-.025-1.967-.024-2.95,0-.53.347-.618.78-.617,2.064,0,4.127,0,6.191,0,.868,0,1.736,0,2.6,0,.718,0,.835.124.839.845,0,.21,0,.419,0,.668H70.64V40.69h1.052v.889c0,.946,0,1.89,0,2.836,0,.807-.122.92-.949.922q-.752,0-1.5.012c-.034,0-.067.028-.134.057-.15.611.374,1.706-1.032,1.477v2.095h3.681c.884,0,.98.1.98,1.009q0,7.407,0,14.814v4.919a1.114,1.114,0,0,1-1.044,1.2c0,.422,0,.86,0,1.3.007.477-.212.716-.7.715q-1.91-.005-3.82,0c-.48,0-.715-.215-.706-.7.007-.424,0-.847,0-1.328Zm22.9-18.752H58.19V67.684H69.579ZM45.637,54.711c0-.924,0-1.771,0-2.618,0-.949.081-1.031,1.015-1.031H69.685c.861,0,.966.1.966.965q0,7.466,0,14.93v.715q1.042.127,1.042-.779V50.806a.691.691,0,0,0-.777-.786H42.157c-.206,0-.412.019-.648.029V67.672h4.077V64.6c-.823,0-1.593-.006-2.361,0-.478,0-.718-.21-.712-.7.007-.541,0-1.08,0-1.62.007-.657.156-.8.831-.808.744,0,1.49,0,2.254,0V57.836c-.824,0-1.611-.006-2.4,0-.455,0-.685-.2-.686-.659q0-.9,0-1.794c0-.485.25-.688.729-.678.769.014,1.537,0,2.395,0Zm1.095-2.576V67.679H54.97V52.134H46.734ZM41.505,69.762H71.634q.137-.987-.781-.99h-28.7c-.206,0-.412.017-.649.028v.961ZM57.039,67.7V52.159H56.1V67.7h.941Zm9.934-20.755H60.78v1.988h6.194Z" fill="#5a1c89"/>
    <path id="Path_512" data-name="Path 512" d="M212.321,238.56v1H202.84v-1Z" transform="translate(-143.889 -174.982)" fill="#5a1c89"/>
    <path id="Path_513" data-name="Path 513" d="M212.294,256.67v.973h-9.5v-.973Z" transform="translate(-143.845 -190.997)" fill="#5a1c89"/>
    <path id="Path_514" data-name="Path 514" d="M113.535,156.252H108.31V153.12h5.225Z" transform="translate(-60.056 -99.445)" fill="#5a1c89"/>
    <path id="Path_515" data-name="Path 515" d="M110.115,220.68v.972H103.8v-.972Z" transform="translate(-56.073 -159.17)" fill="#5a1c89"/>
    <path id="Path_516" data-name="Path 516" d="M110.144,238.57v1H103.85v-1Z" transform="translate(-56.117 -174.991)" fill="#5a1c89"/>
    <path id="Path_517" data-name="Path 517" d="M103.73,257.638v-.978h2.035v.978Z" transform="translate(-55.985 -190.988)" fill="#5a1c89"/>
    <path id="Path_518" data-name="Path 518" d="M139.77,257.56v-1h2.043v1Z" transform="translate(-87.86 -190.9)" fill="#5a1c89"/>
    <path id="Path_519" data-name="Path 519" d="M229.341,156.49h3.1l-1.907,2.814h1.891l-4.307,5.253,1.624-4.109-1.538-.014Z" transform="translate(-166.035 -102.485)" fill="#5a1c89"/>
  </g>
</svg>
