<svg xmlns="http://www.w3.org/2000/svg" xmlns:xlink="http://www.w3.org/1999/xlink" width="531.489" height="389.856" viewBox="0 0 531.489 389.856">
  <defs>
    <clipPath id="clip-path">
      <path id="Path_666" data-name="Path 666" d="M233.554,141.4a62.177,62.177,0,0,1-124.354,0c0-34.331,27.846-74.2,62.177-74.2C205.795,67.2,233.554,107.066,233.554,141.4Z" transform="translate(-109.2 -67.2)"/>
    </clipPath>
    <filter id="good_service_is_good_business" x="51.77" y="353.856" width="428" height="36" filterUnits="userSpaceOnUse">
      <feOffset dy="2" input="SourceAlpha"/>
      <feGaussianBlur stdDeviation="1" result="blur"/>
      <feFlood flood-opacity="0.161"/>
      <feComposite operator="in" in2="blur"/>
      <feComposite in="SourceGraphic"/>
    </filter>
  </defs>
  <g id="Image" transform="translate(-67.754 -57.8)">
    <g id="OBJECTS" transform="translate(67.754 57.8)">
      <path id="Path_532" data-name="Path 532" d="M590.029,334.273c-22.484,34.158-61.053,54.221-101.957,54.221H148.909c-68.144,0-106.453-79.732-62.177-124.614,44.19-44.882,5.189-83.191,73.333-119.252,66.069-34.85,88.639,39.434,149.519-9.167S459.1,91.445,478.56,141s14.874,67.02,56.21,78,81.634,73.419,56.9,112.853C591.067,332.716,590.548,333.494,590.029,334.273Z" transform="translate(-67.754 -63.686)" fill="#d9fcd6"/>
      <g id="Group_214" data-name="Group 214" transform="translate(41.203 165.69)">
        <g id="Group_210" data-name="Group 210" transform="translate(316.852 95.875)">
          <path id="Path_533" data-name="Path 533" d="M630.973,383.126c-35.715,3.027-59.842,70.046-149.173,29.748,0,0,9.772-29.229,53.789-47.476C579.433,347.237,630.973,383.126,630.973,383.126Z" transform="translate(-481.8 -360.267)" fill="#549b59"/>
          <path id="Path_534" data-name="Path 534" d="M495.9,411.066a251.691,251.691,0,0,1,28.883-12.626c2.421-.951,4.929-1.816,7.437-2.594,2.508-.865,5.016-1.643,7.524-2.421s5.1-1.47,7.61-2.162c1.3-.346,2.508-.692,3.805-1.038l3.805-.951,3.891-.865,3.891-.778,3.891-.778c1.3-.259,2.594-.432,3.892-.605,2.594-.346,5.188-.865,7.869-1.038,2.594-.26,5.275-.692,7.87-.779a132.832,132.832,0,0,1,31.564,1.124,209.8,209.8,0,0,0-31.3,1.643l-1.9.259-1.9.259-3.891.605c-2.594.346-5.1.865-7.7,1.3-1.3.259-2.594.432-3.8.692l-3.8.779-3.805.778-3.805.951-3.8.865c-1.3.346-2.508.605-3.805.951l-3.8.951c-1.3.346-2.508.692-3.8,1.038-2.508.692-5.016,1.384-7.524,2.162s-5.015,1.47-7.523,2.249C515.7,404.148,505.758,407.607,495.9,411.066Z" transform="translate(-483.707 -363.475)" fill="#b0bdd1"/>
        </g>
        <g id="Group_211" data-name="Group 211" transform="translate(300.425 4.492)">
          <path id="Path_535" data-name="Path 535" d="M632.728,254.859c-43.584,31.132-23.435,135.6-168.976,152.027,0,0-9.685-45.055,32.861-102.043C539.16,247.94,632.728,254.859,632.728,254.859Z" transform="translate(-462.804 -254.594)" fill="#76c47f"/>
          <path id="Path_536" data-name="Path 536" d="M475.1,396.822a240.818,240.818,0,0,1,23-39.174,282.418,282.418,0,0,1,29.4-34.85,236.635,236.635,0,0,1,35.023-29.316c12.539-8.561,26.116-16,40.558-20.582a248.877,248.877,0,0,0-37.618,24.559,352.727,352.727,0,0,0-33.38,29.835,438.107,438.107,0,0,0-29.921,33.38C492.655,372.262,483.748,384.369,475.1,396.822Z" transform="translate(-464.466 -257.069)" fill="#cddcf4"/>
        </g>
        <g id="Group_212" data-name="Group 212" transform="translate(0 91.275)">
          <path id="Path_537" data-name="Path 537" d="M115.4,373.153c35.456,5.534,54.74,74.024,146.665,40.212,0,0-7.7-29.835-50.243-51.108C169.275,340.9,115.4,373.153,115.4,373.153Z" transform="translate(-115.4 -354.948)" fill="#549b59"/>
          <path id="Path_538" data-name="Path 538" d="M252.671,410.218c-9.685-4.151-19.284-8.3-28.97-12.107-2.421-.951-4.843-1.816-7.351-2.767-2.421-.951-4.929-1.816-7.351-2.681-1.211-.432-2.421-.865-3.718-1.3l-3.719-1.211c-1.211-.432-2.508-.865-3.719-1.211l-3.718-1.124-3.719-1.211-3.719-1.038-3.718-1.038c-1.211-.346-2.508-.605-3.8-.951-2.508-.605-5.016-1.3-7.61-1.816l-3.8-.865-1.9-.432-1.9-.346a207.136,207.136,0,0,0-31.045-3.805,133.108,133.108,0,0,1,31.564,1.038c2.594.259,5.189.865,7.783,1.3s5.189,1.038,7.783,1.643c1.3.259,2.594.605,3.892.951l3.8,1.038,3.805,1.038,3.8,1.124,3.805,1.211c1.211.432,2.508.865,3.718,1.3,2.508.865,5.016,1.729,7.437,2.681s4.929,1.9,7.351,2.94,4.843,1.989,7.264,3.113A257.248,257.248,0,0,1,252.671,410.218Z" transform="translate(-117.766 -357.768)" fill="#b0bdd1"/>
        </g>
        <g id="Group_213" data-name="Group 213" transform="translate(23.522)">
          <path id="Path_539" data-name="Path 539" d="M142.6,249.4c39.261,32.515,13.144,130.148,150.038,155.486,0,0,12.193-42.114-24.3-98.93C231.844,249.054,142.6,249.4,142.6,249.4Z" transform="translate(-142.6 -249.4)" fill="#76c47f"/>
          <path id="Path_540" data-name="Path 540" d="M288.826,394.87c-7.437-12.366-15.047-24.387-23.176-36.061a412.114,412.114,0,0,0-26.2-33.64,352.7,352.7,0,0,0-29.662-30.526A250.131,250.131,0,0,0,175.8,268.7c13.4,5.275,25.77,13.145,37.185,22.138A223.981,223.981,0,0,1,244.2,321.019a267.317,267.317,0,0,1,25.511,35.11A227,227,0,0,1,288.826,394.87Z" transform="translate(-147.09 -252.01)" fill="#cddcf4"/>
        </g>
      </g>
      <g id="Group_226" data-name="Group 226" transform="translate(259.644 97.027)">
        <g id="Group_215" data-name="Group 215" transform="translate(0 108.788)">
          <path id="Path_541" data-name="Path 541" d="M405.863,354.5c-4.929,5.794-9.339,15.479-12.107,17.036s-7.437,2.075-11.847,16.258,17.814,12.28,17.814,12.28,9.512-5.448,13.318-18.679l9.513-8.475Z" transform="translate(-369.803 -303.738)" fill="#fcd290"/>
          <path id="Path_542" data-name="Path 542" d="M389.773,401.032a35.661,35.661,0,0,0,13.318-8.821c6.14-6.486,6.918-17.987,6.918-17.987l2.94,5.448,5.88-6.313,2.854-.259,2.076,2.335-9.513,8.475c-3.8,13.231-13.318,18.679-13.318,18.679a35.412,35.412,0,0,1-11.328-1.038A.758.758,0,0,1,389.773,401.032Z" transform="translate(-370.921 -306.253)" fill="#efb66a"/>
          <path id="Path_543" data-name="Path 543" d="M441.9,295.8c-6.832,5.016-10.9,8.561-14.269,15.393-3.373,6.745-24.646,31.132-25.943,33.294-1.384,2.162,11.934,25.165,22.57,30.872,0,0,16.085-18.506,25.338-25.511s6.14-31.824,1.816-40.212A65.524,65.524,0,0,0,441.9,295.8Z" transform="translate(-372.542 -295.8)" fill="#5470d3"/>
          <path id="Path_544" data-name="Path 544" d="M443.857,345.431V331.594s1.816-.692,3.2,3.978a12.107,12.107,0,0,1,.259,5.535l10.377-7.783c.432,8.734-.951,17.555-5.88,21.273-9.253,7-25.338,25.511-25.338,25.511A34.348,34.348,0,0,1,418,372.931C424.486,366.445,436.938,353.906,443.857,345.431Z" transform="translate(-374.762 -300.636)" fill="#314ec6"/>
          <path id="Path_545" data-name="Path 545" d="M371.113,400.9c-1.729.519-3.113,1.384-3.113,3.632s.346,5.794,1.211,7.178,5.189,2.249,5.189,2.249-.259-9.167-1.211-10.9A3.832,3.832,0,0,0,371.113,400.9Z" transform="translate(-368 -310.012)" fill="#fcd290"/>
          <path id="Path_546" data-name="Path 546" d="M369.305,413.043a5.047,5.047,0,0,1-.605-1.643,2.836,2.836,0,0,0,2.421,1.038l3.286,1.038c.086,1.038.086,1.73.086,1.73S370.17,414.427,369.305,413.043Z" transform="translate(-368.095 -311.432)" fill="#efb66a"/>
          <path id="Path_547" data-name="Path 547" d="M375.67,397c-2.162.259-4.324,1.816-4.324,4.064s-.778,8.475,0,9.426c.778,1.038,4.5,3.8,5.794,4.064s3.546-.173,3.2-.865C380.167,413,375.67,397,375.67,397Z" transform="translate(-368.406 -309.485)" fill="#fcd290"/>
          <path id="Path_548" data-name="Path 548" d="M371.1,410.7c1.643,1.816,5.794,1.643,5.794,1.643a20.536,20.536,0,0,1,2.075,2.594c.173.346.865.865.951,1.3a5.586,5.586,0,0,1-2.681.173c-1.3-.259-4.929-2.94-5.794-3.978l-.346-1.73Z" transform="translate(-368.419 -311.338)" fill="#efb66a"/>
          <path id="Path_549" data-name="Path 549" d="M384.525,392.7c-6.572.346-7.869.951-8.042,3.632-.26,2.681-.087,10.55.778,12.539s1.3,3.805,2.421,4.843a4.216,4.216,0,0,0,2.681,1.038s3.632-5.275,3.8-9.772C386.168,400.656,384.525,392.7,384.525,392.7Z" transform="translate(-369.132 -308.904)" fill="#fcd290"/>
          <path id="Path_550" data-name="Path 550" d="M380.832,411.612a43.183,43.183,0,0,0,1.211-9.858c0-2.335,2.162,9.685,1.211,12.972-.432.778-.778,1.3-.778,1.3a4.216,4.216,0,0,1-2.681-1.038c-1.038-1.038-1.556-2.854-2.421-4.843-.086-.173-.086-.259-.173-.432C377.546,410.747,378.93,411.525,380.832,411.612Z" transform="translate(-369.244 -310.088)" fill="#efb66a"/>
          <path id="Path_551" data-name="Path 551" d="M399.821,405.943c-.432,3.632-5.188,5.016-5.794,6.832-.519,1.816-.173,3.546-1.038,3.978-.951.432-4.756-1.729-4.583-4.151a4.785,4.785,0,0,1-3.2,2.421c-2.249.346-2.767-1.211-2.421-3.719a32.719,32.719,0,0,0,.259-6.659c-.087-2.94-.778-5.621.519-8.821s3.113-6.053,6.572-5.535c3.545.519,5.707,5.016,7.61,6.486C399.648,398.333,400.253,401.792,399.821,405.943Z" transform="translate(-369.986 -308.569)" fill="#fcd290"/>
          <path id="Path_552" data-name="Path 552" d="M389.2,413.72c.173-4.67.432-8.475.432-9.253s-.259-5.707,1.557-5.967c.259-.086,4.151,2.421,4.237,4.064s0,4.67-1.211,5.448C393,408.877,389.2,413.72,389.2,413.72Z" transform="translate(-370.867 -309.688)" fill="#efb66a"/>
        </g>
        <g id="Group_219" data-name="Group 219" transform="translate(65.377 61.399)">
          <path id="Path_553" data-name="Path 553" d="M556.641,302.548c-7-8.907-9.426-9.772-16.6-14.009-7.264-4.237-34.591-14.874-40.3-16.258-5.621-1.384-28.451,9.253-35.888,12.626s-16.949,6.745-18.592,10.031c-5.448,11.069,5.275,26.721,5.361,59.5,0,17.209,3.978,55.864,3.978,55.864s86.045.173,87.256-1.643,4.237-63.561,5.707-76.186S556.641,302.548,556.641,302.548Z" transform="translate(-443.616 -245.213)" fill="#5470d3"/>
          <g id="Group_216" data-name="Group 216" transform="translate(0 54.308)">
            <path id="Path_554" data-name="Path 554" d="M445.5,316.512a51.247,51.247,0,0,1-1.384-6.313,53.2,53.2,0,0,1-.519-6.4,51.277,51.277,0,0,1,1.384,6.313A31.447,31.447,0,0,1,445.5,316.512Z" transform="translate(-443.6 -303.8)" fill="#314ec6"/>
          </g>
          <path id="Path_555" data-name="Path 555" d="M481.051,302.514c-3.286-1.211-11.242.951-12.626,1.384-1.47.519.865-5.621,1.73-6.4s2.162-2.508,4.756-1.729,4.756,3.805,5.189,4.756A8.231,8.231,0,0,0,481.051,302.514Z" transform="translate(-446.893 -248.38)" fill="#314ec6"/>
          <path id="Path_556" data-name="Path 556" d="M511.354,307.891c-1.211-.087-8.129-3.2-9.772-4.065s-9.167-1.124-14.182.259c0,0,9.685-6.572,15.306-6.486s7.783,2.075,8.215,3.891A33.159,33.159,0,0,1,511.354,307.891Z" transform="translate(-449.523 -248.654)" fill="#314ec6"/>
          <path id="Path_557" data-name="Path 557" d="M470.069,403.04c.951-.865,57.075.865,58.286-4.929,1.124-5.881,1.9-16.517,1.9-16.517-6.745,3.632-16.6,2.075-16.6,2.075,6.572-2.162,16-12.885,16.517-16.085,1.384-9.772-3.8-36.58-3.8-36.58l3.8-7.7,4.5-2.508a62.065,62.065,0,0,1,15.652,11.934,59.419,59.419,0,0,0-1.124,6.226c-1.384,11.934-4.151,67.452-5.534,75.322-17.382.605-48.946,1.816-70.046,2.508H456.232s-.173-5.1-.432-12.366C461.68,404.164,469.55,403.645,470.069,403.04Z" transform="translate(-445.25 -251.791)" fill="#314ec6"/>
          <path id="Path_558" data-name="Path 558" d="M482.991,300.658c6.053-.692,15.825-5.967,19.63-4.151s4.756,6.4,5.534,7.264,4.151-3.2,4.151-12.885.26-19.63-6.832-21.014c-7.178-1.384-25.684,5.621-29.4,8.475a18.14,18.14,0,0,0-6.313,8.388c-1.038,2.767-3.718,13.836-2.508,13.923s4.756-7.091,7.351-7.351S481.348,300.831,482.991,300.658Z" transform="translate(-446.757 -244.88)" fill="#5470d3"/>
          <path id="Path_559" data-name="Path 559" d="M481,293.1c-1.557-3.632-3.2-6.918-3.2-9.426.086-2.508.605-4.324,3.459-5.1s3.978.692,4.151,4.583S481,293.1,481,293.1Z" transform="translate(-448.225 -246.053)" fill="#314ec6"/>
          <path id="Path_560" data-name="Path 560" d="M507.1,285.2c5.881-5.362,6.572-11.328,6.053-12.539s-3.027-2.162-3.027-2.162-.951,3.892-.432,4.843C510.3,276.294,507.1,285.2,507.1,285.2Z" transform="translate(-452.187 -244.989)" fill="#314ec6"/>
          <g id="Group_217" data-name="Group 217" transform="translate(45.573 42.114)">
            <path id="Path_561" data-name="Path 561" d="M496.3,300.769a39.418,39.418,0,0,1,4.5-1.557,17.505,17.505,0,0,1,4.756-.605,5.309,5.309,0,0,1,2.421.778c.605.605,1.124,1.124,1.643,1.729a19.813,19.813,0,0,1,2.508,4.065c.173.346.346.692.519.692l.086-.086c.087-.087.26-.173.346-.346a14.776,14.776,0,0,0,1.124-1.989,15.426,15.426,0,0,0,1.384-4.41c.26-1.557.432-3.113.605-4.67a42.128,42.128,0,0,0,.173-4.67,38.2,38.2,0,0,1-.087,9.426,15.069,15.069,0,0,1-1.3,4.67,10.006,10.006,0,0,1-1.211,2.075,2.938,2.938,0,0,1-.519.519.66.66,0,0,1-.432.173c-.173,0-.432,0-.519-.086a1.363,1.363,0,0,1-.606-.605c-.086-.173-.259-.346-.346-.519a20.038,20.038,0,0,0-2.335-3.978c-.519-.605-1.038-1.211-1.557-1.73a3.659,3.659,0,0,0-1.989-.692,13.706,13.706,0,0,0-4.583.346C499.24,299.9,497.77,300.25,496.3,300.769Z" transform="translate(-496.3 -289.7)" fill="#314ec6"/>
          </g>
          <g id="Group_218" data-name="Group 218" transform="translate(20.041 47.908)">
            <path id="Path_562" data-name="Path 562" d="M478.385,299.6c-.692-.605-1.3-1.124-1.989-1.643a6.431,6.431,0,0,0-1.038-.605c-.173-.086-.346-.086-.519-.173h-.173c-.086,0-.086,0-.173.086a11.558,11.558,0,0,0-3.546,3.546c-.519.692-.951,1.47-1.47,2.162a4.951,4.951,0,0,1-.951.951,1.1,1.1,0,0,1-.778.346,1.6,1.6,0,0,1-.605-.173c-.173-.173-.259-.259-.259-.432a4.218,4.218,0,0,1-.086-1.47l.259-1.3a12.075,12.075,0,0,1,.779-2.508c-.086.865-.259,1.729-.346,2.594a6.545,6.545,0,0,0-.086,1.3,2.2,2.2,0,0,0,.173,1.124.085.085,0,0,0,.086.086h0a.463.463,0,0,0,.346-.259c.259-.259.519-.605.778-.865.519-.692.951-1.384,1.47-2.162a12.957,12.957,0,0,1,1.73-2.075,12.428,12.428,0,0,1,2.162-1.557c.086-.086.259-.086.432-.173h.432a5.946,5.946,0,0,1,.692.259,12.729,12.729,0,0,1,1.124.778A13.822,13.822,0,0,0,478.385,299.6Z" transform="translate(-466.775 -296.4)" fill="#314ec6"/>
          </g>
          <path id="Path_563" data-name="Path 563" d="M480.594,265.992a66.449,66.449,0,0,0,.346,7.178c.605,5.794,0,13.49.432,14.961.519,1.557,3.546,7.264,3.546,7.264s5.448-2.508,7.7-5.189,5.188-2.854,9.167-6.832,6.659-10.377,5.794-15.652c-.087-.692-.779-7.437-.951-14.442S499.1,241,492.1,241s-11.155,10.377-11.415,17.382C480.594,261.149,480.508,263.83,480.594,265.992Z" transform="translate(-448.598 -241)" fill="#efb66a"/>
          <path id="Path_564" data-name="Path 564" d="M506.53,253.464c.173,7,.865,13.75.951,14.442a14.542,14.542,0,0,1-.173,5.1c-1.557.259-21.446.778-26.635-1.643-.087-1.73-.173-3.373-.173-5.1,0-2.162,0-4.843.086-7.783a25.579,25.579,0,0,1,2.335-9.685L499.352,243C503.417,245.162,506.443,248.967,506.53,253.464Z" transform="translate(-448.59 -241.27)" fill="#efb66a"/>
        </g>
        <g id="Group_221" data-name="Group 221" transform="translate(63.215)">
          <path id="Path_565" data-name="Path 565" d="M464.128,221.4c-10.637,0-14.528,8.129-14.528,14.269,0,5.448,1.73,14.269,14.528,14.269,6.4,0,10.723-6.4,10.723-14.269S470.527,221.4,464.128,221.4Z" transform="translate(-442.249 -176.951)" fill="#504984"/>
          <path id="Path_566" data-name="Path 566" d="M464.083,225.4c-8.043,0-10.983,6.14-10.983,10.723,0,4.151,1.3,10.723,10.983,10.723,4.843,0,8.129-4.843,8.129-10.723S468.925,225.4,464.083,225.4Z" transform="translate(-442.723 -177.492)" fill="#372d5b"/>
          <path id="Path_567" data-name="Path 567" d="M450.828,221.788c.605,3.719,2.421,5.1,3.286,10.118.778,5.016-1.384,12.28,1.9,18.593s8.561,14.7,11.588,15.047,27.5-3.805,35.715-20.149c2.335-4.67,7.437-23.176,3.113-34.418S495.1,189.359,478.847,189.1C462.5,188.84,447.542,202.158,450.828,221.788Z" transform="translate(-442.354 -172.582)" fill="#fcd290"/>
          <path id="Path_568" data-name="Path 568" d="M466.327,249.994a3.132,3.132,0,0,0,2.248-.865,2.487,2.487,0,0,0,.432-1.73,5.377,5.377,0,0,1-4.41.951C464.424,249.475,465.375,249.994,466.327,249.994Z" transform="translate(-444.275 -180.467)" fill="#efb66a"/>
          <path id="Path_569" data-name="Path 569" d="M491.949,219.206a10.486,10.486,0,0,0-3.2-6.053s-6.226-2.594-10.983-3.027a57.3,57.3,0,0,1-9.772-1.9s1.557,3.892,4.064,5.535c0,0-11.5-.605-15.133-3.978,0,0,.692,2.767,1.384,4.67,0,0-5.621-.605-7.35-2.767a38.968,38.968,0,0,0-1.384,7.61s-6.745-9.253-5.016-16.6,4.064-10.2,4.064-10.2a40.618,40.618,0,0,1-7.523,0s6.226-5.448,10.983-9.08c4.67-3.632,18.766-3.719,18.766-3.719s-1.124-3.719.173-9.685c0,0,6.053,8.821,12.366,11.5s5.534,2.508,12.28,4.151c6.745,1.73,13.145,6.053,15.912,9.685,2.681,3.632,5.621,7.351,7.351,7.956,0,0-4.237-.605-6.313-2.335,0,0,3.545,7.956-1.124,18.247s-16.344,7.264-18.593,5.016A4.4,4.4,0,0,1,491.949,219.206Z" transform="translate(-441.1 -170)" fill="#2a2b30"/>
          <path id="Path_570" data-name="Path 570" d="M500.1,226.29a4.47,4.47,0,0,1-.865-5.016,11.248,11.248,0,0,0-2.248-5.1A67.794,67.794,0,0,0,495,185.3a39.41,39.41,0,0,0,5.361,1.73,58.7,58.7,0,0,1,7.091,15.306c2.075,6.832,3.027,14.182,1.124,21.014a28.694,28.694,0,0,1-2.076,5.1C503.475,228.279,501.054,227.241,500.1,226.29Z" transform="translate(-448.389 -172.069)" fill="#874438"/>
          <path id="Path_571" data-name="Path 571" d="M502.612,217.192s.778-25.684-12.712-33.9a17.51,17.51,0,0,1,16.431,9.253c5.967,10.464,5.534,19.371,5.448,24.387C511.606,221.949,502.612,217.192,502.612,217.192Z" transform="translate(-447.699 -171.792)" fill="#504984"/>
          <path id="Path_572" data-name="Path 572" d="M507.723,221.4c10.636,0,14.528,8.129,14.528,14.269,0,5.448-1.73,14.269-14.528,14.269-6.4,0-10.723-6.4-10.723-14.269S501.324,221.4,507.723,221.4Z" transform="translate(-448.659 -176.951)" fill="#504984"/>
          <path id="Path_573" data-name="Path 573" d="M502.8,235.826c0-7,4.583-12.626,10.291-12.626s9.945,5.621,9.945,12.626-4.324,12.626-9.945,12.626C507.383,248.538,502.8,242.83,502.8,235.826Z" transform="translate(-449.443 -177.194)" fill="#372d5b"/>
          <ellipse id="Ellipse_27" data-name="Ellipse 27" cx="7.005" cy="8.561" rx="7.005" ry="8.561" transform="translate(57.94 50.07)" fill="#504984"/>
          <g id="Group_220" data-name="Group 220" transform="translate(19.136 72.9)">
            <path id="Path_574" data-name="Path 574" d="M476.262,254.3c-2.854,1.557-12.193,2.075-12.885,1.989-.605-.087.692,7,2.94,7.264s6.832-.346,8.821-2.162S476.262,254.3,476.262,254.3Z" transform="translate(-463.228 -254.3)" fill="#efb66a"/>
            <path id="Path_575" data-name="Path 575" d="M475.774,256.443a15.6,15.6,0,0,1-.432-1.643,49.587,49.587,0,0,1-11.242,1.557,17.506,17.506,0,0,0,.778,2.854c.086,0,0,.086.086.086A13.664,13.664,0,0,0,475.774,256.443Z" transform="translate(-463.346 -254.368)" fill="#fff"/>
          </g>
          <path id="Path_576" data-name="Path 576" d="M476.9,234.335c0-1.3.605-2.335,1.47-2.335.778,0,1.47,1.038,1.47,2.335s-.605,2.335-1.47,2.335S476.9,235.632,476.9,234.335Z" transform="translate(-445.941 -178.384)" fill="#3f1751"/>
          <path id="Path_577" data-name="Path 577" d="M458,235.535c0-1.3.519-2.335,1.211-2.335s1.211,1.038,1.211,2.335-.519,2.335-1.211,2.335C458.519,237.956,458,236.832,458,235.535Z" transform="translate(-443.385 -178.546)" fill="#3f1751"/>
          <path id="Path_578" data-name="Path 578" d="M484.1,223.822a16.651,16.651,0,0,0-3.113-1.211,21.119,21.119,0,0,0-3.373-.519,7.9,7.9,0,0,0-3.459.346,5.938,5.938,0,0,0-2.854,1.989l.086.173c1.211-.086,2.162-.432,3.2-.519,1.038-.173,1.989-.519,3.027-.605a17.451,17.451,0,0,1,6.313.605Z" transform="translate(-445.184 -177.038)" fill="#3f1751"/>
          <path id="Path_579" data-name="Path 579" d="M453.173,227.285a5.049,5.049,0,0,1,1.557-.346,9.4,9.4,0,0,1,1.557-.086,9.394,9.394,0,0,0,1.557.086,2.749,2.749,0,0,0,.778-.259,2.672,2.672,0,0,0,.865-.432v-.173a2.878,2.878,0,0,0-1.643-.778,3.833,3.833,0,0,0-1.73.259,9.217,9.217,0,0,0-1.643.605A5.679,5.679,0,0,0,453,227.2Z" transform="translate(-442.709 -177.474)" fill="#3f1751"/>
        </g>
        <g id="Group_225" data-name="Group 225" transform="translate(44.525 115.447)">
          <path id="Path_580" data-name="Path 580" d="M465.16,420.092c0,.346-.519.865-1.73.865H424.256c-4.5,0-5.534-1.816-4.237-4.065,1.384-2.248,7.091-7.264,21.187-10.723,14.182-3.459,21.619,4.67,23.868,8.3A5.587,5.587,0,0,1,465.16,420.092Z" transform="translate(-419.489 -317.27)" fill="#504984"/>
          <path id="Path_581" data-name="Path 581" d="M419.671,418.143c.778,2.594,30.7,1.211,30.7,1.211s-3.027-4.064-6.4-4.237c-3.373-.086-5.016,1.038-9.513,1.816s-1.124-1.816-1.124-1.816-3.2-.692-4.5-1.73c0,0,7.437-2.162,10.55-2.681a68.566,68.566,0,0,1,12.02,0c.692.086,4.324-1.989,8.734-.951a20.281,20.281,0,0,1,4.929,5.189,5.541,5.541,0,0,1,0,5.534c0,.346-.519.865-1.73.865H424.168C420.19,421.515,418.98,420.045,419.671,418.143Z" transform="translate(-419.488 -317.829)" fill="#372d5b"/>
          <path id="Path_582" data-name="Path 582" d="M548.734,391s-27.846,4.324-42.979,7c-14.269,2.594-26.635,3.632-30.181,3.027-3.459-.692-15.479-5.1-19.284-6.659s-11.5-2.508-15.479-1.211c-3.978,1.211-7.178,2.594-8.734,2.594s-1.3,2.594.865,3.113a15.494,15.494,0,0,0,3.978.432s-7.178,3.892-8.388,4.324.259,2.681,1.989,2.594c0,0-1.557.865-.951,1.816.519.865,4.324.865,4.324.865s-4.583,2.248-.778,3.2c3.805.865,8.388-3.373,10.291-3.8,1.9-.346,6.226-.173,8.388,1.47,2.075,1.557,11.155,8.907,23.522,4.5,0,0,83.8,3.373,92.185,3.373s13.4-7.351,10.723-21.619a106.893,106.893,0,0,0-7.87-24.819l-28.883,2.075Z" transform="translate(-420.65 -312.655)" fill="#fcd290"/>
          <g id="Group_222" data-name="Group 222" transform="translate(10.82 84.033)">
            <path id="Path_583" data-name="Path 583" d="M445.9,400.956a8.325,8.325,0,0,1,1.73-.259A6.807,6.807,0,0,0,445.9,400.956Z" transform="translate(-433.88 -400.673)" fill="#d65863"/>
            <path id="Path_584" data-name="Path 584" d="M437.362,403.248a15.492,15.492,0,0,1-3.978-.432,2.546,2.546,0,0,1-1.384-.865c2.335,1.038,5.189.346,6.832,0,1.038-.26,3.459-.692,5.1-.951A34.853,34.853,0,0,0,437.362,403.248Z" transform="translate(-432 -400.717)" fill="#efb66a"/>
          </g>
          <g id="Group_223" data-name="Group 223" transform="translate(7.794 89.763)">
            <path id="Path_585" data-name="Path 585" d="M438.7,407.473a1.46,1.46,0,0,1,.432-.173A3.645,3.645,0,0,1,438.7,407.473Z" transform="translate(-429.879 -407.3)" fill="#d65863"/>
            <path id="Path_586" data-name="Path 586" d="M428.5,410.094s.865.778,2.594,0c1.47-.605,4.929-2.075,6.226-2.594-1.557.692-5.708,3.027-6.832,3.459A2.39,2.39,0,0,1,428.5,410.094Z" transform="translate(-428.5 -407.327)" fill="#efb66a"/>
          </g>
          <path id="Path_587" data-name="Path 587" d="M433.081,413.132c1.3-.346,3.978-1.989,5.621-2.767a11.151,11.151,0,0,1,3.718-.865,9.7,9.7,0,0,0-2.248.865c-1.643.779-6.14,3.632-6.14,3.632a14.615,14.615,0,0,1-3.632-.432C430.4,413.478,431.784,413.478,433.081,413.132Z" transform="translate(-420.963 -317.834)" fill="#efb66a"/>
          <path id="Path_588" data-name="Path 588" d="M459.193,415.083c2.335,1.47,9.339,3.373,13.577,2.594a6.466,6.466,0,0,0,5.1-4.324l1.124,3.8s58.113,1.643,69.96,1.124c11.674-.519,29.921-.778,32.256-7.783-.692,8.129-5.1,12.366-11.328,12.366-8.388,0-92.185-3.373-92.185-3.373-12.366,4.324-21.36-2.94-23.522-4.5-1.73-1.3-5.1-1.729-7.178-1.557h0C450.2,412.23,456.772,413.613,459.193,415.083Z" transform="translate(-423.208 -317.97)" fill="#efb66a"/>
          <path id="Path_589" data-name="Path 589" d="M567.235,392.775s10.9-1.47,13.058-1.73L578.65,384.3l-13.75,2.767Z" transform="translate(-439.152 -314.427)" fill="#efb66a"/>
          <path id="Path_590" data-name="Path 590" d="M592.424,362.889a2.678,2.678,0,0,1-.692,3.027c-5.1,4.929-11.674,11.674-18.506,12.712-7.437,1.124-19.89,1.557-20.582,0s-3.2-21.706-7.7-31.824c-4.5-10.2-7.437-15.393-8.562-21.187-1.124-5.88,8.994-19.63,13.577-20.754,4.5-1.124,14.874-1.816,19.2,2.075,4.324,3.8,7.437,18.506,12.453,29.575C585.592,345.334,590.608,358.305,592.424,362.889Z" transform="translate(-435.284 -303.565)" fill="#5470d3"/>
          <g id="Group_224" data-name="Group 224" transform="translate(102.919)">
            <path id="Path_591" data-name="Path 591" d="M564.789,304.538c-1.384-.173-2.767-.259-4.151-.346a33.263,33.263,0,0,0-4.151,0c-1.384.086-2.767.259-4.064.432a13.43,13.43,0,0,0-1.989.432,11.459,11.459,0,0,0-1.816.778,18.31,18.31,0,0,0-1.73,1.038,11.158,11.158,0,0,0-1.47,1.384,31.561,31.561,0,0,0-2.681,3.113,29.571,29.571,0,0,0-2.249,3.459c-.692,1.211-1.384,2.421-1.989,3.632a35.521,35.521,0,0,1,3.805-7.437,23.5,23.5,0,0,1,2.681-3.286c.432-.519,1.038-.951,1.557-1.47a13.245,13.245,0,0,1,1.816-1.211,7.932,7.932,0,0,1,1.989-.778,17.7,17.7,0,0,1,2.075-.432,33.642,33.642,0,0,1,4.237-.346A45.478,45.478,0,0,1,564.789,304.538Z" transform="translate(-538.5 -303.5)" fill="#314ec6"/>
          </g>
          <path id="Path_592" data-name="Path 592" d="M592.455,368.286c0-3.632-7.7-36.666-14.355-55.086h0c2.854,6.313,5.535,16.344,9.167,24.473,3.978,8.907,9.08,21.792,10.81,26.462a2.678,2.678,0,0,1-.692,3.027c-1.9,1.9-4.151,4.064-6.4,6.053C591.158,373.042,592.455,371.658,592.455,368.286Z" transform="translate(-440.937 -304.812)" fill="#314ec6"/>
        </g>
      </g>
      <g id="Group_236" data-name="Group 236" transform="translate(92.344 216.568)">
        <g id="Group_229" data-name="Group 229" transform="translate(0 17.621)">
          <g id="Group_227" data-name="Group 227">
            <path id="Path_593" data-name="Path 593" d="M174.592,333.185a5.1,5.1,0,0,0,.605,3.2,23.222,23.222,0,0,1,2.854,11.761c-.087,2.681-.605,5.448.087,8.042,1.3,4.5,5.967,7.264,7.524,11.674,1.384,3.891.086,8.821,2.854,11.847a2.566,2.566,0,0,0,2.681.951,3.3,3.3,0,0,0,1.211-.951c3.2-3.632,6.659-8.042,5.621-12.8-.951-4.5-5.535-7.523-6.4-11.934-.692-3.632,1.124-7.869-.951-10.983-.605-.865-1.384-1.47-2.075-2.335-2.508-3.2-1.557-8.3-4.41-11.156a6.337,6.337,0,0,0-3.373-1.729,5.062,5.062,0,0,0-6.226,4.41Z" transform="translate(-174.538 -328.61)" fill="#c17530"/>
          </g>
          <g id="Group_228" data-name="Group 228" transform="translate(5.761 5.785)">
            <path id="Path_594" data-name="Path 594" d="M193.834,390.818c.173-2.421.259-4.756.346-7.178-.086-2.421-.259-4.756-.432-7.178a63.528,63.528,0,0,0-.865-7.091,29.276,29.276,0,0,0-1.989-7c-1.729-4.41-3.113-8.907-4.5-13.491l-2.075-6.832c-.865-2.249-1.643-4.5-2.421-6.745.346,2.335.865,4.67,1.384,7l2.075,6.832c1.384,4.583,2.767,9.08,4.583,13.577a30.073,30.073,0,0,1,1.9,6.745,64.54,64.54,0,0,1,.865,7c.173,2.335.346,4.756.432,7.091Z" transform="translate(-181.295 -335.3)" fill="#fff"/>
            <path id="Path_595" data-name="Path 595" d="M181.2,343.276a5.939,5.939,0,0,0,1.47,1.47,3.2,3.2,0,0,0,.951.432,3.106,3.106,0,0,1,.865.605l.087.086.087-.173a7.212,7.212,0,0,0,.692-1.038c.173-.346.432-.692.605-1.038a11.313,11.313,0,0,0,.778-2.421h-.087a8.99,8.99,0,0,0-1.47,2.075c-.173.346-.346.778-.519,1.124a4.953,4.953,0,0,0-.346,1.211l.173-.086a4.754,4.754,0,0,1-.778-.605,5.226,5.226,0,0,0-.692-.692,4.575,4.575,0,0,0-1.816-.951Z" transform="translate(-181.2 -336.098)" fill="#fff"/>
            <path id="Path_596" data-name="Path 596" d="M181.9,352.762l1.3,1.038a7.468,7.468,0,0,0,1.384.865c.519.259,1.038.432,1.47.692a12.369,12.369,0,0,1,1.3.951l.173.086.173-.173a20.355,20.355,0,0,0,3.027-5.621h-.086a28.562,28.562,0,0,0-1.9,2.594,21.572,21.572,0,0,0-1.384,2.854l.259-.087a12.087,12.087,0,0,1-1.47-.778l-1.3-1.038a12.139,12.139,0,0,0-1.384-.865,3.689,3.689,0,0,0-1.557-.519Z" transform="translate(-181.295 -337.369)" fill="#fff"/>
            <path id="Path_597" data-name="Path 597" d="M185.2,365.405a9.434,9.434,0,0,0,1.47,1.124,5.524,5.524,0,0,0,1.643.692,5.737,5.737,0,0,1,1.643.778c.519.346.951.778,1.384,1.038l.346.259.259-.432a8.136,8.136,0,0,0,1.038-1.9,14.6,14.6,0,0,0,.692-2.076l-.086-.086c-.519.519-.951,1.124-1.384,1.643a13.363,13.363,0,0,0-1.038,1.9l.605-.173c-.519-.259-1.124-.432-1.73-.692a4.532,4.532,0,0,1-1.557-.865,4.708,4.708,0,0,0-1.557-.951,8.163,8.163,0,0,0-1.73-.259Z" transform="translate(-181.741 -339.289)" fill="#fff"/>
          </g>
        </g>
        <g id="Group_232" data-name="Group 232" transform="translate(15.006)">
          <g id="Group_230" data-name="Group 230">
            <path id="Path_598" data-name="Path 598" d="M198.99,387.591c1.9-.346,8.821-2.508,8.388-4.324-2.075-7.869-4.151-16.69,3.027-20.495,3.459-1.816,7.869-2.767,9.858-6.226,2.075-3.546.519-7.956-1.3-11.588s-4.064-7.523-3.286-11.5c.865-4.151,4.756-7.264,5.362-11.5.865-5.707-4.756-10.377-10.118-12.626a9.46,9.46,0,0,0-5.707-.951,7.356,7.356,0,0,0-3.546,2.248c-3.8,4.237-3.632,10.55-2.767,16.171s2.162,11.5.086,16.69c-1.47,3.718-4.67,7.264-3.805,11.155.346,1.557,1.3,2.94,1.73,4.5,1.038,4.237-2.508,8.042-4.064,12.02a14.679,14.679,0,0,0,3.286,15.479,3.248,3.248,0,0,0,2.854.951Z" transform="translate(-191.891 -308.233)" fill="#db9249"/>
          </g>
          <g id="Group_231" data-name="Group 231" transform="translate(6.463 9.051)">
            <path id="Path_599" data-name="Path 599" d="M199.4,389.092c.432-3.113.865-6.226,1.384-9.253.173-.778.26-1.556.432-2.335a21.749,21.749,0,0,1,.346-2.335c.259-1.556.519-3.027.778-4.583a61.269,61.269,0,0,1,2.335-8.907,16.149,16.149,0,0,1,1.989-4.064,5.672,5.672,0,0,1,1.384-1.47,7.2,7.2,0,0,0,1.9-1.73,8.11,8.11,0,0,0,1.384-4.843,21.772,21.772,0,0,0-.692-4.756c-.692-3.113-1.643-6.053-2.162-9.08a21.011,21.011,0,0,1,.173-8.994c.259-.692.432-1.384.692-2.162a21.126,21.126,0,0,1,.865-2.075A22.727,22.727,0,0,1,212.8,318.7a17.388,17.388,0,0,0-3.286,3.373,8.421,8.421,0,0,0-1.3,2.076,7.128,7.128,0,0,0-.865,2.248,21.2,21.2,0,0,0-.173,9.6c.519,3.113,1.47,6.14,2.162,9.167a26.962,26.962,0,0,1,.692,4.5,6.686,6.686,0,0,1-1.038,3.978,5.971,5.971,0,0,1-1.557,1.384,7.563,7.563,0,0,0-1.816,1.9,18.017,18.017,0,0,0-2.075,4.324,68.152,68.152,0,0,0-2.421,9.167l-.778,4.67c-.087.778-.259,1.556-.346,2.335s-.087,1.557-.173,2.335A56.321,56.321,0,0,0,199.4,389.092Z" transform="translate(-199.365 -318.7)" fill="#fff"/>
            <path id="Path_600" data-name="Path 600" d="M212.591,329.5a4.646,4.646,0,0,0-1.384.865,6.916,6.916,0,0,0-1.124,1.124,4.558,4.558,0,0,1-.951,1.3,15.092,15.092,0,0,1-1.211,1.038h.519c-.173-.432-.432-.778-.605-1.124-.259-.346-.432-.778-.692-1.124l-.778-1.038a8.112,8.112,0,0,1-.778-1.038H205.5a3.585,3.585,0,0,0,.259,1.384,5.286,5.286,0,0,0,.605,1.211,4.905,4.905,0,0,0,.692,1.124,9.131,9.131,0,0,0,.865,1.038l.346.346.173-.346a6.781,6.781,0,0,1,.865-1.3,6.973,6.973,0,0,1,1.211-1.038,6.909,6.909,0,0,0,1.124-1.124,3.611,3.611,0,0,0,.951-1.3Z" transform="translate(-200.195 -320.16)" fill="#fff"/>
            <path id="Path_601" data-name="Path 601" d="M205.8,343.065a8.209,8.209,0,0,0,.865,1.47l1.038,1.3,1.3,1.038a7.48,7.48,0,0,1,1.124,1.211l.086.173.173-.086a11.182,11.182,0,0,0,1.47-1.3c.432-.519.865-.951,1.3-1.47a17.533,17.533,0,0,0,1.124-1.557c.346-.519.692-1.124,1.038-1.557l-.087-.086a5.389,5.389,0,0,0-1.557,1.211c-.432.432-.865.951-1.3,1.384a17.554,17.554,0,0,0-1.124,1.557c-.346.519-.692,1.124-1.038,1.556h.259a7.461,7.461,0,0,1-1.124-1.211c-.346-.432-.605-.951-.951-1.384s-.778-.778-1.124-1.211a4.52,4.52,0,0,0-1.47-1.038Z" transform="translate(-200.235 -321.878)" fill="#fff"/>
            <path id="Path_602" data-name="Path 602" d="M218.172,353.53c-.605.692-1.211,1.3-1.816,1.9s-1.3,1.124-1.989,1.729a5.891,5.891,0,0,1-2.248,1.3,8.824,8.824,0,0,1-2.594.259l.346.259a18.775,18.775,0,0,0-.605-2.075,13.788,13.788,0,0,0-.865-1.989,8.726,8.726,0,0,0-1.3-1.816,5.387,5.387,0,0,0-1.816-1.3l-.086.086a7.743,7.743,0,0,1,1.3,1.643,18.307,18.307,0,0,1,.951,1.816l.865,1.9c.259.605.519,1.3.778,1.989l.086.346h.259a13.7,13.7,0,0,0,2.681-.778,21.78,21.78,0,0,0,2.508-1.038,7.076,7.076,0,0,0,2.162-1.729,4.567,4.567,0,0,0,1.384-2.508Z" transform="translate(-200.154 -323.176)" fill="#fff"/>
            <path id="Path_603" data-name="Path 603" d="M200.746,361.873a6.283,6.283,0,0,0-.346,2.162,6.023,6.023,0,0,0,.432,2.162,8.482,8.482,0,0,0,1.124,1.9l1.3,1.73.087.086.173-.086a19,19,0,0,1,2.248-1.3c.778-.432,1.557-.778,2.335-1.124a20.1,20.1,0,0,1,2.421-.951c.778-.346,1.643-.605,2.508-.951v-.086a13.66,13.66,0,0,0-5.275,1.038,14.922,14.922,0,0,0-2.335,1.3,20,20,0,0,0-2.075,1.73h.259a4.824,4.824,0,0,1-1.211-1.73,13.426,13.426,0,0,1-.692-1.989,15.4,15.4,0,0,1-.778-4.064Z" transform="translate(-199.505 -324.515)" fill="#fff"/>
          </g>
        </g>
        <g id="Group_235" data-name="Group 235" transform="translate(2.517 66.126)">
          <g id="Group_234" data-name="Group 234">
            <g id="Group_233" data-name="Group 233">
              <path id="Path_604" data-name="Path 604" d="M184.411,418.167h19.976a4,4,0,0,0,3.718-3.805l3.113-24.559c.346-2.681-1.384-5.1-3.719-5.1H181.212c-2.335,0-4.064,2.421-3.719,5.1l3.113,24.559C180.952,416.61,182.509,418.167,184.411,418.167Z" transform="translate(-177.449 -384.7)" fill="#504984"/>
            </g>
          </g>
          <path id="Path_605" data-name="Path 605" d="M181.212,384.8h13.4c-2.335,0-4.064,2.421-3.718,5.1l3.113,24.56a4.008,4.008,0,0,0,3.719,3.8h-13.4a4,4,0,0,1-3.719-3.8l-3.113-24.56C177.147,387.221,178.964,384.8,181.212,384.8Z" transform="translate(-177.449 -384.714)" fill="#372d5b"/>
        </g>
      </g>
      <g id="Group_243" data-name="Group 243" transform="translate(126.556 167.679)">
        <g id="Group_237" data-name="Group 237" transform="translate(68.922 141.728)">
          <path id="Path_606" data-name="Path 606" d="M378.72,415.6H295.356a1.55,1.55,0,0,0-1.557,1.556v3.719a1.55,1.55,0,0,0,1.557,1.557H378.72Z" transform="translate(-293.8 -415.592)" fill="#282142"/>
          <path id="Path_607" data-name="Path 607" d="M413.23,420.269v1.47a.591.591,0,0,1-.605.605H391.611a1.182,1.182,0,0,1-1.211-1.211v-4.324a1.2,1.2,0,0,1,1.3-1.211l20.928,4.064C413.057,419.75,413.23,419.923,413.23,420.269Z" transform="translate(-306.863 -415.591)" fill="#504984"/>
        </g>
        <g id="Group_242" data-name="Group 242">
          <g id="Group_240" data-name="Group 240">
            <path id="Path_608" data-name="Path 608" d="M222.244,251.7H378.075a7.47,7.47,0,0,1,7,4.929l34.072,94.692c1.384,4.843-2.162,8.561-7.869,9.167-.865.086-5.1-1.816-11.674-4.843H260.38a7.47,7.47,0,0,1-7-4.929L222.59,265.19c-5.189-2.681-8.215-4.237-8.215-4.237S212.385,251.7,222.244,251.7Z" transform="translate(-214.116 -251.7)" fill="#504984"/>
            <path id="Path_609" data-name="Path 609" d="M373.218,257.4H217.3a3.186,3.186,0,0,0-3.027,4.237l34.072,94.692a7.47,7.47,0,0,0,7,4.929H411.182a3.186,3.186,0,0,0,3.027-4.237l-34.072-94.692A7.164,7.164,0,0,0,373.218,257.4Z" transform="translate(-214.101 -252.471)" fill="#372d5b"/>
            <path id="Path_610" data-name="Path 610" d="M352.221,373.484,345.3,347.8l-26.2,25.684Z" transform="translate(-228.3 -264.695)" fill="#282142"/>
            <path id="Path_611" data-name="Path 611" d="M313.489,294.867c.692,4.237,3.459,5.967,6.745,5.967a5.088,5.088,0,0,0,5.189-5.967,7.261,7.261,0,0,0-6.745-5.967A5.125,5.125,0,0,0,313.489,294.867Z" transform="translate(-227.532 -256.73)" fill="#504984"/>
            <g id="Group_238" data-name="Group 238" transform="translate(141.303 87.428)">
              <path id="Path_612" data-name="Path 612" d="M397.889,358.421,395.9,352.8h2.508l1.989,5.621Z" transform="translate(-379.988 -352.8)" fill="#282142"/>
              <path id="Path_613" data-name="Path 613" d="M391.789,358.421,389.8,352.8h2.508l1.989,5.621Z" transform="translate(-379.163 -352.8)" fill="#282142"/>
              <path id="Path_614" data-name="Path 614" d="M385.589,358.421,383.6,352.8h2.508l2.076,5.621Z" transform="translate(-378.325 -352.8)" fill="#282142"/>
              <path id="Path_615" data-name="Path 615" d="M379.489,358.421,377.5,352.8h2.508L382,358.421Z" transform="translate(-377.5 -352.8)" fill="#282142"/>
            </g>
            <g id="Group_239" data-name="Group 239" transform="translate(49.983 87.428)">
              <path id="Path_616" data-name="Path 616" d="M292.389,358.421,290.4,352.8h2.508l1.989,5.621Z" transform="translate(-274.402 -352.8)" fill="#282142"/>
              <path id="Path_617" data-name="Path 617" d="M286.189,358.421,284.2,352.8h2.508l1.989,5.621Z" transform="translate(-273.563 -352.8)" fill="#282142"/>
              <path id="Path_618" data-name="Path 618" d="M280.089,358.421,278.1,352.8h2.508l1.989,5.621Z" transform="translate(-272.738 -352.8)" fill="#282142"/>
              <path id="Path_619" data-name="Path 619" d="M273.975,358.421,271.9,352.8h2.594l1.989,5.621Z" transform="translate(-271.9 -352.8)" fill="#282142"/>
            </g>
          </g>
          <g id="Group_241" data-name="Group 241" transform="translate(66.207 74.37)">
            <path id="Path_620" data-name="Path 620" d="M296.349,402.7c1.556-4.41,20.149-64.6,20.149-64.6h23.954l1.557,8.388s-16.085,51.8-17.555,56.21c-.086.346-.259.692-.346,1.038h0c-1.384,4.324,2.335,4.324,6.486,4.324h42.2v3.8H302.489C294.1,411.865,294.793,407.109,296.349,402.7Z" transform="translate(-291.3 -337.754)" fill="#372d5b"/>
            <path id="Path_621" data-name="Path 621" d="M339.9,338.1s-18.679,60.188-20.149,64.6c-1.557,4.41-2.335,9.167,6.14,9.167H297.786c-8.475,0-7.7-4.756-6.14-9.167S311.8,338.1,311.8,338.1Z" transform="translate(-290.661 -337.754)" fill="#504984"/>
            <path id="Path_622" data-name="Path 622" d="M335.918,338.046c-1.816-.086-3.718-.086-5.535-.173s-3.718-.086-5.534-.086-3.718-.086-5.534-.086h-5.88l-.086.259c-.778,2.421-1.557,4.843-2.249,7.264l-2.248,7.264c-1.47,4.843-2.854,9.772-4.151,14.7,1.73-4.756,3.286-9.6,4.929-14.442l2.335-7.264c.778-2.421,1.556-4.843,2.248-7.264l-.432.259h5.535c1.816,0,3.719-.086,5.534-.086s3.718-.087,5.534-.087C332.2,338.219,334.016,338.132,335.918,338.046Z" transform="translate(-292.559 -337.7)" fill="#7f74d1"/>
          </g>
        </g>
      </g>
      <g id="Group_244" data-name="Group 244" transform="translate(65.589 316.247)">
        <path id="Path_623" data-name="Path 623" d="M151.05,438.2H563.806a7.344,7.344,0,0,0,7.351-7.351h0a7.344,7.344,0,0,0-7.351-7.35H151.05a7.344,7.344,0,0,0-7.351,7.35h0A7.29,7.29,0,0,0,151.05,438.2Z" transform="translate(-143.613 -423.5)" fill="#8e5058"/>
        <path id="Path_624" data-name="Path 624" d="M151.037,439.35H563.792A7.344,7.344,0,0,0,571.143,432H143.6A7.418,7.418,0,0,0,151.037,439.35Z" transform="translate(-143.6 -424.649)" fill="#64364a"/>
      </g>
      <g id="Group_255" data-name="Group 255" transform="translate(35.841 8.129)">
        <circle id="XMLID_2_" cx="62.177" cy="62.177" r="62.177" transform="translate(0.086 12.02)" fill="#f9f2d7"/>
        <g id="Group_254" data-name="Group 254">
          <g id="Group_253" data-name="Group 253">
            <g id="Group_252" data-name="Group 252" clip-path="url(#clip-path)">
              <g id="Group_251" data-name="Group 251" transform="translate(-17.222 5.537)">
                <g id="Group_245" data-name="Group 245" transform="translate(89.166 28.631)">
                  <path id="Path_625" data-name="Path 625" d="M276.035,210.143c1.211,5.967-4.324,11.242-6.053,12.193s-13.231,5.621-20.149,5.794-16.085-14.528-12.366-16.171,29.229-3.459,32-3.459A20.183,20.183,0,0,1,276.035,210.143Z" transform="translate(-198.373 -120.476)" fill="#ffc5c7"/>
                  <path id="Path_626" data-name="Path 626" d="M254.26,203.291c-3.027,17.814-10.2,31.651-12.453,31.824-2.248.259-23.781-7.178-29.748-9.858s1.816-44.449,5.535-43.757,11.761,8.734,18.506,12.626C242.759,198.016,254.26,203.291,254.26,203.291Z" transform="translate(-194.759 -116.823)" fill="#ef3737"/>
                  <path id="Path_627" data-name="Path 627" d="M219.686,215.3c2.075,3.546,19.2,12.539,28.624,15.912-2.335,5.275-4.5,8.475-5.621,8.561-1.9.173-17.987-5.189-26.289-8.475A125.492,125.492,0,0,1,219.686,215.3Z" transform="translate(-195.64 -121.395)" fill="#dcedff"/>
                  <path id="Path_628" data-name="Path 628" d="M271.225,197.586c.173,7.091-6.226,8.042-13.836,6.226s-20.063-18.938-25.6-26.635-15.825-21.533-17.987-22.743-7-1.9-11.242-8.821c-4.151-6.918,1.3-21.533,3.286-23.262s18.939,4.064,20.927,7-1.384,18.593-.778,20.582,15.047,18.074,21.36,22.052C253.757,175.88,271.139,192.483,271.225,197.586Z" transform="translate(-193.564 -108.783)" fill="#f0ca91"/>
                  <path id="Path_629" data-name="Path 629" d="M216.5,135.056c-1.989-.951-2.508-5.448-1.211-4.67s3.459.778,6.4.692a22.694,22.694,0,0,0,4.151-.259,18.057,18.057,0,0,1,.259,3.546C226.185,134.364,218.488,136.093,216.5,135.056Z" transform="translate(-195.394 -109.9)" fill="#e5b06a"/>
                  <path id="Path_630" data-name="Path 630" d="M201.55,136.378c1.211-2.248,2.162-3.978,2.162-3.978l11.674,11.242a73.178,73.178,0,0,1,7.091-5.275l1.038,1.816a35.58,35.58,0,0,0-3.546,11.588s-1.816,1.989-2.767,2.162c0,0,12.453,19.8,20.5,29.489,7.956,9.685,13.4,17.987,17.209,20.668-7.61-4.41-17.9-18.593-22.83-25.511-5.535-7.783-15.825-21.533-17.987-22.743s-7-1.9-11.242-8.821C201.118,144.247,200.945,140.269,201.55,136.378Z" transform="translate(-193.59 -110.185)" fill="#e5b06a"/>
                  <path id="Path_631" data-name="Path 631" d="M224.758,134.028c-.173,1.124-11.761,11.156-12.972,12.366-.087.087-1.038.259-1.211,0-3.113-2.681-16.517-27.154-16.777-28.019s8.734-9.253,11.415-11.5a2.4,2.4,0,0,1,2.162.259C210.143,111.2,225.017,132.558,224.758,134.028Z" transform="translate(-192.583 -106.711)" fill="#0c0835"/>
                  <path id="Path_632" data-name="Path 632" d="M223.358,134.046c-.173,1.124-11.761,11.156-12.972,12.366-1.211,1.124-17.728-27.067-17.987-28.019-.259-.865,9.686-9.08,12.453-11.328a.739.739,0,0,1,1.124.086C208.743,111.216,223.531,132.576,223.358,134.046Z" transform="translate(-192.394 -106.729)" fill="#252384"/>
                  <path id="Path_633" data-name="Path 633" d="M221.369,132.422c-.173,1.038-10.983,10.464-12.107,11.588-1.124,1.038-16.6-25.338-16.863-26.2-.173-.778,9.08-8.475,11.675-10.637.346-.259.865-.259,1.038.087C207.706,111.063,221.542,131.039,221.369,132.422Z" transform="translate(-192.395 -106.748)" fill="#57aff7"/>
                  <path id="Path_634" data-name="Path 634" d="M217.226,119.159c-1.816-1.124-3.978-4.756-4.237-5.967-.173-1.211-.087-2.335.865-2.594s3.978,3.632,5.448,4.756,3.286,3.546,2.508,5.189c-.692,1.643-4.064.951-4.41.778A6.725,6.725,0,0,1,217.226,119.159Z" transform="translate(-195.169 -107.235)" fill="#f0ca91"/>
                  <path id="Path_635" data-name="Path 635" d="M213.339,110.9c-.605,1.384,3.113,7,6.4,8.648l-1.211,1.384s-.519-.086-1.211-.259a12.886,12.886,0,0,1-.086-1.47c-1.816-1.124-3.978-4.756-4.237-5.967A3.291,3.291,0,0,1,213.339,110.9Z" transform="translate(-195.174 -107.278)" fill="#e5b06a"/>
                  <path id="Path_636" data-name="Path 636" d="M221.34,126.065c-3.113-1.643-5.534-1.47-7.178-2.162s-1.989-3.286-.865-3.719,8.129.692,9.858,1.47c1.816.778,2.681,4.5,2.681,4.5Z" transform="translate(-195.132 -108.52)" fill="#f0ca91"/>
                  <path id="Path_637" data-name="Path 637" d="M220.064,124.489a3.753,3.753,0,0,0,2.335,0c-.086.692.605,1.038,1.3,1.989l-2.335-.086c-3.113-1.643-5.534-1.47-7.178-2.162a2.5,2.5,0,0,1-1.384-1.73C213.492,123.97,218.335,124.143,220.064,124.489Z" transform="translate(-195.154 -108.846)" fill="#e5b06a"/>
                  <path id="Path_638" data-name="Path 638" d="M228.833,129.94c-1.643,2.248-9.685,1.3-11.328,1.038s-2.681-1.3-2.508-2.335c.346-2.075,10.983-1.73,11.934-1.384C227.709,127.605,228.833,129.94,228.833,129.94Z" transform="translate(-195.448 -109.454)" fill="#f0ca91"/>
                  <path id="Path_639" data-name="Path 639" d="M215,129.5c1.124,1.124,3.719,1.73,6.659,1.989a41.32,41.32,0,0,0,4.324.087,31.23,31.23,0,0,1-8.475-.259A2.714,2.714,0,0,1,215,129.5Z" transform="translate(-195.451 -109.793)" fill="#fe8a8b"/>
                </g>
                <g id="Group_246" data-name="Group 246" transform="translate(31.174 59.58)">
                  <path id="Path_640" data-name="Path 640" d="M178.834,166.369c17.122,8.734,19.976,8.388,27.327,12.366s5.189,45.574,4.67,52.059c-.432,6.4-2.248,31.91-1.3,38.828s4.756,32.6,6.486,36.58,4.929,10.637-.087,14.615-15.479,6.659-38.4,5.189-47.562-15.566-48.6-17.555c-1.124-1.989,10.9-38.309,11.415-45.228a98.478,98.478,0,0,1,2.594-15.306c.692-3.2-6.572-18.247-7.7-27.932-1.124-9.6-11.588-36.234-9.685-41.077,1.989-4.843,20.236-10.291,32.6-16.517C170.7,156.251,178.834,166.369,178.834,166.369Z" transform="translate(-125.333 -144.922)" fill="#ef3737"/>
                  <path id="Path_641" data-name="Path 641" d="M200.233,179.8a47.9,47.9,0,0,1-16.258,23.608A72.755,72.755,0,0,1,157.6,191.215a111.779,111.779,0,0,0,27.673,15.133A40.134,40.134,0,0,0,200.233,179.8Z" transform="translate(-129.697 -147.544)" fill="#dcedff"/>
                  <path id="Path_642" data-name="Path 642" d="M195.368,172.768c-3.286-1.384-7.524-3.373-13.49-6.4,0,0-8.129-10.118-20.582-3.978-4.324,2.162-9.34,4.237-14.1,6.14A62.218,62.218,0,0,0,180.407,195.6,43.2,43.2,0,0,0,195.368,172.768Z" transform="translate(-128.29 -144.922)" fill="#f0ca91"/>
                  <path id="Path_643" data-name="Path 643" d="M129.588,315.859c-1.124-1.989,10.9-38.309,11.415-45.228a98.486,98.486,0,0,1,2.594-15.306c.692-3.2-6.572-18.247-7.7-27.932a55.788,55.788,0,0,0-1.3-6.4l7.7-5.794c4.5,12.626,7.351,34.85,11.674,40.3s15.047,7.7,15.047,7.7-10.55,2.508-15.22,1.47c0,0-4.929,19.544-5.016,29.143s.865,24.214.951,26.2c0,.778-.086,3.286-.346,6.226C138.323,321.913,130.194,316.984,129.588,315.859Z" transform="translate(-125.899 -152.331)" fill="#dcedff"/>
                  <path id="Path_644" data-name="Path 644" d="M165.213,142.5c-.173,10.291-.865,17.382-3.113,19.371,0,0,3.891,17.123,19.63,15.652,5.275-.519,4.843-9.426,2.162-13.49l1.557-12.626Z" transform="translate(-130.305 -142.5)" fill="#f0ca91"/>
                  <path id="Path_645" data-name="Path 645" d="M163.5,160.055h0c1.384-3.2,1.816-9.339,1.989-17.555l20.149,8.821L184.6,159.45h0C181.055,161.006,163.5,160.055,163.5,160.055Z" transform="translate(-130.495 -142.5)" fill="#e5b06a"/>
                </g>
                <g id="Group_247" data-name="Group 247" transform="translate(0 93.39)">
                  <path id="Path_646" data-name="Path 646" d="M100.441,238.9c-3.459,4.756-8.129,16.6-6.4,22.052s19.717,29.662,28.019,38.655,10.118,10.55,11.5,13.491c1.47,2.94,8.475,15.22,10.291,17.036s5.189,2.075,5.189,2.075a9.077,9.077,0,0,0,7.264,2.248s4.151,2.854,7.437,3.546c0,0,1.124,2.075,2.162,2.248,1.124.173,2.508-2.076.432-6.486-1.989-4.41-5.362-6.313-5.88-9.167s-3.113-8.648-3.113-8.648,5.794,5.881,9.34,6.313,4.064-1.73,2.075-3.459a42.108,42.108,0,0,1-6.832-7.7,13.358,13.358,0,0,0-9.772-6.14c-4.5-.605-7.7-1.124-8.907-1.989s-7.091-9.253-11.156-18.333-7.7-20.668-17.9-30.786l4.5-7.869Z" transform="translate(-89.878 -189.346)" fill="#ffc5c7"/>
                  <path id="Path_647" data-name="Path 647" d="M173.048,350.9a19.522,19.522,0,0,0-4.237-6.572l-.692-.692c-.173-.173-.605-.519-.692-.605-.346-.432-.692-1.038-1.038-1.557-.692-1.124-1.3-2.248-1.989-3.373a26.988,26.988,0,0,0,1.3,3.719,9.163,9.163,0,0,0,.951,1.816c.259.432.519.519.692.778l.692.692,2.594,2.854C171.491,348.91,172.269,349.861,173.048,350.9Z" transform="translate(-99.443 -202.76)" fill="#fe8a8b"/>
                  <path id="Path_648" data-name="Path 648" d="M165.123,347.337c-.692-1.3-1.47-2.508-2.248-3.719S161.49,341.2,160.8,339.9a7.225,7.225,0,0,0,1.3,4.237A8.269,8.269,0,0,0,165.123,347.337Z" transform="translate(-98.955 -203.004)" fill="#fe8a8b"/>
                  <path id="Path_649" data-name="Path 649" d="M159.6,347.518a7.808,7.808,0,0,1-3.459-1.9,9.714,9.714,0,0,1-5.189-2.075,57.283,57.283,0,0,1-4.151-6.14c0,.086,2.076,2.335,3.632,4.151a5.029,5.029,0,0,0,5.1,1.729l-.432-2.421C155.188,340.859,157.177,346.307,159.6,347.518Z" transform="translate(-97.063 -202.666)" fill="#fe8a8b"/>
                  <path id="Path_650" data-name="Path 650" d="M93.951,257.4c.086,2.248.086,4.064,3.459,9.945,3.805,6.659,26.376,34.677,31.3,39.866s4.756,5.534,7.7,13.75c-1.3-2.335-2.421-4.324-2.854-5.362-1.47-2.94-3.286-4.411-11.5-13.491s-26.2-33.294-28.019-38.655A12.766,12.766,0,0,1,93.951,257.4Z" transform="translate(-89.873 -191.847)" fill="#fe8a8b"/>
                  <path id="Path_651" data-name="Path 651" d="M114.216,249.819l-1.816,3.027a11.034,11.034,0,0,1,4.324,2.508l3.546-6.053Z" transform="translate(-92.411 -190.752)" fill="#fe8a8b"/>
                  <path id="Path_652" data-name="Path 652" d="M132.709,223.887c4.756-9.253,6.572-24.387,2.335-32.256-4.237-7.956-12.28-10.81-14.269-9.858s-7.351,13.318-12.366,19.025S89.73,222.5,89.3,223.887s9.945,12.28,29.316,20.236C120.949,245.074,132.709,223.887,132.709,223.887Z" transform="translate(-89.285 -181.597)" fill="#ef3737"/>
                  <path id="Path_653" data-name="Path 653" d="M121.521,235.709l-3.113,6.313s15.22-15.306,21.619-26.721a45.9,45.9,0,0,1-4.064,13.145s-11.761,21.187-14.1,20.236c-3.286-1.384-6.313-2.854-9.167-4.324Z" transform="translate(-92.451 -186.154)" fill="#dcedff"/>
                </g>
                <g id="Group_250" data-name="Group 250" transform="translate(45.853)">
                  <path id="Path_654" data-name="Path 654" d="M183.9,134.048c-1.038-4.237-1.038-8.561-1.3-12.972-.173-3.286-.346-6.226-3.286-8.129a10.9,10.9,0,0,0-7.351-1.384c-6.832.865-8.3,7.524-7.783,13.75.432,4.843,2.248,9.426,4.151,13.836-2.508-.086-5.967-1.384-7.437-3.546a14.081,14.081,0,0,0,3.978,7.178c-7.264-.087-14.009-4.843-17.814-11.242s-5.1-14.182-4.67-21.706c.519-8.907,3.286-17.814,8.821-24.732,11.069-13.836,32.429-15.393,45.487-3.546a32.437,32.437,0,0,1,9.34,15.479,51.348,51.348,0,0,1,.432,24.041,69.3,69.3,0,0,0-1.3,9.34c-.086,1.038-1.3,12.8-.605,12.712-4.583.259-9.858-.605-12.972-4.151,1.384,2.421,2.594,4.756,3.978,7.178C189.6,145.376,185.367,139.928,183.9,134.048Z" transform="translate(-142.308 -73.603)" fill="#372d5b"/>
                  <path id="Path_655" data-name="Path 655" d="M161.759,120.643c-2.075-1.211-4.5-1.9-6.4.087-2.767,2.854,1.211,16.085,7.178,12.885,0,0,8.734,12.193,15.133,15.652s10.983,1.73,13.4-.778,10.637-12.626,12.107-23.349c.519-3.805,0-11.328.087-12.972.346-4.929,2.248-8.994-1.643-12.885A22.743,22.743,0,0,0,186.664,92.8a23.853,23.853,0,0,0-18.593,8.129C162.97,106.72,162.018,113.293,161.759,120.643Z" transform="translate(-143.951 -76.196)" fill="#f0ca91"/>
                  <path id="Path_656" data-name="Path 656" d="M156.6,128.851c.519-2.421,2.594-2.94,4.151-1.211s1.816,7.178,1.47,8.042c-.432.778-3.113.778-3.632-.951-.519-1.643,1.038-2.681,2.594-2.248a5.71,5.71,0,0,0-.778-3.978c-1.211-1.557-2.508-.951-2.854-.605Z" transform="translate(-144.241 -80.773)" fill="#e5b06a"/>
                  <g id="Group_249" data-name="Group 249" transform="translate(29.049 32.525)">
                    <path id="Path_657" data-name="Path 657" d="M175.9,116.341l1.816-1.557c.692-.432,1.384-.865,2.075-1.211a7.435,7.435,0,0,1,2.335-.778,4.3,4.3,0,0,1,2.335.346v.086a8.032,8.032,0,0,1-1.124.346l-1.124.259a19.623,19.623,0,0,0-2.162.519,21.117,21.117,0,0,0-2.075.865c-.692.346-1.384.778-2.075,1.124Z" transform="translate(-175.9 -111.424)" fill="#3f1751"/>
                    <path id="Path_658" data-name="Path 658" d="M206.107,113.277a10.135,10.135,0,0,0-2.075-.778,9.424,9.424,0,0,0-2.248-.259c-.778,0-1.47.173-2.248.173a21.859,21.859,0,0,1-2.335-.087v-.086a5.567,5.567,0,0,1,2.335-.951,7.6,7.6,0,0,1,2.421.086,9.576,9.576,0,0,1,2.248.605,9.417,9.417,0,0,1,1.989,1.211Z" transform="translate(-178.78 -111.214)" fill="#3f1751"/>
                    <path id="Path_659" data-name="Path 659" d="M184.047,121.616c0-1.038-.519-1.816-1.211-1.816-.605.086-1.124.951-1.038,1.989,0,1.038.519,1.816,1.211,1.816C183.615,123.518,184.133,122.654,184.047,121.616Z" transform="translate(-176.696 -112.375)" fill="#3f1751"/>
                    <path id="Path_660" data-name="Path 660" d="M203.216,120.016c0-1.038-.432-1.816-.951-1.816-.519.086-.865.951-.865,1.989s.432,1.816.951,1.816S203.216,121.14,203.216,120.016Z" transform="translate(-179.348 -112.159)" fill="#3f1751"/>
                    <path id="Path_661" data-name="Path 661" d="M190.4,133.587a4.739,4.739,0,0,0,5.1-.087,2.516,2.516,0,0,1-1.3,1.9,3.584,3.584,0,0,1-2.335-.087C191.092,134.97,190.832,134.278,190.4,133.587Z" transform="translate(-177.861 -114.228)" fill="#e5b06a"/>
                    <g id="Group_248" data-name="Group 248" transform="translate(6.832 24.547)">
                      <path id="Path_662" data-name="Path 662" d="M183.8,140.551a144.531,144.531,0,0,0,14.442-.951c-1.038,3.459-3.891,6.918-7.783,6.918C186.913,146.518,184.665,143.664,183.8,140.551Z" transform="translate(-183.8 -139.6)" fill="#c31f2a"/>
                      <path id="Path_663" data-name="Path 663" d="M187.4,146.186a5.837,5.837,0,0,1,3.286,0,5.266,5.266,0,0,1,4.5-.432,7.034,7.034,0,0,1-4.324,1.643A6.936,6.936,0,0,1,187.4,146.186Z" transform="translate(-184.287 -140.392)" fill="#fb8384"/>
                      <path id="Path_664" data-name="Path 664" d="M196.137,142.567a16.321,16.321,0,0,1-10.55-.432c0-.519-.087-1.038-.087-1.557,3.373-.086,8.907-.519,11.847-.778A15.787,15.787,0,0,1,196.137,142.567Z" transform="translate(-184.03 -139.627)" fill="#fff"/>
                    </g>
                  </g>
                  <path id="Path_665" data-name="Path 665" d="M165.635,107.68a49.208,49.208,0,0,0,16.431-3.632,19.92,19.92,0,0,0,1.211-6.832,20.424,20.424,0,0,1,2.421,8.475c3.286-.173,6.572-.346,9.858-.605a19.407,19.407,0,0,0,.865-8.042,36.089,36.089,0,0,1,2.075,8.648c1.989-.692,4.5.346,6.572.692,2.594-5.707,2.421-16-3.027-20.322-5.275-4.237-14.442-5.362-20.841-4.41-13.663,1.989-24.473,13.317-23.608,27.5a33.067,33.067,0,0,0,10.377,21.36A31.183,31.183,0,0,1,165.635,107.68Z" transform="translate(-144.368 -74.648)" fill="#372d5b"/>
                </g>
              </g>
            </g>
          </g>
        </g>
      </g>
      <g id="Group_256" data-name="Group 256" transform="translate(177.742 42.417)">
        <circle id="Ellipse_28" data-name="Ellipse 28" cx="36.147" cy="36.147" r="36.147" transform="matrix(0.252, -0.968, 0.968, 0.252, 0, 69.974)" fill="#e3e8b5"/>
        <g id="Logo_00000052791884473133246780000000932487051050298262_" transform="translate(17.477 24.43)">
          <path id="Rectangle_1" d="M311.151,156.3h.432a.96.96,0,0,1,.951.951h0a.96.96,0,0,1-.951.951h-.432a.96.96,0,0,1-.951-.951h0A.907.907,0,0,1,311.151,156.3Z" transform="translate(-295.758 -137.967)" fill="#562a8b"/>
          <path id="Rectangle_2" d="M298.751,164.5h3.719a.96.96,0,0,1,.951.951h0a.96.96,0,0,1-.951.951h-3.719a.96.96,0,0,1-.951-.951h0A.96.96,0,0,1,298.751,164.5Z" transform="translate(-294.082 -139.076)" fill="#562a8b"/>
          <path id="Rectangle_3" d="M294.451,176.5h3.718a.96.96,0,0,1,.951.951h0a.96.96,0,0,1-.951.951h-3.718a.96.96,0,0,1-.951-.951h0A.96.96,0,0,1,294.451,176.5Z" transform="translate(-293.5 -140.698)" fill="#562a8b"/>
          <path id="Path_1" d="M297.8,153.251a.96.96,0,0,0,.951.951h7.437a.96.96,0,0,0,.951-.951h0a.96.96,0,0,0-.951-.951h-7.437a.96.96,0,0,0-.951.951Z" transform="translate(-294.082 -137.426)" fill="#562a8b"/>
          <path id="Path_2" d="M351.647,176H339.108l-1.3-1.9-1.3-1.9-1.3-1.9-1.3-1.816-.519-.692.865-1.211,1.3-1.9,1.3-1.9,1.3-1.9,1.3-1.9.173-.259.173.259,1.3,1.9,1.3,1.9,1.3,1.9,1.3,1.9,1.3,1.9,1.3,1.9,1.3,1.9,1.3,1.9Z" transform="translate(-298.896 -138.291)" fill="#562a8b"/>
          <path id="Rectangle_4" d="M296.551,139.8h3.718a.96.96,0,0,1,.951.951h0a.96.96,0,0,1-.951.951h-3.718a.96.96,0,0,1-.951-.951h0A1.022,1.022,0,0,1,296.551,139.8Z" transform="translate(-293.784 -135.736)" fill="#562a8b"/>
          <path id="Path_3" d="M351.747,135.5l-1.3,1.9-1.3,1.9-1.384,1.816-1.3,1.9-1.3,1.9-1.3,1.9-1.3,1.9-1.3,1.9-1.3,1.9-.259.346-.259-.346-1.3-1.9-1.3-1.9-1.3-1.9-1.3-1.9L333.5,143.8l.519-.778,1.3-1.9,2.594-3.719,1.3-1.9Z" transform="translate(-298.909 -135.154)" fill="#562a8b"/>
          <path id="Path_4" d="M314.874,170.21h0a.867.867,0,0,1-.865.865H302.681a.867.867,0,0,0-.865.865h0a.867.867,0,0,0,.865.865H321.1l1.3-1.9h0l1.3-1.816.605-.865.692-1.038,1.3-1.9,1.3-1.9.259-.346,1.038-1.557,1.3-1.9,1.3-1.9,1.3-1.9,1.3-1.816h0l-1.3-1.9-1.3-1.9-1.3-1.9-1.3-1.9-1.038-1.47-.259-.432-1.3-1.9-1.3-1.9-.692-.951-.605-.865-1.211-1.73L322.4,137l-1.3-1.9H302.854a.96.96,0,0,0-.951.951h0a.96.96,0,0,0,.951.951h7.437a.96.96,0,0,1,.951.951h0a.96.96,0,0,1-.951.951H304.67a.96.96,0,0,0-.951.951h0a.96.96,0,0,0,.951.951h8.475a.775.775,0,0,1,.778.778h0a.775.775,0,0,1-.778.778H300.951a.96.96,0,0,0-.951.951h0a.96.96,0,0,0,.951.951h19.457a.96.96,0,0,1,.951.951h0a.96.96,0,0,1-.951.951H302.854a.96.96,0,0,0-.951.951h0a.96.96,0,0,0,.951.951h16.171a.96.96,0,0,1,.951.951h0a.96.96,0,0,1-.951.951h-8.734a.96.96,0,0,0-.951.951h0a.96.96,0,0,0,.951.951h13.231a.775.775,0,0,1,.778.778h0a.775.775,0,0,1-.778.778h-9.512a.96.96,0,0,0-.951.951h0a.96.96,0,0,0,.951.951h6.4a.96.96,0,0,1,.951.951h0a.96.96,0,0,1-.951.951H302.767a.96.96,0,0,0-.951.951h0a.96.96,0,0,0,.951.951H317.9a.775.775,0,0,1,.778.778h0a.775.775,0,0,1-.778.778H306.572a1.013,1.013,0,0,0-.951.778h0a.96.96,0,0,0,.951.951h14.961a.96.96,0,0,1,.951.951h0a.96.96,0,0,1-.951.951H304.756a.96.96,0,0,0-.951.951h0a.96.96,0,0,0,.951.951h11.328a.775.775,0,0,1,.778.778h0a.775.775,0,0,1-.778.778H302.075a.817.817,0,0,0-.865.865h0a.817.817,0,0,0,.865.865h12.107c.346-.087.692.259.692.692Z" transform="translate(-294.379 -135.1)" fill="#562a8b"/>
        </g>
      </g>
      <g id="Group_260" data-name="Group 260" transform="translate(441.938 102.302)">
        <circle id="Ellipse_29" data-name="Ellipse 29" cx="36.147" cy="36.147" r="36.147" fill="#e6d785"/>
        <g id="Group_259" data-name="Group 259" transform="translate(12.799 14.874)">
          <g id="Group_257" data-name="Group 257">
            <path id="Path_667" data-name="Path 667" d="M627.067,207.569h-3.632a12.479,12.479,0,0,0-1.643-3.978L624.386,201a.94.94,0,0,0,0-1.3l-2.854-2.854a.94.94,0,0,0-1.3,0l-2.594,2.594a12.474,12.474,0,0,0-3.978-1.643v-3.632a.866.866,0,0,0-.865-.865h-4.064a.867.867,0,0,0-.865.865V197.8a12.474,12.474,0,0,0-3.978,1.643l-2.594-2.594a.94.94,0,0,0-1.3,0l-2.854,2.854a.94.94,0,0,0,0,1.3l2.594,2.594a12.477,12.477,0,0,0-1.643,3.978h-3.632a.867.867,0,0,0-.865.865V212.5a.866.866,0,0,0,.865.865H598.1a12.476,12.476,0,0,0,1.643,3.978l-2.594,2.594a.94.94,0,0,0,0,1.3L600,224.086a.94.94,0,0,0,1.3,0l2.594-2.594a12.472,12.472,0,0,0,3.978,1.643v3.632a.867.867,0,0,0,.865.865H612.8a.866.866,0,0,0,.865-.865v-3.632a12.472,12.472,0,0,0,3.978-1.643l2.594,2.594a.94.94,0,0,0,1.3,0l2.854-2.854a.94.94,0,0,0,0-1.3l-2.594-2.594a12.479,12.479,0,0,0,1.643-3.978h3.632a.867.867,0,0,0,.865-.865v-4.064A.817.817,0,0,0,627.067,207.569Zm-16.344,8.475a5.535,5.535,0,1,1,5.535-5.535A5.518,5.518,0,0,1,610.722,216.043Z" transform="translate(-593.6 -193.3)" fill="#fff"/>
            <path id="Path_668" data-name="Path 668" d="M612.183,204.2a7.783,7.783,0,1,0,7.783,7.783A7.751,7.751,0,0,0,612.183,204.2Zm0,12.453a4.756,4.756,0,1,1,4.756-4.756A4.8,4.8,0,0,1,612.183,216.653Z" transform="translate(-595.06 -194.774)" fill="#475869"/>
          </g>
          <g id="Group_258" data-name="Group 258" transform="translate(31.91 22.83)">
            <path id="Path_669" data-name="Path 669" d="M647.536,227.051H645.72a7.071,7.071,0,0,0-.865-2.075l1.3-1.3a.523.523,0,0,0,0-.692l-1.47-1.47a.523.523,0,0,0-.692,0l-1.3,1.3a7.489,7.489,0,0,0-2.076-.865v-1.816a.409.409,0,0,0-.432-.432H638.11a.409.409,0,0,0-.432.432v1.816a7.072,7.072,0,0,0-2.075.865l-1.3-1.3a.523.523,0,0,0-.692,0l-1.47,1.47a.523.523,0,0,0,0,.692l1.3,1.3a7.487,7.487,0,0,0-.865,2.075h-1.643a.409.409,0,0,0-.432.432v2.075a.409.409,0,0,0,.432.432h1.816a7.078,7.078,0,0,0,.865,2.075l-1.3,1.3a.523.523,0,0,0,0,.692l1.47,1.47a.523.523,0,0,0,.692,0l1.3-1.3a7.477,7.477,0,0,0,2.075.865v1.816a.409.409,0,0,0,.432.432h2.075a.409.409,0,0,0,.433-.432v-1.816a7.076,7.076,0,0,0,2.076-.865l1.3,1.3a.523.523,0,0,0,.692,0l1.47-1.47a.523.523,0,0,0,0-.692l-1.3-1.3a7.485,7.485,0,0,0,.865-2.075h1.816a.408.408,0,0,0,.432-.432v-2.075A.65.65,0,0,0,647.536,227.051Zm-8.3,4.324a2.854,2.854,0,1,1,2.854-2.854A2.879,2.879,0,0,1,639.234,231.374Z" transform="translate(-630.5 -219.7)" fill="#fff"/>
            <path id="Path_670" data-name="Path 670" d="M639.978,225.3a3.978,3.978,0,1,0,3.978,3.978A4.024,4.024,0,0,0,639.978,225.3Zm0,6.4a2.421,2.421,0,1,1,2.421-2.421A2.475,2.475,0,0,1,639.978,231.7Z" transform="translate(-631.244 -220.457)" fill="#475869"/>
          </g>
        </g>
      </g>
      <g id="Group_280" data-name="Group 280" transform="translate(278.928 0)">
        <circle id="Ellipse_30" data-name="Ellipse 30" cx="36.147" cy="36.147" r="36.147" fill="#e6d785"/>
        <g id="Group_279" data-name="Group 279" transform="translate(15.306 17.555)">
          <path id="Path_671" data-name="Path 671" d="M410.854,115.529h35.888a2.879,2.879,0,0,0,2.854-2.854V82.754a2.879,2.879,0,0,0-2.854-2.854H410.854A2.879,2.879,0,0,0,408,82.754v29.835A2.9,2.9,0,0,0,410.854,115.529Z" transform="translate(-408 -78.343)" fill="#fff"/>
          <path id="Path_672" data-name="Path 672" d="M408,87.337h41.6V82.754a2.879,2.879,0,0,0-2.854-2.854H410.854A2.879,2.879,0,0,0,408,82.754v4.583Z" transform="translate(-408 -78.343)" fill="#562a8b"/>
          <g id="Group_266" data-name="Group 266" transform="translate(6.659)">
            <g id="Group_265" data-name="Group 265">
              <g id="Group_262" data-name="Group 262" transform="translate(24.127)">
                <g id="Group_261" data-name="Group 261">
                  <path id="Path_673" data-name="Path 673" d="M444.465,81.3h0a.867.867,0,0,0,.865-.865v-1.47a.866.866,0,0,0-.865-.865h0a.866.866,0,0,0-.865.865v1.47A.93.93,0,0,0,444.465,81.3Z" transform="translate(-443.6 -78.1)" fill="#fff"/>
                  <path id="Path_674" data-name="Path 674" d="M447.265,81.3h0a.867.867,0,0,0,.865-.865v-1.47a.867.867,0,0,0-.865-.865h0a.867.867,0,0,0-.865.865v1.47A.93.93,0,0,0,447.265,81.3Z" transform="translate(-443.979 -78.1)" fill="#fff"/>
                </g>
              </g>
              <g id="Group_264" data-name="Group 264">
                <g id="Group_263" data-name="Group 263">
                  <path id="Path_675" data-name="Path 675" d="M416.565,81.3h0a.867.867,0,0,0,.865-.865v-1.47a.867.867,0,0,0-.865-.865h0a.867.867,0,0,0-.865.865v1.47A.93.93,0,0,0,416.565,81.3Z" transform="translate(-415.7 -78.1)" fill="#fff"/>
                  <path id="Path_676" data-name="Path 676" d="M419.365,81.3h0a.867.867,0,0,0,.865-.865v-1.47a.867.867,0,0,0-.865-.865h0a.866.866,0,0,0-.865.865v1.47A.93.93,0,0,0,419.365,81.3Z" transform="translate(-416.079 -78.1)" fill="#fff"/>
                </g>
              </g>
            </g>
          </g>
          <g id="Group_278" data-name="Group 278" transform="translate(5.621 13.404)">
            <g id="Group_277" data-name="Group 277">
              <g id="Group_267" data-name="Group 267" transform="translate(17.122)">
                <path id="Path_677" data-name="Path 677" d="M434.992,97.232h2.248a.744.744,0,0,0,.692-.692V94.292a.744.744,0,0,0-.692-.692h-2.248a.744.744,0,0,0-.692.692V96.54A.682.682,0,0,0,434.992,97.232Z" transform="translate(-434.3 -93.6)" fill="#dbe9ff"/>
              </g>
              <g id="Group_268" data-name="Group 268" transform="translate(8.561)">
                <path id="Path_678" data-name="Path 678" d="M425.092,97.232h2.248a.744.744,0,0,0,.692-.692V94.292a.744.744,0,0,0-.692-.692h-2.248a.744.744,0,0,0-.692.692V96.54A.636.636,0,0,0,425.092,97.232Z" transform="translate(-424.4 -93.6)" fill="#dbe9ff"/>
              </g>
              <g id="Group_269" data-name="Group 269">
                <path id="Path_679" data-name="Path 679" d="M415.192,97.232h2.248a.744.744,0,0,0,.692-.692V94.292a.744.744,0,0,0-.692-.692h-2.248a.744.744,0,0,0-.692.692V96.54A.636.636,0,0,0,415.192,97.232Z" transform="translate(-414.5 -93.6)" fill="#dbe9ff"/>
              </g>
              <g id="Group_270" data-name="Group 270" transform="translate(25.684 7.437)">
                <path id="Path_680" data-name="Path 680" d="M444.892,105.832h2.249a.744.744,0,0,0,.692-.692v-2.248a.744.744,0,0,0-.692-.692h-2.249a.744.744,0,0,0-.692.692v2.248A.744.744,0,0,0,444.892,105.832Z" transform="translate(-444.2 -102.2)" fill="#dbe9ff"/>
              </g>
              <g id="Group_271" data-name="Group 271" transform="translate(17.122 7.437)">
                <path id="Path_681" data-name="Path 681" d="M434.992,105.832h2.248a.744.744,0,0,0,.692-.692v-2.248a.744.744,0,0,0-.692-.692h-2.248a.744.744,0,0,0-.692.692v2.248A.744.744,0,0,0,434.992,105.832Z" transform="translate(-434.3 -102.2)" fill="#dbe9ff"/>
              </g>
              <g id="Group_272" data-name="Group 272" transform="translate(8.561 7.437)">
                <path id="Path_682" data-name="Path 682" d="M425.092,105.832h2.248a.744.744,0,0,0,.692-.692v-2.248a.744.744,0,0,0-.692-.692h-2.248a.744.744,0,0,0-.692.692v2.248A.682.682,0,0,0,425.092,105.832Z" transform="translate(-424.4 -102.2)" fill="#dbe9ff"/>
              </g>
              <g id="Group_273" data-name="Group 273" transform="translate(0 7.437)">
                <path id="Path_683" data-name="Path 683" d="M415.192,105.832h2.248a.744.744,0,0,0,.692-.692v-2.248a.744.744,0,0,0-.692-.692h-2.248a.744.744,0,0,0-.692.692v2.248A.682.682,0,0,0,415.192,105.832Z" transform="translate(-414.5 -102.2)" fill="#dbe9ff"/>
              </g>
              <g id="Group_274" data-name="Group 274" transform="translate(25.684 14.788)">
                <path id="Path_684" data-name="Path 684" d="M444.892,114.332h2.249a.744.744,0,0,0,.692-.692v-2.248a.744.744,0,0,0-.692-.692h-2.249a.744.744,0,0,0-.692.692v2.248A.744.744,0,0,0,444.892,114.332Z" transform="translate(-444.2 -110.7)" fill="#dbe9ff"/>
              </g>
              <g id="Group_275" data-name="Group 275" transform="translate(17.122 14.788)">
                <path id="Path_685" data-name="Path 685" d="M434.992,114.332h2.248a.744.744,0,0,0,.692-.692v-2.248a.744.744,0,0,0-.692-.692h-2.248a.744.744,0,0,0-.692.692v2.248A.744.744,0,0,0,434.992,114.332Z" transform="translate(-434.3 -110.7)" fill="#dbe9ff"/>
              </g>
              <g id="Group_276" data-name="Group 276" transform="translate(8.561 14.788)">
                <path id="Path_686" data-name="Path 686" d="M425.092,114.332h2.248a.744.744,0,0,0,.692-.692v-2.248a.744.744,0,0,0-.692-.692h-2.248a.744.744,0,0,0-.692.692v2.248A.682.682,0,0,0,425.092,114.332Z" transform="translate(-424.4 -110.7)" fill="#dbe9ff"/>
              </g>
            </g>
          </g>
        </g>
      </g>
      <g id="Group_281" data-name="Group 281" transform="translate(382.355 18.593)">
        <circle id="Ellipse_31" data-name="Ellipse 31" cx="36.147" cy="36.147" r="36.147" transform="translate(0)" fill="#d2de8e"/>
      </g>
      <g id="Group_80_00000055695492597935393930000015623515649697437339_" transform="translate(394.642 33.017)">
        <g id="Group_77_00000130627727336776843670000006996283324541813162_" transform="translate(17.447 13.124)">
          <path id="Path_194_00000111901365507894295670000009368416724190115487_" d="M464.5,89.073a3.514,3.514,0,0,1,.865-2.594,2.945,2.945,0,0,1,2.075-.778,2.5,2.5,0,0,1,1.989.865,2.613,2.613,0,0,1,.778,2.075,5.417,5.417,0,0,1-.519,2.335,18.381,18.381,0,0,1-1.384,2.162c-.173.259-.519.692-.865,1.3l-.26.519a7.986,7.986,0,0,0-.432.692.3.3,0,0,0-.086.173h3.546v1.73H464.5V95.9a6.7,6.7,0,0,1,.346-.605,1.552,1.552,0,0,0,.432-.605l.432-.605a20.979,20.979,0,0,0,1.211-1.73A10.629,10.629,0,0,0,468.13,90.2a4.07,4.07,0,0,0,.346-1.384,1.743,1.743,0,0,0-.259-.951.822.822,0,0,0-.865-.346,1.027,1.027,0,0,0-1.038.865,1.472,1.472,0,0,0-.086.605v.432H464.5Z" transform="translate(-464.485 -85.7)" fill="#fff"/>
          <path id="Path_195_00000112607081176766224600000016790628294603717011_" d="M471.2,93.224l3.113-7.524h1.73v7.524h1.211V95.04h-1.211v2.594h-1.73V95.04H471.2Zm3.2,0V89.505l-1.47,3.718Z" transform="translate(-465.393 -85.7)" fill="#fff"/>
        </g>
        <path id="Path_196_00000163789433265753599500000006566533869807172241_" d="M502.65,95.3l-6.832,11.847L488.9,95.3Z" transform="translate(-454.988 -77.399)" fill="#475869"/>
        <rect id="Rectangle_34_00000147186555298266802200000003549186897942990512_" width="0.692" height="1.557" transform="translate(23.102 6.399)" fill="#475869"/>
        <rect id="Rectangle_35_00000065764425142300766690000003081964788949786521_" width="1.557" height="0.692" transform="translate(29.969 10.408) rotate(-54.977)" fill="#475869"/>
        <rect id="Rectangle_36_00000092419064767208465810000013821872523412997022_" width="1.557" height="0.692" transform="translate(34.364 16.379) rotate(-20.017)" fill="#475869"/>
        <rect id="Rectangle_37_00000046322076204899335540000004150826606148182447_" width="0.692" height="1.557" transform="matrix(0.259, -0.966, 0.966, 0.259, 34.357, 24.313)" fill="#475869"/>
        <rect id="Rectangle_38_00000147935297249440425260000018155609623148037515_" width="0.692" height="1.557" transform="translate(29.95 30.343) rotate(-39.86)" fill="#475869"/>
        <g id="Group_79_00000056419552223563593190000003897508249520444067_" transform="translate(0)">
          <g id="Group_78_00000180343003946514201560000011881744520996161422_" transform="translate(11.958)">
            <path id="Path_197_00000016763031217036166880000009089587526237266874_" d="M486.175,94.922h5.189A20.3,20.3,0,0,0,471.042,74.6,20.878,20.878,0,0,0,459.8,77.973l2.248,4.756a15.143,15.143,0,0,1,21.1,3.2,14.648,14.648,0,0,1,3.027,8.994Z" transform="translate(-459.8 -74.6)" fill="#475869"/>
            <path id="Path_198_00000097467777014791860180000000538021820097865645_" d="M488.542,113.259l-3.891-3.459a15.476,15.476,0,0,1-7.351,4.5l2.248,4.756A20.746,20.746,0,0,0,488.542,113.259Z" transform="translate(-462.167 -79.36)" fill="#475869"/>
          </g>
          <path id="Path_199_00000147941041533735832660000010086553204631765643_" d="M473.047,106.672s-.951.173-2.162.346a23.211,23.211,0,0,1-6.486.432,26.032,26.032,0,0,1-4.583-6.918,26.035,26.035,0,0,1-2.594-7.956c.086-.692,2.594-3.113,4.324-4.756,1.038-.951,1.816-1.643,1.816-1.643L458.432,75.8c-.692.346-1.384.865-2.076,1.3a18.613,18.613,0,0,0-5.707,8.129c-2.508,7,.432,13.923,2.508,18.16s5.362,11.156,12.366,13.577a17.3,17.3,0,0,0,10.464.432c1.211-.346,1.989-.605,1.989-.605Z" transform="translate(-449.685 -74.762)" fill="#562a8b"/>
        </g>
      </g>
    </g>
    <g id="Logo" transform="translate(449.761 283.231)">
      <path id="Path_208" d="M453.784,327.689l-.605,1.038h-.692l.951-1.557L452.4,325.7h.778l.692,1.038.605-1.038h.692l-.951,1.557,1.038,1.47h-.778Z" transform="translate(-452.4 -312.469)" fill="#fff"/>
      <path id="Path_209" d="M456.1,325.5h.865v3.113H456.1Z" transform="translate(-452.9 -312.442)" fill="#fff"/>
      <path id="Path_210" d="M457.487,325.5h2.508v.692h-.865v2.421h-.865v-2.421H457.4Z" transform="translate(-453.076 -312.442)" fill="#fff"/>
      <path id="Path_211" d="M460.687,325.6h2.248v.432h-.778v2.594h-.692v-2.594H460.6l.086-.432Z" transform="translate(-453.509 -312.455)" fill="#fff"/>
      <path id="Path_212" d="M465.256,328.713a1.557,1.557,0,1,1,1.557-1.557h0a1.452,1.452,0,0,1-1.557,1.557Zm0-.519a1.041,1.041,0,1,0-.951-1.124v.086a.893.893,0,0,0,.778,1.038Z" transform="translate(-453.928 -312.455)" fill="#fff"/>
      <path id="Path_213" d="M469.357,328.713a1.557,1.557,0,1,1,1.557-1.557h0a1.55,1.55,0,0,1-1.557,1.557Zm0-.519a1.041,1.041,0,1,0-.951-1.124v.086a.893.893,0,0,0,.778,1.038Z" transform="translate(-454.483 -312.455)" fill="#fff"/>
      <path id="T_top" d="M460.6,326.292V325.6h2.508v.692Z" transform="translate(-453.509 -312.455)" fill="#fff"/>
      <g id="Logo_00000008108668066426198950000010167106302294301064_" transform="translate(0 0)">
        <path id="Rectangle_1_00000068649492036821197020000016784946797077271972_" d="M457.856,317.1h.173a.229.229,0,0,1,.259.259h0a.229.229,0,0,1-.259.259h-.173a.229.229,0,0,1-.26-.259h0C457.51,317.273,457.683,317.1,457.856,317.1Z" transform="translate(-453.099 -311.306)" fill="#fff"/>
        <path id="Rectangle_2_00000109017494690463356910000006929309859051121049_" d="M453.959,319.7h1.124a.229.229,0,0,1,.26.259h0a.229.229,0,0,1-.26.259h-1.124a.229.229,0,0,1-.259-.259h0A.229.229,0,0,1,453.959,319.7Z" transform="translate(-452.576 -311.658)" fill="#fff"/>
        <path id="Rectangle_3_00000016049392378194291450000000509666534019592626_" d="M452.659,323.4h1.124a.229.229,0,0,1,.259.259h0a.229.229,0,0,1-.259.259h-1.124a.229.229,0,0,1-.259-.259h0A.276.276,0,0,1,452.659,323.4Z" transform="translate(-452.4 -312.158)" fill="#fff"/>
        <path id="Path_1_00000096740531011435797690000002109945702566961840_" d="M453.7,316.256a.229.229,0,0,0,.259.259h2.335a.276.276,0,0,0,.26-.259h0a.276.276,0,0,0-.26-.26h-2.335c-.173-.086-.259.086-.259.26Z" transform="translate(-452.576 -311.153)" fill="#fff"/>
        <path id="Path_2_00000055693026513340993830000008499122618876273545_" d="M470.394,323.248H466.5l-.432-.605-.432-.605-.432-.605-.432-.605-.173-.173.259-.346.432-.605.432-.605.432-.605.432-.605.087-.086.086.086.432.605.432.605.432.605.432.605.432.605.432.606.432.605.432.605Z" transform="translate(-454.05 -311.401)" fill="#fff"/>
        <path id="Rectangle_4_00000183938844325998347210000017342724425350568345_" d="M453.356,312h1.124a.229.229,0,0,1,.259.259h0a.229.229,0,0,1-.259.259h-1.124a.229.229,0,0,1-.259-.259h0C453.01,312.173,453.183,312,453.356,312Z" transform="translate(-452.491 -310.616)" fill="#fff"/>
        <path id="Path_3_00000182497335526901490070000014913900765812827288_" d="M470.407,310.686l-.432.605-.432.605-.432.605-.432.605-.259.432-.432.605-.432.605-.432.605-.432.605-.087.087-.086-.087-.432-.605-.432-.605-.432-.605-.259-.605-.259-.346.173-.259.432-.605.778-1.124.432-.605h3.891Z" transform="translate(-454.063 -310.427)" fill="#fff"/>
        <path id="Path_4_00000056391955605063156010000013771403173973817778_" d="M459.01,321.469h0a.229.229,0,0,1-.259.259h-3.545a.229.229,0,0,0-.259.259h0a.229.229,0,0,0,.259.259h5.707l.432-.605h0l.432-.605.173-.259.259-.346.432-.605.432-.605.087-.087.346-.432.432-.605.432-.605.432-.605.432-.605h0l-.432-.605-.432-.605-.432-.605-.432-.605-.346-.432-.087-.173-.432-.605-.432-.605-.173-.259-.173-.259-.346-.519h0l-.432-.605h-5.621a.276.276,0,0,0-.259.259h0a.276.276,0,0,0,.259.259H457.8a.276.276,0,0,1,.259.259h0a.276.276,0,0,1-.259.259h-1.73a.276.276,0,0,0-.259.259h0a.276.276,0,0,0,.259.259h2.594a.276.276,0,0,1,.259.26h0a.276.276,0,0,1-.259.259h-3.805a.276.276,0,0,0-.259.259h0a.276.276,0,0,0,.259.259h6.053a.276.276,0,0,1,.259.26h0a.276.276,0,0,1-.259.259h-5.448a.276.276,0,0,0-.259.259h0a.276.276,0,0,0,.259.259h5.016a.276.276,0,0,1,.259.26h0a.276.276,0,0,1-.259.259h-2.94a.276.276,0,0,0-.259.259h0a.276.276,0,0,0,.259.259h4.151a.276.276,0,0,1,.26.26h0a.276.276,0,0,1-.26.259h-2.94a.276.276,0,0,0-.259.259h0a.276.276,0,0,0,.259.259h1.989a.276.276,0,0,1,.259.26h0a.276.276,0,0,1-.259.259h-5.448a.276.276,0,0,0-.259.259h0a.276.276,0,0,0,.259.259h4.67a.276.276,0,0,1,.26.26h0a.276.276,0,0,1-.26.259h-3.545a.229.229,0,0,0-.259.259h0a.276.276,0,0,0,.259.259h4.67a.276.276,0,0,1,.259.259h0a.276.276,0,0,1-.259.26H455.9a.276.276,0,0,0-.259.259h0a.276.276,0,0,0,.259.26h3.545a.229.229,0,0,1,.259.259h0a.229.229,0,0,1-.259.26h-4.324a.229.229,0,0,0-.259.259h0a.229.229,0,0,0,.259.26h3.718c.087.952.173,1.038.173,1.211Z" transform="translate(-452.698 -310.4)" fill="#fff"/>
      </g>
    </g>
    <g transform="matrix(1, 0, 0, 1, 67.75, 57.8)" filter="url(#good_service_is_good_business)">
      <text id="good_service_is_good_business-2" data-name="good service is good business" transform="translate(265.77 379.86)" fill="#fff" font-size="25" font-family="FullSansLC-70Medium, 'Full Sans LC \37 0'" font-weight="500"><tspan x="-210" y="0">GOOD SERVICE IS GOOD BUSINESS</tspan></text>
    </g>
  </g>
</svg>
