<svg xmlns="http://www.w3.org/2000/svg" width="24.669" height="30" viewBox="0 0 24.669 30">
  <g id="Intercom" transform="translate(-69.05 -45.06)">
    <path id="Path_444" data-name="Path 444" d="M93.718,60.059V72.117a2.678,2.678,0,0,1-2.936,2.944h-18.8a2.677,2.677,0,0,1-2.937-2.942V48a2.676,2.676,0,0,1,2.936-2.944h18.8A2.677,2.677,0,0,1,93.719,48V60.059Zm-23.336-.02V72.1c0,1.139.48,1.626,1.6,1.626h18.8c1.109,0,1.6-.486,1.6-1.584V47.977c0-1.1-.49-1.581-1.6-1.582h-18.8c-1.107,0-1.6.487-1.6,1.583V60.039Z" fill="#5a1c89"/>
    <path id="Path_445" data-name="Path 445" d="M107.891,88.54h-7.88c-.837,0-1.021-.182-1.021-1.022V75.971c0-.833.18-1.021.976-1.021H115.9c.8,0,.977.19.978,1.021V87.518c0,.837-.186,1.022-1.021,1.022Zm7.635-12.2H100.36V87.149h3.825a22.8,22.8,0,0,1,.382-2.372,3.308,3.308,0,0,1,1.437-1.8c-.989-1.49-.935-2.882.129-3.895a2.581,2.581,0,0,1,3.429-.152,2.653,2.653,0,0,1,.97,1.616,2.849,2.849,0,0,1-.687,2.432,4.093,4.093,0,0,1,1.715,4.176h3.967ZM110.2,87.163a3.149,3.149,0,0,0-.452-2.489,2.267,2.267,0,0,0-2.9-.619c-1.027.573-1.441,1.57-1.151,3.108Zm-2.289-4.746a1.341,1.341,0,0,0,1.343-1.318,1.322,1.322,0,1,0-2.643-.045,1.343,1.343,0,0,0,1.3,1.362Z" transform="translate(-26.552 -26.508)" fill="#5a1c89"/>
    <path id="Path_446" data-name="Path 446" d="M219.028,217.111c0-1.082,0-2.164,0-3.246,0-.531.249-.838.663-.845s.689.311.69.826q.005,3.247,0,6.492c0,.514-.278.829-.694.821s-.659-.315-.66-.847C219.025,219.244,219.028,218.177,219.028,217.111Z" transform="translate(-133.322 -149.491)" fill="#5a1c89"/>
    <path id="Path_447" data-name="Path 447" d="M250.315,233.109c0,.391.006.782,0,1.173-.009.539-.251.84-.668.847s-.683-.294-.689-.824q-.014-1.219,0-2.437c.006-.507.257-.793.665-.8.424-.007.679.289.69.821C250.321,232.3,250.315,232.7,250.315,233.109Z" transform="translate(-159.986 -165.389)" fill="#5a1c89"/>
    <path id="Path_448" data-name="Path 448" d="M190.239,233.126c0,.42.009.838,0,1.258a.675.675,0,1,1-1.346.028q-.029-1.326,0-2.651a.674.674,0,1,1,1.346.015c.011.449,0,.9,0,1.348Z" transform="translate(-106.52 -165.375)" fill="#5a1c89"/>
    <path id="Path_449" data-name="Path 449" d="M159.768,244.386a.675.675,0,0,1,.037-1.349.675.675,0,1,1-.037,1.349Z" transform="translate(-80.069 -175.988)" fill="#5a1c89"/>
    <path id="Path_450" data-name="Path 450" d="M129.672,214.369a.674.674,0,0,1-.662-.659.691.691,0,0,1,.691-.682.677.677,0,0,1,.656.712.662.662,0,0,1-.685.629Z" transform="translate(-53.301 -149.312)" fill="#5a1c89"/>
    <path id="Path_451" data-name="Path 451" d="M129.7,244.4a.675.675,0,1,1-.028-1.349.675.675,0,0,1,.028,1.35Z" transform="translate(-53.301 -175.998)" fill="#5a1c89"/>
    <path id="Path_452" data-name="Path 452" d="M160.463,213.707a.678.678,0,0,1-.653.669.65.65,0,0,1-.69-.663.666.666,0,0,1,.64-.677A.7.7,0,0,1,160.463,213.707Z" transform="translate(-80.068 -149.319)" fill="#5a1c89"/>
    <path id="Path_453" data-name="Path 453" d="M99.744,244.4a.676.676,0,0,1-.645-.718.667.667,0,1,1,1.332.086A.676.676,0,0,1,99.744,244.4Z" transform="translate(-26.648 -175.997)" fill="#5a1c89"/>
    <path id="Path_454" data-name="Path 454" d="M129.667,273.118a.662.662,0,0,1,.69.625.677.677,0,0,1-.652.715.688.688,0,0,1-.7-.677.674.674,0,0,1,.657-.663Z" transform="translate(-53.302 -202.79)" fill="#5a1c89"/>
    <path id="Path_455" data-name="Path 455" d="M160.472,273.789a.694.694,0,0,1-.707.665.661.661,0,0,1-.635-.68.648.648,0,0,1,.695-.659.677.677,0,0,1,.647.672Z" transform="translate(-80.077 -202.787)" fill="#5a1c89"/>
    <path id="Path_456" data-name="Path 456" d="M100.434,273.792a.667.667,0,1,1-1.334,0,.668.668,0,0,1,1.335,0Z" transform="translate(-26.65 -202.798)" fill="#5a1c89"/>
    <path id="Path_457" data-name="Path 457" d="M100.434,213.7a.667.667,0,0,1-1.334-.018.668.668,0,1,1,1.335.017Z" transform="translate(-26.65 -149.304)" fill="#5a1c89"/>
  </g>
</svg>
