<svg xmlns="http://www.w3.org/2000/svg" width="38.884" height="30" viewBox="0 0 38.884 30">
  <path id="Inverter" d="M61.38,98.249H95.931v16.873a1.694,1.694,0,0,1-1.689,1.688H63.07a1.694,1.694,0,0,1-1.689-1.688V98.249Zm28.6-8.591h4.113a.317.317,0,0,1,.317.317v2.5h3.7V96.43H59.22V92.476h3.8v-2.5a.317.317,0,0,1,.317-.317h4.113a.317.317,0,0,1,.317.317v2.5h4.176V87.895a1.088,1.088,0,0,1,1.085-1.085H84.845a1.088,1.088,0,0,1,1.085,1.085v4.581h3.733v-2.5a.317.317,0,0,1,.317-.317Zm-15.8,2.815h9.509V89.025H74.176Zm7.43,10.622-4.229.039-1.547,5.378,2.1.019-2.215,5.6,5.871-7.158H79l2.6-3.875Zm10.845-1.243v1.458H88.272v-1.458Zm-26.23-1.36h1.458v1.36h1.347v1.458h-1.36v1.36H66.221v-1.36H64.86v-1.458h1.36Z" transform="translate(-59.22 -86.81)" fill="#5a1c89" fill-rule="evenodd"/>
</svg>
