<svg xmlns="http://www.w3.org/2000/svg" width="45.058" height="32.299" viewBox="0 0 45.058 32.299">
  <g id="Micro_Oven" transform="translate(-36.14 -76.87)">
    <path id="Path_484" data-name="Path 484" d="M80.719,81.346c-1.287-.891-2.81-1.951-4.34-3.045a7.473,7.473,0,0,0-4.518-1.431c-1.89.011-3.814.009-5.674.006l-2.283,0h-18.7a6.944,6.944,0,0,0-4.02,1.262c-.965.669-1.939,1.356-2.882,2.022-.581.41-1.162.822-1.746,1.229a.9.9,0,0,0-.418.8q0,5.525,0,11.049,0,5.92,0,11.839a2.288,2.288,0,0,0,2.288,2.3c.362,0,.724,0,1.087,0H40.81c0,.208,0,.418,0,.626v.247c.006.633.285.916.907.916q1.886,0,3.771,0c.694,0,.954-.26.957-.962v-.816h24.4c0,.1,0,.2,0,.3q0,.322.009.644a.771.771,0,0,0,.828.832q.923,0,1.832,0c.711,0,1.413,0,2.1,0,.589,0,.866-.283.871-.883,0-.232,0-.464,0-.709v-.2h2.255a2.312,2.312,0,0,0,2.44-2.438V99.728q0-8.727,0-17.456a1.034,1.034,0,0,0-.481-.929Zm-41.3-.053.523-.37c.7-.495,1.422-1.007,2.138-1.5a5.5,5.5,0,0,1,3.186-.993q6.171-.007,12.341,0h4.468q1.377,0,2.753,0c2.282,0,4.642,0,6.963-.008h.038A6.035,6.035,0,0,1,75.518,79.6c.545.4,1.109.791,1.654,1.17.249.174.5.346.745.522h-38.5Zm35.528,25.428c0,.235,0,.471,0,.714v.169H72.431v-.874c0-.614-.287-.9-.891-.9H45.906a1.044,1.044,0,0,0-.785.216,1.087,1.087,0,0,0-.222.786v.767H42.384v-.85c0-.633-.283-.916-.907-.918H40.343c-.592,0-1.2,0-1.8,0a.833.833,0,0,1-.65-.269.762.762,0,0,1-.16-.547h33.6a1.073,1.073,0,0,0,.807-.219,1.057,1.057,0,0,0,.222-.8V82.89h7.279c0,.061.008.121.008.182v21.8c0,.681-.277.96-.954.962H75.843a.783.783,0,0,0-.9.89ZM70.774,82.889V103.44H37.723V82.89H70.774Z" fill="#5a1c89"/>
    <path id="Path_485" data-name="Path 485" d="M275.563,224.461h.617c.28,0,.562,0,.843,0a.771.771,0,0,0,.857-.836c.006-.861.006-1.76,0-2.749a.754.754,0,0,0-.819-.839c-1.483-.008-2.852-.006-4.185,0a.762.762,0,0,0-.828.865c0,.916,0,1.82,0,2.684a.785.785,0,0,0,.886.874q.684,0,1.367,0h1.262Zm-1.939-1.594v-1.259H276.3v1.259Z" transform="translate(-198.959 -120.737)" fill="#5a1c89"/>
    <path id="Path_486" data-name="Path 486" d="M272.91,192.219h4.056a.8.8,0,0,0,.908-.916q0-1.325,0-2.651a.767.767,0,0,0-.835-.857c-1.3-.006-2.661-.006-4.153,0a.767.767,0,0,0-.843.849c0,.922,0,1.837,0,2.716a.775.775,0,0,0,.868.858Zm.709-1.58v-1.281h2.675v1.281Z" transform="translate(-198.952 -93.548)" fill="#5a1c89"/>
    <path id="Path_487" data-name="Path 487" d="M273.671,164.888h0a1.1,1.1,0,0,0-1.162-.045.7.7,0,0,0-.39.744c.039.448.384.7.944.7h0a1.042,1.042,0,0,0,.755-.246.6.6,0,0,0,.172-.439A.982.982,0,0,0,273.671,164.888Z" transform="translate(-199.018 -74.074)" fill="#5a1c89"/>
    <path id="Path_488" data-name="Path 488" d="M298.741,166.443h.006c.572,0,.919-.287.93-.764a.734.734,0,0,0-.2-.54,1.009,1.009,0,0,0-.738-.258h-.009a1.029,1.029,0,0,0-.758.26.73.73,0,0,0-.2.545c.014.482.363.758.96.758Z" transform="translate(-220.661 -74.226)" fill="#5a1c89"/>
    <path id="Path_489" data-name="Path 489" d="M272.994,129.218H273a.99.99,0,0,0,.868-.4.714.714,0,0,0,.023-.708.856.856,0,0,0-.855-.464.877.877,0,0,0-.894.453.728.728,0,0,0,.017.714.961.961,0,0,0,.833.4Z" transform="translate(-198.969 -42.827)" fill="#5a1c89"/>
    <path id="Path_490" data-name="Path 490" d="M298.692,129.231h0a1.007,1.007,0,0,0,.835-.346.723.723,0,0,0,.1-.652.889.889,0,0,0-1-.567.8.8,0,0,0-.847.6.72.72,0,0,0,.122.631.976.976,0,0,0,.792.33Z" transform="translate(-220.638 -42.84)" fill="#5a1c89"/>
    <path id="Path_491" data-name="Path 491" d="M273.969,153.067a.828.828,0,0,0-.911-.547h0c-.54,0-.854.208-.933.617a.758.758,0,0,0,.323.8,1.088,1.088,0,0,0,.606.153,1.1,1.1,0,0,0,.647-.174A.753.753,0,0,0,273.969,153.067Z" transform="translate(-199.008 -63.802)" fill="#5a1c89"/>
    <path id="Path_492" data-name="Path 492" d="M298.75,154.071c.572,0,.919-.293.927-.769a.722.722,0,0,0-.2-.537,1.009,1.009,0,0,0-.739-.255h0a1.044,1.044,0,0,0-.764.26.729.729,0,0,0-.194.542c.016.482.363.758.954.758h.016Z" transform="translate(-220.661 -63.794)" fill="#5a1c89"/>
    <path id="Path_493" data-name="Path 493" d="M286.795,152.912a.786.786,0,0,0-.843-.432h-.077c-.053,0-.1,0-.147,0a.763.763,0,0,0-.745.733.752.752,0,0,0,.7.814c.081.008.161.013.236.013a1.736,1.736,0,0,0,.348-.033.75.75,0,0,0,.533-.41.768.768,0,0,0-.006-.684Z" transform="translate(-209.869 -63.764)" fill="#5a1c89"/>
    <path id="Path_494" data-name="Path 494" d="M285.817,129.175c.025,0,.05,0,.077,0h.014a.882.882,0,0,0,.879-.426.789.789,0,0,0-.226-.968,1.234,1.234,0,0,0-1.309.016.783.783,0,0,0,.565,1.381Z" transform="translate(-209.861 -42.784)" fill="#5a1c89"/>
    <path id="Path_495" data-name="Path 495" d="M299.374,140.223a1.305,1.305,0,0,0-1.287,0,.753.753,0,0,0-.274.849.825.825,0,0,0,.908.545h0a.826.826,0,0,0,.915-.539.75.75,0,0,0-.266-.852Z" transform="translate(-220.66 -53.286)" fill="#5a1c89"/>
    <path id="Path_496" data-name="Path 496" d="M285.87,164.88a.932.932,0,0,0-.7.274.741.741,0,0,0-.179.581c.023.265.175.708.937.709h0c.576,0,.922-.268.949-.735a.724.724,0,0,0-.188-.561,1.065,1.065,0,0,0-.818-.266Z" transform="translate(-209.873 -74.226)" fill="#5a1c89"/>
    <path id="Path_497" data-name="Path 497" d="M272.923,141.635a.832.832,0,0,0,.106,0h0a.874.874,0,0,0,.879-.393.783.783,0,0,0-.183-.977,1.281,1.281,0,0,0-1.344,0,.78.78,0,0,0,.537,1.374Z" transform="translate(-199.012 -53.302)" fill="#5a1c89"/>
    <path id="Path_498" data-name="Path 498" d="M285.755,141.681a1.02,1.02,0,0,0,.117-.006h.189a.773.773,0,1,0-.011-1.546,2.926,2.926,0,0,0-.4.006.776.776,0,0,0-.609.385.754.754,0,0,0-.031.7A.763.763,0,0,0,285.755,141.681Z" transform="translate(-209.832 -53.348)" fill="#5a1c89"/>
    <path id="Path_499" data-name="Path 499" d="M53.126,140.5H81.948c.7,0,.98-.276.98-.98V123.127c0-.7-.274-.977-.979-.977H53.1c-.673,0-.948.273-.948.943v16.426c0,.706.274.98.979.98Zm.609-1.585V123.724H81.346v15.193Z" transform="translate(-13.503 -38.189)" fill="#5a1c89"/>
    <path id="Path_500" data-name="Path 500" d="M213.761,158.718c-.482-.009-.951-.006-1.345,0a1.084,1.084,0,0,0-1.159,1.176c0,.6,0,1.2,0,1.8v1.6c0,.611,0,1.22,0,1.831a1.049,1.049,0,0,0,1.109,1.118c.249,0,.5.006.733.006s.468,0,.677,0a1.065,1.065,0,0,0,1.112-1.121c0-1.748,0-3.521,0-5.269a1.08,1.08,0,0,0-1.126-1.146Zm.008,1.574v4.392h-1.406v-4.392Z" transform="translate(-147.69 -69.025)" fill="#5a1c89"/>
    <path id="Path_501" data-name="Path 501" d="M88.453,152.52a2.776,2.776,0,0,0-.526-.965c-.388-.475-.4-.493.011-.954l.056-.061a.993.993,0,0,0,.226-.315l.02-.053a3.919,3.919,0,0,0,.263-.885.733.733,0,0,0-.16-.565.79.79,0,0,0-.564-.28.815.815,0,0,0-.827.681,1.323,1.323,0,0,1-.274.534,1.966,1.966,0,0,0,.008,2.843c.377.417.377.467-.011.893a1.944,1.944,0,0,0,0,2.814h0c.392.429.392.481-.011.915a1.967,1.967,0,0,0-.583,1.331.785.785,0,0,0,.673.839.74.74,0,0,0,.1.006.817.817,0,0,0,.775-.63,1.593,1.593,0,0,1,.3-.6,1.966,1.966,0,0,0,.008-2.792c-.421-.468-.421-.486.016-.965a1.82,1.82,0,0,0,.5-1.792Z" transform="translate(-42.112 -60.361)" fill="#5a1c89"/>
    <path id="Path_502" data-name="Path 502" d="M110.783,154.347a1.949,1.949,0,0,0,0-2.816c-.393-.431-.392-.475.014-.913a2,2,0,0,0,.581-1.3.791.791,0,0,0-.678-.874.822.822,0,0,0-.874.628,1.592,1.592,0,0,1-.3.6,1.966,1.966,0,0,0-.006,2.794c.418.464.418.5.006.937a1.823,1.823,0,0,0-.518,1.82,3.361,3.361,0,0,0,.581,1.005l.067.092c.211.288.213.418.008.655-.038.044-.075.086-.114.128-.075.085-.153.171-.226.263a1.76,1.76,0,0,0-.376,1.175.76.76,0,0,0,.736.75h.038a.808.808,0,0,0,.775-.652,1.461,1.461,0,0,1,.285-.567,1.953,1.953,0,0,0,0-2.818c-.4-.443-.4-.478,0-.916Z" transform="translate(-61.392 -60.363)" fill="#5a1c89"/>
    <path id="Path_503" data-name="Path 503" d="M156.24,154.721c0-.092.133-.235.227-.338l.052-.058a1.96,1.96,0,0,0,0-2.767c-.423-.468-.431-.478.011-.962a1.963,1.963,0,0,0,.562-1.339.778.778,0,0,0-.714-.811.808.808,0,0,0-.844.662,1.338,1.338,0,0,1-.268.539,1.961,1.961,0,0,0,.011,2.866c.354.388.356.468.009.847a1.943,1.943,0,0,0,0,2.886c.346.373.345.459-.013.841a1.962,1.962,0,0,0-.608,1.217c-.016.576.241.946.691.988a.813.813,0,0,0,.086,0,.8.8,0,0,0,.777-.722,1.19,1.19,0,0,1,.174-.349c.033-.052.064-.1.094-.153.055-.1.117-.19.182-.29a2.592,2.592,0,0,0,.356-.673,1.929,1.929,0,0,0-.576-1.925.759.759,0,0,1-.2-.465Z" transform="translate(-99.942 -60.363)" fill="#5a1c89"/>
    <path id="Path_504" data-name="Path 504" d="M133.632,154.368a3.15,3.15,0,0,0,.251-.3,1.911,1.911,0,0,0-.013-2.246,3.683,3.683,0,0,0-.243-.288c-.039-.044-.08-.088-.117-.133a.385.385,0,0,1,0-.615,1.448,1.448,0,0,1,.108-.111,1.035,1.035,0,0,0,.251-.329,4.427,4.427,0,0,0,.357-1.063.676.676,0,0,0-.139-.531.8.8,0,0,0-1.406.381,1.234,1.234,0,0,1-.251.507,1.964,1.964,0,0,0,0,2.891c.349.382.349.462,0,.847a1.938,1.938,0,0,0-.009,2.861c.366.4.366.475,0,.868a1.952,1.952,0,0,0-.606,1.352.781.781,0,0,0,.666.846.693.693,0,0,0,.1.006.825.825,0,0,0,.782-.623,2.549,2.549,0,0,1,.236-.5c.025-.044.049-.088.072-.132.053-.1.114-.194.18-.3a2.456,2.456,0,0,0,.33-.644,1.864,1.864,0,0,0-.551-1.87c-.368-.388-.368-.454.009-.872Z" transform="translate(-80.672 -60.374)" fill="#5a1c89"/>
  </g>
</svg>
