<svg xmlns="http://www.w3.org/2000/svg" width="54.284" height="33.191" viewBox="0 0 54.284 33.191">
  <path id="Networking" d="M25.008,114.763a1.118,1.118,0,1,1,0-2.236h7.564a4.048,4.048,0,0,1,2.765-2.73v-3.716a1.118,1.118,0,1,1,2.236,0V109.8a4.063,4.063,0,0,1,1.749,1.029,4.01,4.01,0,0,1,1.015,1.7H61.824a4.048,4.048,0,0,1,2.765-2.73v-3.716a1.118,1.118,0,1,1,2.236,0V109.8a4.063,4.063,0,0,1,1.749,1.029,4.01,4.01,0,0,1,1.015,1.7h7.467a1.118,1.118,0,1,1,0,2.236H69.619a4.059,4.059,0,0,1-7.828,0H40.371a4.059,4.059,0,0,1-7.828,0Zm30.659-30.2H76.836a.612.612,0,0,1,.61.61V98.133a.612.612,0,0,1-.61.61H55.667a.612.612,0,0,1-.61-.61V85.17a.612.612,0,0,1,.61-.61Zm7.821,15.018h5.519a2.833,2.833,0,0,0,1.471,2.483H62.017a2.992,2.992,0,0,0,1.471-2.483Zm2.761-2.89a.782.782,0,1,1-.782.782.781.781,0,0,1,.782-.782ZM56.888,85.7H75.613a.542.542,0,0,1,.539.539v9.416a.542.542,0,0,1-.539.539H56.888a.542.542,0,0,1-.539-.539V86.243a.542.542,0,0,1,.539-.539ZM24.916,84.56H46.084a.612.612,0,0,1,.61.61V98.133a.612.612,0,0,1-.61.61H24.916a.612.612,0,0,1-.61-.61V85.17a.612.612,0,0,1,.61-.61h0Zm7.825,15.018H38.26a2.833,2.833,0,0,0,1.471,2.483H31.264a3.009,3.009,0,0,0,1.476-2.483Zm2.758-2.89a.782.782,0,1,1-.782.782.781.781,0,0,1,.782-.782ZM26.137,85.7H44.862a.542.542,0,0,1,.539.539v9.416a.542.542,0,0,1-.539.539H26.135a.542.542,0,0,1-.539-.539V86.243a.545.545,0,0,1,.539-.539h0Zm11.6,26.708a1.813,1.813,0,1,0,.534,1.285,1.816,1.816,0,0,0-.534-1.285Zm29.259,0a1.814,1.814,0,1,0,.534,1.285A1.816,1.816,0,0,0,67,112.413Z" transform="translate(-23.89 -84.56)" fill="#5a1c89" fill-rule="evenodd"/>
</svg>
