<svg xmlns="http://www.w3.org/2000/svg" width="30.388" height="30" viewBox="0 0 30.388 30">
  <g id="Note_Counting" transform="translate(-51.456 -53.09)">
    <path id="Path_459" data-name="Path 459" d="M81.061,63.78c-1.346-1.93-2.812-4.008-4.481-6.355a2.773,2.773,0,0,0-2.34-1.2c-.336,0-.677,0-1.007,0h-.423c-.076,0-.15,0-.229,0V53.09H59.474v3.134h-.143c-.225,0-.442,0-.658,0a2.778,2.778,0,0,0-2.422,1.284c-1.1,1.65-2.2,3.337-3.265,4.967l-.779,1.191a4.505,4.505,0,0,0-.641,3.507q.527,2.516,1.048,5.033l.525,2.527c.109.522.215,1.046.323,1.569.26,1.273.528,2.59.824,3.879a2.481,2.481,0,0,0,2.1,1.981,63.378,63.378,0,0,0,9.956.921c.332,0,.663.007.991.007a55.83,55.83,0,0,0,9.792-.822,2.71,2.71,0,0,0,2.365-2.336q.271-1.511.539-3.022.25-1.4.5-2.8c.4-2.241.81-4.558,1.222-6.836a4.5,4.5,0,0,0-.694-3.5Zm-21.6-5.865h-.437c-.478,0-.721.188-.723.557a.528.528,0,0,0,.144.39.776.776,0,0,0,.572.18H73.128a.587.587,0,0,0,.652-.566c0-.338-.258-.558-.654-.56H72.6v-.564h.67c.325,0,.661,0,.992,0a1.648,1.648,0,0,1,1.369.688c.376.509.746,1.039,1.1,1.551l.319.457H55.932c.063-.093.125-.184.188-.275a13.272,13.272,0,0,0,.739-1.163,2.176,2.176,0,0,1,2.368-1.262,1.939,1.939,0,0,0,.233.007v.56ZM58.8,61.153l18.915.039h0a.224.224,0,0,1,.226.112c.374.537.752,1.071,1.129,1.605q.514.727,1.025,1.456a3.319,3.319,0,0,1,.559,2.6q-.688,3.853-1.369,7.708l-.626,3.534c-.024.13-.046.261-.069.391-.072.413-.147.839-.233,1.255a1.47,1.47,0,0,1-1.278,1.261c-1.447.22-3,.446-4.579.605a54.652,54.652,0,0,1-7.455.191,62.637,62.637,0,0,1-6.338-.541c-.691-.095-1.376-.2-2.034-.309a1.541,1.541,0,0,1-1.339-1.294l-.82-3.959q-.936-4.516-1.871-9.031a3.172,3.172,0,0,1,.456-2.421c.69-1.082,1.415-2.169,2.041-3.1a.27.27,0,0,1,.161-.084c1.058-.017,2.2-.025,3.5-.026Zm8.731-4.046a1.039,1.039,0,0,0-.13-.356.729.729,0,0,0-.624-.361.438.438,0,0,0-.317.118.421.421,0,0,0-.125.32.512.512,0,0,0,.312.492.578.578,0,0,0,.255.06.4.4,0,0,0,.171-.033l.1-.29a.548.548,0,0,1-.141.022c-.093,0-.141-.034-.141-.1a.245.245,0,0,1,.034-.123.1.1,0,0,1,.086-.063.189.189,0,0,1,.115.05.49.49,0,0,1,.161.4.851.851,0,0,1-.182.514l.163.142H66.03a1.932,1.932,0,0,1-.132-.219c-.09-.171-.142-.266-.156-.285a.575.575,0,0,0-.3-.2,1.347,1.347,0,0,0,.613-.152.576.576,0,0,0,.317-.531.7.7,0,0,0-.093-.344.393.393,0,0,0-.245-.208h1.81v-.327H64.519v.327H65.4a.45.45,0,0,1,.26.459.48.48,0,0,1-.145.366.512.512,0,0,1-.364.137,1.285,1.285,0,0,1-.572-.164l0,.514h.083c.115,0,.239.111.375.333.07.113.131.212.187.3h-4.6V54.216H71.448V57.9H67.511a1.129,1.129,0,0,0,.071-.409A1.768,1.768,0,0,0,67.535,57.107Z" transform="translate(0)" fill="#5a1c89"/>
    <path id="Path_460" data-name="Path 460" d="M76.488,173.658h4.864a1.654,1.654,0,0,0,1.614,1.4h.011a1.628,1.628,0,0,0,1.6-1.4h1.835q1.866,0,3.731,0h.015a.22.22,0,0,1,.007.034,1.632,1.632,0,0,0,1.577,1.37h.025a1.619,1.619,0,0,0,1.588-1.3.234.234,0,0,1,.031-.1.225.225,0,0,1,.1-.011c.863,0,1.728,0,2.591,0q1.035,0,2.072,0h0a.372.372,0,0,0,.428-.382c.174-1.914.359-3.86.538-5.741l.042-.449q.147-1.538.294-3.076l.265-2.774c.029-.309.057-.616.085-.931l.059-.665H75Zm4.447-12.013v-.857H94.323v.857ZM91.273,172.7a.485.485,0,0,1,.5-.442H91.8a.5.5,0,0,1,.473.486c0,.073,0,.148,0,.222v.225c0,.083,0,.16,0,.237a.5.5,0,0,1-.473.487.486.486,0,0,1-.525-.445,4.657,4.657,0,0,1,0-.769Zm4.3-9.794-.135.683-.067.344c-.078.4-.159.808-.232,1.214,0,.011,0,.018-.006.025h-.011a2.147,2.147,0,0,0-.232,0H92.218c-3.9,0-7.94,0-11.911.007h0c-.173,0-.183-.017-.207-.165-.087-.511-.19-1.026-.289-1.525-.041-.21-.084-.422-.125-.632l-.007-.041H95.591l-.019.094Zm.562,3.431-.163.422c-.194.5-.385,1-.579,1.49-.032.082-.055.148-.074.2-.012.032-.024.067-.034.091l-.08,0c-.054,0-.122,0-.208,0h0l-5.736,0q-4.554,0-9.109,0c-.147,0-.181-.02-.23-.154-.185-.51-.385-1.021-.579-1.518l-.208-.532Zm-16.351-4.678H78.3l.685,3.511H77.474l1.3,3.361H77.238l1.175,3.958h-.92l-1.241-11.7h3.532v.871Zm18.063,7.488c-.1,1.1-.213,2.222-.324,3.329a.142.142,0,0,1-.02.026c-.2.011-.406.01-.624.007H96.85Zm-1.353-.609,1.3-3.362H96.277l.684-3.511H95.479v-.877h3.162l-.04.433c-.045.476-.088.947-.133,1.418q-.163,1.7-.324,3.4l-.216,2.262c-.007.078-.015.157-.022.236H96.5Zm-.81,3.927a.164.164,0,0,1-.027.037c-.644.008-1.293.007-1.922.007H93.4c-.012-.034-.022-.066-.033-.1a2.663,2.663,0,0,0-.184-.461,1.614,1.614,0,0,0-1.73-.812,1.634,1.634,0,0,0-1.28,1.324.324.324,0,0,1-.012.049.132.132,0,0,1-.042,0c-1.021,0-2.041,0-3.039,0H84.574c0-.006,0-.013,0-.022a1.626,1.626,0,0,0-1.6-1.377h0a1.635,1.635,0,0,0-1.609,1.363c0,.012,0,.024-.008.036h-.239c-.5,0-1.011,0-1.513,0-.257-.844-.509-1.688-.766-2.549l-.08-.268h17.76l-.376,1.269c-.147.5-.3,1.009-.453,1.509Zm-13.214,1a4.98,4.98,0,0,1,0-.75.485.485,0,0,1,.5-.455h.014a.5.5,0,0,1,.484.475c0,.055,0,.112,0,.171l0,.18c0,.042,0,.084,0,.126a2.1,2.1,0,0,1,0,.245.494.494,0,0,1-.5.459h0a.485.485,0,0,1-.5-.452Z" transform="translate(-20.714 -94.246)" fill="#5a1c89"/>
    <path id="Path_461" data-name="Path 461" d="M169.5,128.595h.029a1.43,1.43,0,1,0-1.443-1.458,1.4,1.4,0,0,0,.392,1.007,1.439,1.439,0,0,0,1.023.449Zm.018-1.149h0a.3.3,0,0,1-.287-.286.283.283,0,0,1,.093-.195.287.287,0,0,1,.2-.088h0a.289.289,0,0,1,.2.093.282.282,0,0,1,.085.2.291.291,0,0,1-.288.28Z" transform="translate(-102.867 -64.07)" fill="#5a1c89"/>
    <path id="Path_462" data-name="Path 462" d="M199.748,128.6h.02a1.432,1.432,0,0,0,1.006-.409,1.409,1.409,0,0,0,.427-1.006,1.434,1.434,0,0,0-1.424-1.444h-.008a1.43,1.43,0,0,0-.018,2.86Zm.305-1.428a.284.284,0,0,1-.081.2.279.279,0,0,1-.2.087.288.288,0,0,1-.286-.281.3.3,0,0,1,.087-.205.274.274,0,0,1,.193-.084h0a.293.293,0,0,1,.287.286Z" transform="translate(-129.551 -64.077)" fill="#5a1c89"/>
    <path id="Path_463" data-name="Path 463" d="M139.3,128.6h0a1.43,1.43,0,1,0-.016-2.859,1.43,1.43,0,0,0,.012,2.86Zm.285-1.423a.284.284,0,0,1-.087.2.266.266,0,0,1-.2.079.284.284,0,0,1-.279-.288.292.292,0,0,1,.287-.282h0a.275.275,0,0,1,.193.085.289.289,0,0,1,.084.205Z" transform="translate(-76.217 -64.076)" fill="#5a1c89"/>
  </g>
</svg>
