<svg xmlns="http://www.w3.org/2000/svg" width="20.722" height="22.916" viewBox="0 0 20.722 22.916">
  <path id="Notification_icon" d="M12.861,23.916a3.265,3.265,0,0,0,3.088-2.192H9.773A3.265,3.265,0,0,0,12.861,23.916Zm7.67-8.124V10.766a7.677,7.677,0,0,0-5.637-7.388,2.188,2.188,0,0,0-4.065,0,7.678,7.678,0,0,0-5.637,7.388v5.025l-1.87,1.871A1.091,1.091,0,0,0,3,18.437v1.1a1.1,1.1,0,0,0,1.1,1.1H21.626a1.1,1.1,0,0,0,1.1-1.1v-1.1a1.091,1.091,0,0,0-.321-.775Z" transform="translate(-2.5 -1.5)" fill="none" stroke="#612690" stroke-linecap="round" stroke-width="1"/>
</svg>
