<svg xmlns="http://www.w3.org/2000/svg" width="32.782" height="32.782" viewBox="0 0 32.782 32.782">
  <g id="printer" transform="translate(-60.8 -60.8)">
    <path id="Path_440" data-name="Path 440" d="M91.4,77.571V76.1H89.921a9.8,9.8,0,0,0-2.9-1.614V60.8H65.171V76.1H60.8V87.026h2.7L61.164,91.4H77.572A9.83,9.83,0,0,0,91.4,77.572ZM67.356,62.985H84.839V73.977a9.745,9.745,0,0,0-7.27,2.12H67.356Zm-.22,21.855h6.841a9.79,9.79,0,0,0,1.594,4.371H64.807Zm16.61,6.428a7.522,7.522,0,1,1,7.521-7.521A7.537,7.537,0,0,1,83.746,91.268Z" transform="translate(0 0)" fill="#5a1c89"/>
    <path id="Path_441" data-name="Path 441" d="M221.925,187.95H219.74v6.556h2.185Zm0,10.927v-2.185H219.74v2.185Z" transform="translate(-137.085 -109.667)" fill="#5a1c89"/>
  </g>
</svg>
