<svg xmlns="http://www.w3.org/2000/svg" width="41.163" height="30" viewBox="0 0 41.163 30">
  <g id="Projector" transform="translate(-38.974 -77.2)">
    <path id="Path_475" data-name="Path 475" d="M80.13,93.331c0-2.037-.946-2.986-2.965-2.987H63.726a.665.665,0,0,1-.01-.13,2.688,2.688,0,0,0-1.856-3.079.348.348,0,0,1-.1-.182c-.015-.727-.013-1.449-.012-2.214v-.521H62.3c.563,0,1.1,0,1.628.006a1.08,1.08,0,0,0,.829-.271,1.1,1.1,0,0,0,.266-.842c-.01-.393-.007-.779-.006-1.189,0-.108,0-.217,0-.327h.695c1.027-.007,1.265-.247,1.277-1.281,0-.343,0-.687,0-1.049v-.3h.716c.715,0,1.391,0,2.069,0a1.209,1.209,0,0,0,.9-.268.847.847,0,0,0,.216-.644c-.023-.839-.817-.848-1.091-.848H69.8q-11.564,0-23.129,0h0c-.715,0-1.084.286-1.1.851a.851.851,0,0,0,.216.636,1.245,1.245,0,0,0,.908.27q1.725-.007,3.453,0h1.96v.4c0,.43,0,.838,0,1.24a.906.906,0,0,0,.988.982h.979c0,.124,0,.245,0,.365,0,.4,0,.785,0,1.162a.964.964,0,0,0,1.1,1.1c.531-.01,1.064-.007,1.626-.006h.553c0,.2,0,.4,0,.6,0,.644-.007,1.252.012,1.866a.494.494,0,0,1-.39.59A2.406,2.406,0,0,0,55.4,89.622c-.006.2,0,.4,0,.665V90.5c-.2-.055-.4-.105-.587-.155a8.842,8.842,0,0,1-1.5-.476,7.438,7.438,0,0,0-6.587-.2,7.964,7.964,0,0,1-3.829.677c-.261,0-.521,0-.782,0h-.244a2.583,2.583,0,0,0-2.891,2.917c-.006,2.613,0,5.227,0,7.661,0,1.885.734,2.767,2.513,3.012.036.179.067.36.1.536a5.477,5.477,0,0,0,.381,1.44,2.589,2.589,0,0,0,2.657,1.3h.012c7.661-.009,15.452-.007,22.986-.007h7.227a2.509,2.509,0,0,0,2.653-2.622c.007-.2.006-.391,0-.579v-.054c1.859-.254,2.624-1.141,2.627-3.023,0-2.7,0-5.18,0-7.588ZM65.192,79.024v.756h-11.3v-.756ZM63.24,81.64v.787H55.866V81.64Zm-4.121,3.091v-.486h.811v2.689a.208.208,0,0,1-.187.207.907.907,0,0,1-.5-.064c-.128-.092-.128-.619-.128-.817Zm-.46,4.086c.683,0,1.364,0,2.046,0,.588,0,.892.067,1.046.225s.214.463.209,1.055c0,.069,0,.136-.009.219h-4.74a1.442,1.442,0,0,1,.077-1.159c.182-.231.576-.34,1.239-.34h.133Zm-8.871,14.658a6.344,6.344,0,1,1-.131-12.686h.022a6.344,6.344,0,0,1,.109,12.688Zm-6.383.461c.171,0,.339,0,.5,0a4.27,4.27,0,0,1,2.136.374,7.745,7.745,0,0,0,7.592-.1,2.211,2.211,0,0,1,.984-.282c6.137-.016,12.377-.015,18.411-.012h2.228c.14,0,.285.01.423.019H75.7c.082.649.042,1.017-.127,1.213s-.562.293-1.281.293H44.826c-.734,0-1.106-.083-1.284-.287s-.212-.556-.136-1.223Zm12.685-1.773h0c2.311-4.242,2.313-6.332-.009-10.053.09-.006.179-.01.266-.01q10.425,0,20.852,0c.988,0,1.175.182,1.176,1.151,0,2.171.009,5.028,0,7.872,0,.805-.225,1.038-.991,1.039q-9.64.007-19.281,0H56.093ZM40.734,94.357c0-.133,0-.264,0-.4,0-.321-.006-.654.01-.978.029-.623.266-.862.873-.881.261-.007.522-.01.791-.01.206,0,.414,0,.629,0h.28a8.331,8.331,0,0,0-.013,10.063c-.1,0-.2,0-.3,0-.531.007-1.033.015-1.532-.018-.362-.023-.733-.162-.731-1.013q0-2.346,0-4.691V94.356Z" transform="translate(0 -0.009)" fill="#5a1c89"/>
    <path id="Path_476" data-name="Path 476" d="M260.675,79q.08,0,.152,0a1.3,1.3,0,0,0,.988-.252.871.871,0,0,0,.234-.664c-.015-.874-.832-.875-1.18-.877a1.364,1.364,0,0,0-.994.278.867.867,0,0,0-.225.646.838.838,0,0,0,.25.63A1.12,1.12,0,0,0,260.675,79Z" transform="translate(-188.514)" fill="#5a1c89"/>
    <path id="Path_477" data-name="Path 477" d="M270,191.211q-1.82.007-3.641,0a.754.754,0,0,0-.868.857q0,2.489,0,4.977a.753.753,0,0,0,.857.868c1.213,0,2.428-.006,3.641,0a.751.751,0,0,0,.868-.856c-.006-.817,0-1.634,0-2.451,0-.842,0-1.683,0-2.526a.752.752,0,0,0-.854-.871Zm-.546,5.3H266.9v-3.9h2.551Z" transform="translate(-193.625 -97.467)" fill="#5a1c89"/>
    <path id="Path_478" data-name="Path 478" d="M214.263,191.22h-6.241c-.469,0-.878.128-.883.67s.408.674.877.674h6.241c.466,0,.88-.118.88-.668s-.4-.676-.875-.676Z" transform="translate(-143.743 -97.397)" fill="#5a1c89"/>
    <path id="Path_479" data-name="Path 479" d="M208.049,210.556c1.015,0,2.03,0,3.047,0h3.12c.491,0,.939-.1.917-.7-.019-.546-.448-.641-.909-.641q-3.083,0-6.166,0c-.494,0-.938.115-.92.706.018.545.451.641.911.64Z" transform="translate(-143.74 -112.765)" fill="#5a1c89"/>
    <path id="Path_480" data-name="Path 480" d="M214.263,227.22h-6.241c-.469,0-.878.128-.883.67s.408.674.875.674h6.239c.466,0,.88-.116.881-.667s-.4-.676-.874-.676Z" transform="translate(-143.743 -128.149)" fill="#5a1c89"/>
    <path id="Path_481" data-name="Path 481" d="M82.012,177.744a5.358,5.358,0,1,0,5.224,5.445,5.363,5.363,0,0,0-5.224-5.445Zm-.127,9.371a4.016,4.016,0,1,1,4.008-4.011,4.007,4.007,0,0,1-4.008,4.011Z" transform="translate(-31.969 -86.029)" fill="#5a1c89"/>
  </g>
</svg>
