<svg xmlns="http://www.w3.org/2000/svg" width="35.28" height="30" viewBox="0 0 35.28 30">
  <path id="Renovation" d="M28.513,61.663a2.79,2.79,0,0,1-2.872-.758,3.565,3.565,0,0,1-.916-2.651c2.439,2.835,5.408-.669,1.81-2.487a3.128,3.128,0,0,1,4.25,1.551,5.373,5.373,0,0,0,.974,1.436,1.691,1.691,0,0,0,.181.138A1.618,1.618,0,0,1,32.689,58a1.423,1.423,0,0,1,.652-.155A1.57,1.57,0,0,1,34.9,58.871h0a.305.305,0,0,1,.089,0h.462a.286.286,0,0,1,.075,0,1.12,1.12,0,0,1,1,.919.348.348,0,0,1,.144-.031h.459a.313.313,0,0,1,.078,0,1.15,1.15,0,0,1,1.026,1.026h.514a.288.288,0,0,1,.075,0A1.344,1.344,0,0,1,40,62c1.39-.215,2.918-1.057,4.4.466a3.561,3.561,0,0,1,.913,2.648c-2.447-2.832-5.42.669-1.818,2.5a3.029,3.029,0,0,1-3.845-.933,6.032,6.032,0,0,1-.468.985l-.066.106a.506.506,0,0,1,.365.483V70.98a.5.5,0,0,1-.5.5H31.752a.5.5,0,0,1-.5-.5V68.245a.5.5,0,0,1,.5-.5h0l-2.507-4.1h0a4.41,4.41,0,0,1-.5-.862,2.427,2.427,0,0,1-.219-.81,3.017,3.017,0,0,1,0-.313h-.012Zm20.84,9.142a.528.528,0,0,1-.528.528H42.293v-1.5h5.554V56.5a.54.54,0,0,1,0-.1L34.8,46.817l-13.311,9.6a.522.522,0,0,1,.017.135V69.832h6.666v1.516H20.529A.525.525,0,0,1,20,70.823V57.091a2.336,2.336,0,0,1-1.6.075,1.878,1.878,0,0,1-.881-.617,1.932,1.932,0,0,1-.405-1,2.522,2.522,0,0,1,.6-1.858h0a.451.451,0,0,1,.087-.083L34.349,41.617a.529.529,0,0,1,.681-.026L51.6,53.561h0a.528.528,0,0,1,.063.057,2.378,2.378,0,0,1,.673,2.189,2.01,2.01,0,0,1-1.276,1.436,2.206,2.206,0,0,1-1.709-.112V70.814l0-.009ZM31.776,62.821a.255.255,0,0,1-.052-.031l-.649-.525c-.287-.238-.631-.52-.862-.715a1.252,1.252,0,0,0-.52-.259.517.517,0,0,0-.287,0,.3.3,0,0,0-.158.161,1.011,1.011,0,0,0-.057.474,1.74,1.74,0,0,0,.161.574,3.854,3.854,0,0,0,.422.718.21.21,0,0,1,.023.031l2.528,3.791a.337.337,0,0,1,.057.153h0a3.756,3.756,0,0,0,.1.546h5.62a2.967,2.967,0,0,0,.233-.353v-.017l.264-.44a4.8,4.8,0,0,0,.8-2.225l-.029-1.149v-.316c0-.756.023-1.688-.669-1.806h-.433c0,.215-.017.431-.029.64s-.023.367-.023.54a.336.336,0,1,1-.672,0h0a4.489,4.489,0,0,1,.026-.576c.045-.709.1-1.525-.471-1.625h-.44a.286.286,0,0,1-.075,0,6.944,6.944,0,0,1-.029.781c0,.186-.023.367-.023.54a.336.336,0,0,1-.673,0,3.963,3.963,0,0,1,.029-.574c.043-.709.1-1.525-.474-1.625h-.44a.409.409,0,0,1-.089,0V60.81a.336.336,0,1,1-.671,0V59.167c0-.462-.459-.664-.89-.664a.779.779,0,0,0-.348.083,1.3,1.3,0,0,0-.537,1.184v3.673a.336.336,0,1,1-.671,0v-.621h0Zm0-1.192-.313-.127a3.9,3.9,0,0,0-.44-.153l.48.393.287.224v-.339h-.014Z" transform="translate(-17.109 -41.479)" fill="#5a1c89"/>
</svg>
