<svg xmlns="http://www.w3.org/2000/svg" width="26.441" height="30" viewBox="0 0 26.441 30">
  <g id="Server_Rack" transform="translate(-75.21 -61.11)">
    <g id="Group_204" data-name="Group 204" transform="translate(75.21 61.11)">
      <path id="Path_464" data-name="Path 464" d="M100.255,61.11H76.605a1.408,1.408,0,0,0-1.4,1.411v4.235a1.408,1.408,0,0,0,1.4,1.412h23.65a1.408,1.408,0,0,0,1.4-1.412V62.521A1.408,1.408,0,0,0,100.255,61.11Zm-6.831,3.873H89.85a.345.345,0,0,1,0-.689h3.574a.345.345,0,0,1,0,.689Zm2.156.43a.775.775,0,1,1,.766-.775A.771.771,0,0,1,95.581,65.413Zm2.581,0a.775.775,0,1,1,.766-.775A.771.771,0,0,1,98.162,65.413Z" transform="translate(-75.21 -61.11)" fill="#5a1c89"/>
      <path id="Path_465" data-name="Path 465" d="M100.255,127.47H76.605a1.408,1.408,0,0,0-1.4,1.411v4.235a1.408,1.408,0,0,0,1.4,1.411h23.65a1.407,1.407,0,0,0,1.4-1.411v-4.235A1.408,1.408,0,0,0,100.255,127.47Zm-6.831,3.872H89.85a.345.345,0,0,1,0-.689h3.574a.345.345,0,0,1,0,.689Zm2.156.43a.775.775,0,1,1,.766-.775A.771.771,0,0,1,95.581,131.772Zm2.581,0a.775.775,0,1,1,.766-.775A.771.771,0,0,1,98.162,131.772Z" transform="translate(-75.21 -119.174)" fill="#5a1c89"/>
      <path id="Path_466" data-name="Path 466" d="M100.255,193.82H76.605a1.408,1.408,0,0,0-1.4,1.411v4.235a1.408,1.408,0,0,0,1.4,1.411h23.65a1.408,1.408,0,0,0,1.4-1.411v-4.235A1.408,1.408,0,0,0,100.255,193.82Zm-6.831,3.873H89.85a.345.345,0,0,1,0-.689h3.574a.345.345,0,0,1,0,.689Zm2.156.43a.775.775,0,1,1,.766-.775A.771.771,0,0,1,95.581,198.123Zm2.581,0a.775.775,0,1,1,.766-.775A.771.771,0,0,1,98.162,198.123Z" transform="translate(-75.21 -177.229)" fill="#5a1c89"/>
    </g>
    <g id="Group_205" data-name="Group 205" transform="translate(78.351 86.17)">
      <path id="Path_467" data-name="Path 467" d="M106.877,280.518a.424.424,0,0,1-.424.424h-6.21a.425.425,0,0,1-.424-.424v-.564a.425.425,0,0,1,.424-.424h6.21a.425.425,0,0,1,.424.424Z" transform="translate(-99.82 -277.06)" fill="#5a1c89"/>
      <path id="Path_468" data-name="Path 468" d="M211.937,280.518a.425.425,0,0,1-.424.424H205.3a.424.424,0,0,1-.424-.424v-.564a.425.425,0,0,1,.424-.424h6.21a.426.426,0,0,1,.424.424Z" transform="translate(-191.777 -277.06)" fill="#5a1c89"/>
      <path id="Path_469" data-name="Path 469" d="M169.566,261.715a.422.422,0,0,0-.3-.124h-.636V260.6a.423.423,0,0,0-.424-.424h-.564a.423.423,0,0,0-.424.424v.988h-.636a.426.426,0,0,0-.3.124.422.422,0,0,0-.124.3V264.7a.428.428,0,0,0,.124.3.422.422,0,0,0,.3.124h2.681a.423.423,0,0,0,.424-.424v-2.681a.427.427,0,0,0-.124-.3Z" transform="translate(-157.846 -260.18)" fill="#5a1c89"/>
    </g>
  </g>
</svg>
