<svg xmlns="http://www.w3.org/2000/svg" width="153.389" height="76.276" viewBox="0 0 153.389 76.276">
  <g id="Site_visitor" data-name="Site visitor" transform="translate(-0.996 -25.994)">
    <path id="Path_1712" data-name="Path 1712" d="M46,79.2h57.235a3.92,3.92,0,1,0,0-7.84H100.1a3.92,3.92,0,0,1,0-7.84H109.5a3.92,3.92,0,1,0,0-7.84H95.391a3.92,3.92,0,1,1,0-7.84h5.488v-.078a3.921,3.921,0,0,0,0-7.684V40H46Zm76.053-23.521a3.92,3.92,0,1,0,0,7.84h1.568a3.92,3.92,0,0,0,0-7.84Z" transform="translate(25.564 7.673)" fill="#8fb6d7"/>
    <path id="Path_1713" data-name="Path 1713" d="M17.461,40a3.92,3.92,0,1,0,0,7.84h3.92v.08a3.92,3.92,0,0,1,0,7.682v.077H4.916a3.92,3.92,0,0,0,0,7.84h25.09a3.92,3.92,0,1,1,0,7.84H25.3a3.92,3.92,0,1,0,0,7.84H71.56V40H21.381ZM11.189,71.363a3.92,3.92,0,1,0,0,7.84h1.568a3.92,3.92,0,1,0,0-7.84Z" transform="translate(0 7.673)" fill="#ee7581"/>
    <path id="Path_1714" data-name="Path 1714" d="M3,67.5H20.932m10.506,0H152.749m-127.071,0h1.788" transform="translate(1.136 23.296)" fill="none" stroke="#105286" stroke-linecap="round" stroke-linejoin="round" stroke-width="1"/>
    <g id="Group_209" data-name="Group 209" transform="translate(35.107 26.494)">
      <path id="Path_1715" data-name="Path 1715" d="M787.12,1322.78v-41.6a2.807,2.807,0,0,1,2.809-2.816h61.81a2.806,2.806,0,0,1,2.81,2.816v41.6Z" transform="translate(-776.143 -1262.675)" fill="#f0f4f7" stroke="#105286" stroke-width="1" fill-rule="evenodd"/>
      <path id="Path_1716" data-name="Path 1716" d="M860.957,1304.4a7.779,7.779,0,0,1-7.8,7.795h-61.24a7.78,7.78,0,0,1-7.8-7.795Z" transform="translate(-777.848 -1247.886)" fill="#406b95" stroke="#105286" stroke-linejoin="round" stroke-width="1"/>
      <path id="Path_1717" data-name="Path 1717" d="M804.12,1304.4h14.113v2.081a2.045,2.045,0,0,1-2.017,2.081h-10.08a2.046,2.046,0,0,1-2.017-2.081Z" transform="translate(-766.486 -1247.886)" fill="#8fb6d7" stroke="#105286" stroke-width="1"/>
      <path id="Path_1718" data-name="Path 1718" d="M834.854,1313.269H789.87v-32.154h58.8v32.154h-5.391" transform="translate(-774.581 -1261.114)" fill="#d2dce9"/>
      <path id="Path_1719" data-name="Path 1719" d="M803.2,1313.269H789.87v-32.154h58.8v32.154H820.252" transform="translate(-774.581 -1261.114)" fill="none" stroke="#105286" stroke-linejoin="round" stroke-width="0.5"/>
      <rect id="Rectangle_9" data-name="Rectangle 9" width="43.907" height="26.658" rx="1" transform="translate(18.033 22.753)" fill="#f0f4f7"/>
      <g id="Group_207" data-name="Group 207" transform="translate(0 36.074)">
        <rect id="Rectangle_10" data-name="Rectangle 10" width="4.704" height="6.272" transform="translate(21.953)" fill="#2dbca4" stroke="#105286" stroke-linecap="round" stroke-linejoin="round" stroke-width="1"/>
        <rect id="Rectangle_11" data-name="Rectangle 11" width="4.704" height="6.272" transform="translate(9.409)" fill="#2dbca4" stroke="#105286" stroke-linecap="round" stroke-linejoin="round" stroke-width="1"/>
        <rect id="Rectangle_12" data-name="Rectangle 12" width="26.658" height="7.84" transform="translate(4.704 9.409)" fill="#2dbca4" stroke="#105286" stroke-linecap="round" stroke-linejoin="round" stroke-width="1"/>
        <rect id="Rectangle_13" data-name="Rectangle 13" width="17.249" height="4.704" transform="translate(8.625 18.817)" fill="#2dbca4" stroke="#105286" stroke-linecap="round" stroke-linejoin="round" stroke-width="1"/>
        <g id="Group_206" data-name="Group 206" transform="translate(0 34.498)">
          <rect id="Rectangle_14" data-name="Rectangle 14" width="15.681" height="4.704" rx="0.5" fill="#2dbca4" stroke="#105286" stroke-linecap="round" stroke-linejoin="round" stroke-width="1"/>
          <rect id="Rectangle_15" data-name="Rectangle 15" width="15.681" height="4.704" rx="0.5" transform="translate(20.385)" fill="#2dbca4" stroke="#105286" stroke-linecap="round" stroke-linejoin="round" stroke-width="1"/>
        </g>
        <path id="Path_1720" data-name="Path 1720" d="M7.284,1057.86H18.261l.784,17.249H6.5Zm20.385,0H38.646l.784,17.249H26.885Z" transform="translate(-4.932 -1040.611)" fill="#2dbca4" stroke="#105286" stroke-linecap="round" stroke-linejoin="round" stroke-width="1"/>
        <rect id="Rectangle_16" data-name="Rectangle 16" width="14.113" height="7.84" rx="2.5" transform="translate(10.977 12.545)" fill="#2dbca4" stroke="#105286" stroke-linecap="round" stroke-linejoin="round" stroke-width="1"/>
        <circle id="Ellipse_25" data-name="Ellipse 25" cx="0.784" cy="0.784" r="0.784" transform="translate(14.113 15.681)" fill="#70979c" stroke="#105286" stroke-linecap="round" stroke-linejoin="round" stroke-width="1"/>
        <circle id="Ellipse_26" data-name="Ellipse 26" cx="0.784" cy="0.784" r="0.784" transform="translate(20.385 15.681)" fill="#70979c" stroke="#105286" stroke-linecap="round" stroke-linejoin="round" stroke-width="1"/>
        <rect id="Rectangle_17" data-name="Rectangle 17" width="7.84" height="6.272" transform="translate(7.84 3.136)" fill="#2dbca4" stroke="#105286" stroke-linecap="round" stroke-linejoin="round" stroke-width="1"/>
        <rect id="Rectangle_18" data-name="Rectangle 18" width="7.84" height="6.272" transform="translate(20.385 3.136)" fill="#2dbca4" stroke="#105286" stroke-linecap="round" stroke-linejoin="round" stroke-width="1"/>
      </g>
      <path id="Path_1721" data-name="Path 1721" d="M793.188,1282.87h40.77a1.565,1.565,0,0,1,1.568,1.568v3.136H791.62v-3.136A1.565,1.565,0,0,1,793.188,1282.87Z" transform="translate(-773.587 -1260.117)" fill="#105286"/>
      <circle id="Ellipse_27" data-name="Ellipse 27" cx="0.784" cy="0.784" r="0.784" transform="translate(19.601 24.321)" fill="#e6dfd2"/>
      <circle id="Ellipse_28" data-name="Ellipse 28" cx="0.784" cy="0.784" r="0.784" transform="translate(22.737 24.321)" fill="#eb8e68"/>
      <circle id="Ellipse_29" data-name="Ellipse 29" cx="0.784" cy="0.784" r="0.784" transform="translate(25.874 24.321)" fill="#2dbca4"/>
      <path id="Path_1722" data-name="Path 1722" d="M818.688,1269.36h28.226a1.565,1.565,0,0,1,1.568,1.568v36.066a1.565,1.565,0,0,1-1.568,1.568H818.688a1.565,1.565,0,0,1-1.568-1.568v-36.066A1.565,1.565,0,0,1,818.688,1269.36Z" transform="translate(-759.1 -1267.792)" fill="#ee7581" stroke="#105286" stroke-linecap="round" stroke-linejoin="round" stroke-width="1"/>
      <path id="Path_1723" data-name="Path 1723" d="M820.093,1303.327H839.2l5.545-5.54v-26.335a1.844,1.844,0,0,0-1.849-1.847H820.72a1.844,1.844,0,0,0-1.849,1.847v29.926c0,1.022.215,1.783,1.223,1.949Z" transform="translate(-758.106 -1267.653)" fill="#fff"/>
      <path id="Path_1724" data-name="Path 1724" d="M818.87,1298.008v3.462a1.843,1.843,0,0,0,1.849,1.846H839.2l5.545-5.538v-26.32a1.844,1.844,0,0,0-1.849-1.847H820.72a1.844,1.844,0,0,0-1.849,1.847v23.386" transform="translate(-758.106 -1267.65)" fill="none" stroke="#105286" stroke-linecap="round" stroke-linejoin="round" stroke-width="0.5"/>
      <path id="Path_1725" data-name="Path 1725" d="M831.834,1293.106l5.545-5.538h-3.7a1.8,1.8,0,0,0-1.849,1.825Z" transform="translate(-750.742 -1257.448)" fill="#105286" stroke="#105286" stroke-linecap="round" stroke-linejoin="round" stroke-width="0.5"/>
      <rect id="Rectangle_19" data-name="Rectangle 19" width="12.545" height="4.72" rx="0.5" transform="translate(67.428 0)" fill="#70979c" stroke="#105286" stroke-linecap="round" stroke-linejoin="round" stroke-width="1"/>
      <path id="Path_1726" data-name="Path 1726" d="M836.543,1275.86h3.174a.753.753,0,0,1,.754.754v14.566a.753.753,0,0,1-.753.753h-18.1a.753.753,0,0,1-.753-.753v-14.566a.753.753,0,0,1,.753-.752h12.59" transform="translate(-756.97 -1264.099)" fill="#fff" stroke="#105286" stroke-linecap="round" stroke-linejoin="round" stroke-width="0.5"/>
      <path id="Path_1727" data-name="Path 1727" d="M822.625,1277.968l.9.957,2.225-1.559m-3.12,5.307.9.957,2.225-1.559m-3.12,5.307.9.957,2.225-1.559m3.133-7.848h7.84m-7.84,4.7h7.84m-7.84,4.7h7.84" transform="translate(-755.973 -1263.244)" fill="none" stroke="#2dbca4" stroke-linecap="round" stroke-linejoin="round" stroke-width="1"/>
      <g id="Group_208" data-name="Group 208" transform="translate(42.962 73.918) rotate(-90)">
        <path id="Path_1728" data-name="Path 1728" d="M14.066,0l-3.7,2.134L8.047,3.47,6.082,4.6l-1.668.961L1.21,7.412a2.415,2.415,0,1,0,2.416,4.182L16.482,4.181" transform="translate(0 24.771)" fill="#ee7581"/>
        <path id="Path_1729" data-name="Path 1729" d="M0,7.7H6.914V0H0Z" transform="matrix(-0.5, -0.866, 0.866, -0.5, 16.399, 30.201)" fill="#2dbca4" stroke="#105286" stroke-linejoin="round" stroke-width="1"/>
        <path id="Path_1730" data-name="Path 1730" d="M19.945,1.912a13.1,13.1,0,1,0,4.535,4.64,13.132,13.132,0,0,0-4.535-4.64ZM18.687,3.976A10.7,10.7,0,1,1,7.77,3.846a10.7,10.7,0,0,1,10.917.13Z" transform="translate(17.701 4.794)" fill="#2dbca4"/>
        <path id="Path_1731" data-name="Path 1731" d="M21.387,10.7a10.7,10.7,0,1,0-1.308,5.126" transform="matrix(-0.5, -0.866, 0.866, -0.5, 26.899, 32.502)" fill="none" stroke="#105286" stroke-linejoin="round" stroke-width="0.5"/>
        <path id="Path_1732" data-name="Path 1732" d="M14.065,0l-3.7,2.134M8.046,3.47l-.724.417m-.817.471L6.082,4.6l-1.668.961L1.21,7.414a2.414,2.414,0,1,0,2.416,4.181L16.481,4.18" transform="translate(0.001 24.771)" fill="none" stroke="#105286" stroke-linejoin="round" stroke-width="0.5"/>
        <ellipse id="Ellipse_30" data-name="Ellipse 30" cx="13.108" cy="13.114" rx="13.108" ry="13.114" transform="matrix(-0.5, -0.866, 0.866, -0.5, 26.014, 35.798)" fill="none" stroke="#105286" stroke-linejoin="round" stroke-width="1"/>
      </g>
    </g>
  </g>
</svg>
