<svg xmlns="http://www.w3.org/2000/svg" width="64.225" height="75.276" viewBox="0 0 64.225 75.276">
  <g id="Support" transform="translate(-37.587)">
    <path id="Path_1765" data-name="Path 1765" d="M151.153,49.953a4.315,4.315,0,0,1-2.843,4.692,56.281,56.281,0,0,1-19.535,3.189,56.236,56.236,0,0,1-17.883-3.219,4.307,4.307,0,0,1-2.833-4.6l3.4-27.118A17.591,17.591,0,0,1,128.917,7.5h.829a17.592,17.592,0,0,1,17.409,15.052Z" transform="translate(-60.082 -6.397)" fill="#9f9f9f"/>
    <path id="Path_1766" data-name="Path 1766" d="M255.549,49.953l-4-27.4A17.591,17.591,0,0,0,234.143,7.5h-.83a17.68,17.68,0,0,0-2.9.239,17.593,17.593,0,0,1,14.52,14.811l4,27.4a4.315,4.315,0,0,1-2.843,4.692,56.4,56.4,0,0,1-15.362,3.1q1.2.071,2.444.092a56.281,56.281,0,0,0,19.535-3.189,4.315,4.315,0,0,0,2.843-4.692Z" transform="translate(-164.479 -6.397)" fill="#bbb"/>
    <path id="Path_1767" data-name="Path 1767" d="M103.344,367.536h-54.5a3.761,3.761,0,0,1-3.661-4.624l1.578-8.792A7.479,7.479,0,0,1,52.6,348.5l10.412-2.048,12.747-2.507a.712.712,0,0,1,.268,0l13.459,2.532,10.534,1.982a7.485,7.485,0,0,1,6,6.169l1.034,8.557a3.762,3.762,0,0,1-3.715,4.356Z" transform="translate(-6.398 -293.363)" fill="#66c1ff"/>
    <path id="Path_1768" data-name="Path 1768" d="M131.549,363.18l-1.034-8.557a7.485,7.485,0,0,0-6-6.169l-10.534-1.982-13.459-2.532a.711.711,0,0,0-.268,0L87.5,346.449,77.091,348.5a7.475,7.475,0,0,0-3.294,1.552l7.09-1.395,12.747-2.507a.712.712,0,0,1,.268,0l13.459,2.532,10.534,1.982a7.485,7.485,0,0,1,6,6.169l1.034,8.557a3.734,3.734,0,0,1-.29,2.151h3.191a3.762,3.762,0,0,0,3.715-4.356Z" transform="translate(-30.887 -293.363)" fill="#4eb7ff"/>
    <path id="Path_1769" data-name="Path 1769" d="M113.979,346.472v.178a3.4,3.4,0,0,1-1.309,2.679l-.359.279-4.949-.931L93.9,346.146a.712.712,0,0,0-.268,0l-6.068,1.194-6.679,1.313-7.09,1.4a7.46,7.46,0,0,1,3.293-1.553l10.412-2.048,12.747-2.507a.712.712,0,0,1,.268,0Z" transform="translate(-30.889 -293.363)" fill="#4eb7ff"/>
    <path id="Path_1770" data-name="Path 1770" d="M193.493,346.472v.178a3.4,3.4,0,0,1-1.309,2.679l-11.344,8.829a1.363,1.363,0,0,1-1.7-.018l-10.868-8.813a3.39,3.39,0,0,1-1.256-2.636v-.243l12.747-2.507a.711.711,0,0,1,.268,0Z" transform="translate(-110.404 -293.363)" fill="#a6f3ba"/>
    <path id="Path_1771" data-name="Path 1771" d="M193.493,346.472v.178a3.4,3.4,0,0,1-1.309,2.679l-.359.279-4.949-.931-13.459-2.532a.711.711,0,0,0-.268,0l-6.068,1.194a3.294,3.294,0,0,1-.063-.65v-.243l12.747-2.507a.712.712,0,0,1,.268,0Z" transform="translate(-110.404 -293.363)" fill="#90f0a9"/>
    <path id="Path_1772" data-name="Path 1772" d="M220.253,291.581l-6.367,4.955a.882.882,0,0,1-1.1-.011l-6.1-4.945a1.925,1.925,0,0,1-.713-1.5V279.374H221v10.687a1.925,1.925,0,0,1-.743,1.519Z" transform="translate(-143.635 -238.299)" fill="#ffcd85"/>
    <path id="Path_1773" data-name="Path 1773" d="M193.187,119.495v15.951a7.861,7.861,0,0,1-3.695,6.666l-4.282,2.679a9.178,9.178,0,0,1-9.731,0l-4.282-2.679a7.86,7.86,0,0,1-3.694-6.666V119.5a6.336,6.336,0,0,0,6.1-4.387,15.773,15.773,0,0,0,3.19,2.932l.21.143C182.054,121.6,187.582,120.451,193.187,119.495Z" transform="translate(-110.816 -98.185)" fill="#ffcd85"/>
    <path id="Path_1774" data-name="Path 1774" d="M177.007,118.184l-.21-.143a15.774,15.774,0,0,1-3.19-2.932,6.336,6.336,0,0,1-6.1,4.387V121.7a6.336,6.336,0,0,0,6.1-4.387,15.774,15.774,0,0,0,3.19,2.932l.21.143c5.047,3.421,10.575,2.267,16.18,1.311v-2.205C187.582,120.451,182.054,121.6,177.007,118.184Z" transform="translate(-110.816 -98.185)" fill="#ffc570"/>
    <path id="Path_1775" data-name="Path 1775" d="M250.487,145.649v15.242a7.861,7.861,0,0,1-3.695,6.666l-4.282,2.679a9.169,9.169,0,0,1-2.66,1.127,9.178,9.178,0,0,0,7.071-1.127l4.282-2.679a7.86,7.86,0,0,0,3.694-6.666V144.94c-1.478.252-2.951.517-4.411.709Z" transform="translate(-172.526 -123.63)" fill="#ffc570"/>
    <path id="Path_1776" data-name="Path 1776" d="M99.405,165.49h4.751V172.2H99.405a1.111,1.111,0,0,1-1.11-1.11V166.6A1.111,1.111,0,0,1,99.405,165.49Z" transform="translate(-51.783 -141.159)" fill="#105286"/>
    <path id="Path_1777" data-name="Path 1777" d="M129.684,157.7h-2.717a3.8,3.8,0,0,1-3.8-3.8v-5.15a3.8,3.8,0,0,1,3.8-3.8h2.716Z" transform="translate(-72.996 -123.637)" fill="#676e87"/>
    <path id="Path_1778" data-name="Path 1778" d="M125.369,153.9v-5.15a3.8,3.8,0,0,1,3.8-3.8h-2.205a3.8,3.8,0,0,0-3.8,3.8v5.15a3.8,3.8,0,0,0,3.8,3.8h2.205A3.8,3.8,0,0,1,125.369,153.9Z" transform="translate(-72.996 -123.637)" fill="#cdcdcd"/>
    <rect id="Rectangle_20" data-name="Rectangle 20" width="6.184" height="4.352" rx="2.176" transform="translate(66.288 38.716)" fill="#cdcdcd"/>
    <path id="Path_1779" data-name="Path 1779" d="M376.287,172.207h-4.751v-6.715h4.751a1.111,1.111,0,0,1,1.111,1.11V171.1A1.111,1.111,0,0,1,376.287,172.207Z" transform="translate(-284.851 -141.161)" fill="#105286"/>
    <path id="Path_1780" data-name="Path 1780" d="M391.587,165.49H388.85a1.266,1.266,0,0,1,1.378,1.111v4.493a1.266,1.266,0,0,1-1.378,1.111h2.737a1.266,1.266,0,0,0,1.378-1.11V166.6a1.266,1.266,0,0,0-1.378-1.111Z" transform="translate(-300.418 -141.159)" fill="#105286"/>
    <path id="Path_1781" data-name="Path 1781" d="M342.2,144.948h2.716a3.8,3.8,0,0,1,3.8,3.8v5.15a3.8,3.8,0,0,1-3.8,3.8H342.2Z" transform="translate(-259.825 -123.637)" fill="#676e87"/>
    <path id="Path_1782" data-name="Path 1782" d="M347.877,144.948h-2.205a3.8,3.8,0,0,1,3.8,3.8v5.15a3.8,3.8,0,0,1-3.8,3.8h2.205a3.8,3.8,0,0,0,3.8-3.8v-5.15A3.8,3.8,0,0,0,347.877,144.948Z" transform="translate(-262.789 -123.637)" fill="#cdcdcd"/>
    <path id="Path_1783" data-name="Path 1783" d="M101.754,69.665l-1.031-8.537q0-.021-.006-.042a8.61,8.61,0,0,0-6.889-7.078L83.313,52.03h0l-2.848-.536a57.731,57.731,0,0,0,8.13-2.206A5.43,5.43,0,0,0,92.162,43.4L90.521,32.148h.915a2.216,2.216,0,0,0,2.213-2.213V25.441a2.216,2.216,0,0,0-2.213-2.213h-1.82a4.905,4.905,0,0,0-.536-.961l-.915-6.275A18.694,18.694,0,0,0,69.664,0h-.83a18.724,18.724,0,0,0-18.55,16.364l-.861,6.864h-1.8a2.216,2.216,0,0,0-2.213,2.213v4.494a2.216,2.216,0,0,0,2.213,2.213H48.3L46.883,43.482a5.442,5.442,0,0,0,3.559,5.775,57.585,57.585,0,0,0,8.388,2.27L56.4,52l-.016,0-10.4,2.044a8.6,8.6,0,0,0-6.7,6.453q-.007.029-.012.058l-1.573,8.765a4.864,4.864,0,0,0,4.741,5.949h54.5a4.865,4.865,0,0,0,4.808-5.611ZM89.993,25.437l1.451,0-.008,4.5H89.993Zm-1.467,8.317,1.453,9.962a3.22,3.22,0,0,1-2.118,3.492,55.5,55.5,0,0,1-9.4,2.405V45.361l.8-.5a8.963,8.963,0,0,0,2.867-2.867h.18a4.808,4.808,0,0,0,4.8-4.8V34.728a4.92,4.92,0,0,0,1.414-.974ZM73.811,45.671a8.124,8.124,0,0,1-8.562,0l-2.286-1.43-.012-.007-1.985-1.242a6.72,6.72,0,0,1-3.176-5.731V22.339a7.4,7.4,0,0,0,5.3-3.458,17,17,0,0,0,2.271,1.885l.214.146c5.018,3.4,10.435,2.608,15.7,1.706V37.261a6.777,6.777,0,0,1-.486,2.529H73.389a3.263,3.263,0,0,0-3.073-2.176H68.444a3.262,3.262,0,0,0-3.258,3.258v.041a3.262,3.262,0,0,0,3.258,3.258h1.873A3.263,3.263,0,0,0,73.389,42h5.944a6.82,6.82,0,0,1-1.241,1Zm2.448,1.07v5.021a.829.829,0,0,1-.319.65l-6.228,4.847-5.96-4.833a.819.819,0,0,1-.3-.547c0-.008,0-.016,0-.024s0-.045,0-.068V47.146l.632.4a10.343,10.343,0,0,0,10.9,0Zm-4.89-5.869v.041a1.054,1.054,0,0,1-1.053,1.053H68.444a1.054,1.054,0,0,1-1.053-1.053v-.041a1.054,1.054,0,0,1,1.053-1.053h1.873a1.054,1.054,0,0,1,1.053,1.053Zm11.785-1.226a9.035,9.035,0,0,0,.319-2.385V35.169h1.433v2.025A2.6,2.6,0,0,1,83.155,39.646Zm4.633-14.533v5.151a2.7,2.7,0,0,1-2.7,2.7H83.474V22.413h1.614A2.7,2.7,0,0,1,87.788,25.113ZM52.472,16.639A16.516,16.516,0,0,1,68.835,2.205h.829A16.489,16.489,0,0,1,85.982,16.313l.6,4.129a4.883,4.883,0,0,0-1.5-.235H82.367q-.052,0-.1.005l-.015,0c-.021,0-.042,0-.063.007l-.755.129c-5.229.9-10.168,1.752-14.622-1.266l-.2-.137a14.728,14.728,0,0,1-2.968-2.727,1.1,1.1,0,0,0-1.9.362A5.233,5.233,0,0,1,56.7,20.208H53.971a4.869,4.869,0,0,0-2,.43Zm-1.2,8.474a2.7,2.7,0,0,1,2.7-2.7h1.614v10.55H53.971a2.7,2.7,0,0,1-2.7-2.7Zm-3.656,4.822.008-4.5h1.443V29.94Zm3.563,17.243a3.223,3.223,0,0,1-2.107-3.422l1.279-10.192a4.89,4.89,0,0,0,3.622,1.6h1.614v2.092a8.913,8.913,0,0,0,4.212,7.6l1.445.9v3.94a55.365,55.365,0,0,1-10.064-2.528Zm10.429,6.051a3.031,3.031,0,0,0,.756.909l6.1,4.944a1.973,1.973,0,0,0,2.469.024l6.366-4.954a3.021,3.021,0,0,0,.755-.868L81.869,54A2.309,2.309,0,0,1,81.1,55.1l-11.345,8.83a.26.26,0,0,1-.324,0L58.566,55.107a2.273,2.273,0,0,1-.752-1.133ZM98.971,72.137a2.656,2.656,0,0,1-2.024.934h-54.5A2.658,2.658,0,0,1,39.863,69.8q.007-.029.012-.059l1.572-8.761a6.391,6.391,0,0,1,4.97-4.767L55.643,54.4a4.469,4.469,0,0,0,1.534,2.419l10.868,8.814a2.455,2.455,0,0,0,3.068.03l11.345-8.83a4.475,4.475,0,0,0,1.591-2.423l9.37,1.763a6.4,6.4,0,0,1,5.117,5.24l1.031,8.535c0,.014,0,.028.006.042a2.654,2.654,0,0,1-.6,2.145Z" transform="translate(0 0)" fill="#105286"/>
  </g>
</svg>
