<svg xmlns="http://www.w3.org/2000/svg" width="39.833" height="30" viewBox="0 0 39.833 30">
  <path id="Thumb" d="M48.515,68.9H59.931a2.111,2.111,0,0,1,2.1,2.1v16.94a2.111,2.111,0,0,1-2.1,2.1H48.515a2.111,2.111,0,0,1-2.1-2.1V71a2.111,2.111,0,0,1,2.1-2.1ZM29,64.051h33.9a2.972,2.972,0,0,1,2.965,2.965V91.085a2.972,2.972,0,0,1-2.965,2.965H29a2.972,2.972,0,0,1-2.965-2.965V67.015A2.972,2.972,0,0,1,29,64.05h0ZM41.584,87.3h1.285a.832.832,0,0,1,.83.83v1.058a.832.832,0,0,1-.83.83H41.584a.833.833,0,0,1-.83-.83V88.128a.833.833,0,0,1,.83-.83Zm0-4.418h1.285a.832.832,0,0,1,.83.83v1.058a.832.832,0,0,1-.83.83H41.584a.833.833,0,0,1-.83-.83V83.71a.833.833,0,0,1,.83-.83h0ZM36.62,87.3H37.9a.833.833,0,0,1,.83.83v1.058a.832.832,0,0,1-.83.83H36.62a.832.832,0,0,1-.83-.83V88.128a.833.833,0,0,1,.83-.83Zm0-4.418H37.9a.833.833,0,0,1,.83.83v1.058a.832.832,0,0,1-.83.83H36.62a.832.832,0,0,1-.83-.83V83.71a.833.833,0,0,1,.83-.83h0ZM31.657,87.3h1.285a.832.832,0,0,1,.83.83v1.058a.832.832,0,0,1-.83.83H31.657a.833.833,0,0,1-.83-.83V88.128a.833.833,0,0,1,.83-.83Zm0-4.418h1.285a.832.832,0,0,1,.83.83v1.058a.832.832,0,0,1-.83.83H31.657a.833.833,0,0,1-.83-.83V83.71a.833.833,0,0,1,.83-.83h0Zm.969-13.839H41.9a2.371,2.371,0,0,1,1.678.7h0a2.376,2.376,0,0,1,.7,1.68v6.4A2.389,2.389,0,0,1,41.9,80.2H32.626a2.375,2.375,0,0,1-1.68-.7l-.04-.044a2.371,2.371,0,0,1-.658-1.636v-6.4a2.369,2.369,0,0,1,.7-1.678l0,0a2.374,2.374,0,0,1,1.679-.7h0ZM41.9,70.415H32.626a1.007,1.007,0,0,0-1.006,1.006v6.4a1.007,1.007,0,0,0,.268.683l.027.026a1,1,0,0,0,.709.3H41.9A1.011,1.011,0,0,0,42.9,77.819v-6.4A1.011,1.011,0,0,0,41.9,70.417h0Zm21.009-4.753H29a1.36,1.36,0,0,0-1.353,1.353V91.084A1.36,1.36,0,0,0,29,92.437h33.9a1.36,1.36,0,0,0,1.353-1.353V67.015a1.36,1.36,0,0,0-1.353-1.353h0Zm-6.873,6.5a6.288,6.288,0,0,1,1.719.913,4.451,4.451,0,0,1,1.164,1.3,5.624,5.624,0,0,1,.3.6,5.831,5.831,0,0,1,.237.652,9.475,9.475,0,0,1,.25,1.039q.1.547.153,1.14c.034.385.052.8.053,1.232s-.012.873-.041,1.332c-.025.278-.057.556-.084.834a.16.16,0,0,1-.16.145H59.01a.161.161,0,0,1-.162-.16l.087-.859c0-.247.008-.523.014-.793a14,14,0,0,0-.025-1.653c-.032-.371-.078-.723-.137-1.05a8.525,8.525,0,0,0-.224-.934,5.221,5.221,0,0,0-.2-.547l0-.008a4.736,4.736,0,0,0-.251-.5l-.005-.008a3.548,3.548,0,0,0-.937-1.03,5.344,5.344,0,0,0-1.441-.761,4.256,4.256,0,0,0-1.338-.237,4.361,4.361,0,0,0-1.843.369,4.27,4.27,0,0,0-.448.226.468.468,0,1,1-.468-.81,5.23,5.23,0,0,1,.545-.274l.012-.005a5.36,5.36,0,0,1,.564-.206,5.414,5.414,0,0,1,1.657-.233,5.17,5.17,0,0,1,1.626.287h0Zm-4.5,5.227a6.967,6.967,0,0,0,.019,1.2c.01.146.021.295.028.441.017.292.028.582.034.865s0,.542,0,.8-.034.665-.065,1.059v0c-.028.358-.061.7-.087.873a.16.16,0,0,1-.159.137h-.62a.162.162,0,0,1-.162-.162l.005-.039c.027-.173.06-.5.088-.849.034-.4.061-.823.067-1.05q.01-.365,0-.763t-.034-.827c-.005-.138-.018-.285-.028-.424a7.772,7.772,0,0,1-.017-1.406,3.726,3.726,0,0,1,.484-1.468,3.191,3.191,0,0,1,.22-.342,3.1,3.1,0,0,1,.263-.314,4.432,4.432,0,0,1,.4-.365,1.4,1.4,0,0,1,.327-.212c.179-.085.354-.16.527-.224a4.836,4.836,0,0,1,.537-.166h.008a3.738,3.738,0,0,1,.547-.1,3.639,3.639,0,0,1,.543-.014h.026a.48.48,0,0,1,.305.154.464.464,0,0,1,.12.327v.026a.48.48,0,0,1-.154.305.464.464,0,0,1-.336.119,2.473,2.473,0,0,0-.414.012,3.333,3.333,0,0,0-.426.074,4.209,4.209,0,0,0-.437.136c-.147.054-.294.116-.44.186a2.808,2.808,0,0,0-.243.177,2.264,2.264,0,0,0-.215.2,2.544,2.544,0,0,0-.188.225,2.473,2.473,0,0,0-.158.246,2.9,2.9,0,0,0-.37,1.153h0Zm-1.645,2.547a6.1,6.1,0,0,1-.191,1.282c-.036.115-.071.216-.113.329a.161.161,0,0,1-.15.1h-.669a.161.161,0,0,1-.16-.16.157.157,0,0,1,.022-.081c.034-.069.065-.14.092-.211s.057-.157.081-.239a3.923,3.923,0,0,0,.146-.894,6.27,6.27,0,0,0-.043-1.091,8.031,8.031,0,0,1-.159-1.266,6.34,6.34,0,0,1,.054-1.186,5.21,5.21,0,0,1,.281-1.106,4.623,4.623,0,0,1,.506-.977l0-.005a.468.468,0,0,1,.646-.119l.005,0a.469.469,0,0,1,.191.3.46.46,0,0,1-.074.349,3.733,3.733,0,0,0-.4.783l0,.008a4.309,4.309,0,0,0-.224.9,5.537,5.537,0,0,0-.045,1.026,7.007,7.007,0,0,0,.142,1.112,4.25,4.25,0,0,1,.069,1.15h0Zm6.149-5.4.146.094c.1.071.182.133.279.21l.135.118a4.617,4.617,0,0,1,1.268,2.074,9.046,9.046,0,0,1,.374,2.592c.005.364-.016.882-.049,1.4-.038.6-.091,1.206-.141,1.6a.162.162,0,0,1-.16.141h-.616a.161.161,0,0,1-.162-.16l0-.034c.049-.391.1-.981.141-1.563.034-.52.054-1.031.05-1.379a8.172,8.172,0,0,0-.316-2.27,3.769,3.769,0,0,0-1.023-1.715l-.1-.088-.21-.16-.107-.067a.467.467,0,0,1-.208-.288A.462.462,0,0,1,55.4,74.7l.006-.009a.465.465,0,0,1,.282-.2.459.459,0,0,1,.352.054h0Zm.213,4.512c.019.149.034.291.045.44.034.5.038,1.334.017,2.182-.021.8-.063,1.607-.127,2.182l-.012.106a.161.161,0,0,1-.16.142H52.709a.161.161,0,0,1-.16-.16l0-.03c.028-.312.034-.821.026-1.365-.01-.71-.043-1.479-.075-1.934l-.034-.488-.026-.489c-.01-.242-.018-.483-.012-.717a3.915,3.915,0,0,1,.074-.7,2.194,2.194,0,0,1,.841-1.36,1.6,1.6,0,0,1,.849-.3,1.5,1.5,0,0,1,.894.248,2.684,2.684,0,0,1,1.025,1.581l0,.008c.022.078.043.16.061.244s.038.177.053.261l.022.145h0Z" transform="translate(-26.04 -64.05)" fill="#5a1c89" fill-rule="evenodd"/>
</svg>
