<svg xmlns="http://www.w3.org/2000/svg" width="1920" height="1354.667" viewBox="0 0 1920 1354.667">
  <g id="Top_shapes" opacity="0.3">
    <path id="Path_430" data-name="Path 430" d="M1920,443.733V0H0V1354.667c51.2-33.067,92.8-88,194.133-126.933,246.933-94.4,361.6,0,583.467-102.933,219.733-101.867,193.6-187.733,453.333-301.867,224-98.667,296.533-62.4,488-172.267C1835.733,585.067,1881.6,501.867,1920,443.733Z" fill="#5e92e8" opacity="0.7"/>
    <path id="Path_431" data-name="Path 431" d="M1920,443.733V0H0V1354.667c91.733-33.6,207.467-69.867,339.733-69.333,225.067.533,379.2,72,620.267-116.8,184-144,119.467-185.6,369.067-433.067,115.733-115.2,210.667-193.6,344.533-243.2C1771.733,455.467,1860.267,445.867,1920,443.733Z" fill="#3d6edc" opacity="0.6"/>
  </g>
</svg>
