<svg xmlns="http://www.w3.org/2000/svg" width="29.996" height="30" viewBox="0 0 29.996 30">
  <g id="Washing_machine" transform="translate(-53.03 -53.01)">
    <path id="Path_505" data-name="Path 505" d="M83.022,56.106a3.438,3.438,0,0,0-.092-.823,2.989,2.989,0,0,0-3.038-2.273H56.15a3,3,0,0,0-3.12,3.138V81.812c0,.833.369,1.2,1.2,1.2H81.894a1.014,1.014,0,0,0,1.132-1.13Q83.027,68.992,83.022,56.106ZM60.045,54.679h2.964V59H60.045Zm-5.369,1.05a1,1,0,0,1,1.074-1.073c.628,0,1.61,0,2.258,0V59H54.675v-.474C54.675,57.71,54.673,56.542,54.677,55.729Zm26.691,25.62H54.688V60.676h26.68Zm.013-22.614V59H65.044V54.657h.291c4.857,0,10.07,0,14.927,0a1.012,1.012,0,0,1,1.119,1.115c0,.869,0,2.094,0,2.964Z" transform="translate(0 0)" fill="#5a1c89"/>
    <path id="Path_506" data-name="Path 506" d="M273.11,187.16q0,1.962,0,3.924V187.16q0-1.256,0-2.51Q273.111,185.9,273.11,187.16Z" transform="translate(-194.151 -116.16)" fill="#5a1c89"/>
    <path id="Path_507" data-name="Path 507" d="M273.11,187.16q0,1.962,0,3.924V187.16q0-1.256,0-2.51Q273.111,185.9,273.11,187.16Z" transform="translate(-194.151 -116.16)" fill="#5a1c89"/>
    <path id="Path_508" data-name="Path 508" d="M131.462,143.355q0-.735,0-1.47a1.025,1.025,0,0,0-1.122-1.122c-1.158,0-2.315.006-3.472-.008a.615.615,0,0,1-.4-.186,8,8,0,0,0-7.557-2.733,8.1,8.1,0,0,0-6.61,9.575,8.14,8.14,0,0,0,14.152,3.713.521.521,0,0,1,.432-.2c1.147.007,2.295,0,3.443,0a1.03,1.03,0,0,0,1.132-1.141q0-1.962,0-3.924Q131.46,144.609,131.462,143.355Zm-11.183,8.927a6.436,6.436,0,1,1,6.436-6.451A6.441,6.441,0,0,1,120.279,152.282Zm9.609-3.4h-2.061a8.132,8.132,0,0,0-.008-6.073h2.069Z" transform="translate(-52.501 -75.036)" fill="#5a1c89"/>
    <path id="Path_509" data-name="Path 509" d="M208.929,79.924c.154,0,.309-.007.461,0a.836.836,0,0,1,.788.814.827.827,0,0,1-.777.845c-.315.014-.632.014-.946,0a.832.832,0,0,1,.012-1.661c.154-.007.307,0,.461,0Z" transform="translate(-136.409 -23.679)" fill="#5a1c89"/>
    <path id="Path_510" data-name="Path 510" d="M248.709,80.732a.835.835,0,0,1-.788.837c-.154.008-.309,0-.462,0s-.307.007-.461,0a.819.819,0,0,1-.226-.044h0a.842.842,0,0,1-.561-.794.828.828,0,0,1,.551-.777.807.807,0,0,1,.247-.047q.45-.014.9,0A.833.833,0,0,1,248.709,80.732Z" transform="translate(-170.395 -23.661)" fill="#5a1c89"/>
    <circle id="Ellipse_24" data-name="Ellipse 24" cx="5.336" cy="5.336" r="5.336" transform="translate(62.692 65.643)" fill="#5a1c89"/>
  </g>
</svg>
