<svg id="X_shape" data-name="X shape" xmlns="http://www.w3.org/2000/svg" width="41.039" height="29.008" viewBox="0 0 41.039 29.008">
  <rect id="Rectangle_1" data-name="Rectangle 1" width="1.805" height="1.451" rx="0.725" transform="translate(11.25 13.957)" fill="#fff"/>
  <rect id="Rectangle_2" data-name="Rectangle 2" width="4.352" height="1.447" rx="0.724" transform="translate(2.902 19.486)" fill="#fff"/>
  <rect id="Rectangle_3" data-name="Rectangle 3" width="4.352" height="1.451" rx="0.725" transform="translate(0 27.558)" fill="#fff"/>
  <path id="Path_1" data-name="Path 1" d="M24.34,93.78a.723.723,0,0,0,.723.73h5.809a.73.73,0,0,0,.73-.73h0a.73.73,0,0,0-.73-.73H25.063a.723.723,0,0,0-.723.73Z" transform="translate(-21.438 -81.723)" fill="#fff"/>
  <path id="Path_2" data-name="Path 2" d="M235.048,142.473h-9.737l-1.014-1.451-1.015-1.45-1.016-1.451-1.015-1.451-.37-.528.645-.921,1.014-1.449,1.015-1.451,1.018-1.45,1.014-1.451.162-.23.161.23,1.018,1.451,1.014,1.45,1.018,1.451,1.012,1.449,1.018,1.45L232,138.121l1.018,1.451,1.015,1.45Z" transform="translate(-194.054 -113.464)" fill="#fff"/>
  <rect id="Rectangle_4" data-name="Rectangle 4" width="4.352" height="1.451" rx="0.725" transform="translate(1.451 2.901)" fill="#fff"/>
  <path id="Path_3" data-name="Path 3" d="M235.093,0l-1.018,1.451L233.061,2.9l-1.015,1.451L231.028,5.8l-1.014,1.45L229,8.7l-1.014,1.451-1.015,1.45-1.016,1.451-.2.291-.2-.291L224.529,11.6l-1.015-1.45L222.5,8.7l-1.015-1.451-.6-.861.413-.589,1.018-1.451,2.029-2.9L225.356,0Z" transform="translate(-194.054)" fill="#fff"/>
  <path id="Path_4" data-name="Path 4" d="M47.819,27.033h0a.69.69,0,0,1-.69.69h-8.82a.641.641,0,0,0-.643.639h0a.643.643,0,0,0,.643.643h14.28l1.018-1.451.013-.018,1-1.431.449-.643.567-.808L56.653,23.2l1.014-1.45.187-.268.828-1.181L59.7,18.853l1.015-1.446,1.014-1.451.993-1.422-.022-.028-1.014-1.451L60.667,11.6l-1.014-1.45L58.639,8.7l-.788-1.12-.229-.331L56.61,5.8,55.592,4.352,55.07,3.6l-.487-.7-.959-1.368-.058-.082L52.547,0H38.391a.73.73,0,0,0-.73.73h0a.73.73,0,0,0,.73.73h5.8a.73.73,0,0,1,.73.73h0a.73.73,0,0,1-.73.73H39.836a.73.73,0,0,0-.73.73h0a.73.73,0,0,0,.73.73h6.582a.588.588,0,0,1,.588.588h0a.588.588,0,0,1-.588.588H36.94a.73.73,0,0,0-.73.73h0a.73.73,0,0,0,.73.73H52.025a.73.73,0,0,1,.73.73h0a.73.73,0,0,1-.73.73H38.391a.73.73,0,0,0-.73.73h0a.73.73,0,0,0,.73.73H50.968a.73.73,0,0,1,.73.73h0a.73.73,0,0,1-.73.724H44.193a.73.73,0,0,0-.73.73h0a.73.73,0,0,0,.73.73H54.482a.588.588,0,0,1,.588.588h0a.588.588,0,0,1-.588.588H47.095a.73.73,0,0,0-.73.73h0a.73.73,0,0,0,.73.73H52.07a.73.73,0,0,1,.73.73h0a.73.73,0,0,1-.73.724H38.391a.73.73,0,0,0-.73.73h0a.73.73,0,0,0,.73.73H50.133a.588.588,0,0,1,.588.588h0a.588.588,0,0,1-.588.588H41.3a.73.73,0,0,0-.73.623h0a.73.73,0,0,0,.73.73H52.9a.73.73,0,0,1,.73.73h0a.73.73,0,0,1-.73.73H39.836a.73.73,0,0,0-.73.73h0a.73.73,0,0,0,.73.73h8.829a.6.6,0,0,1,.6.6h0a.6.6,0,0,1-.6.6H37.795a.673.673,0,0,0-.672.673h0a.673.673,0,0,0,.672.673h9.373a.65.65,0,0,1,.651.628Z" transform="translate(-31.863)" fill="#fff"/>
</svg>
